<svg width="149" height="120" viewBox="0 0 149 120" fill="none" xmlns="http://www.w3.org/2000/svg">
<path d="M117.669 62.5252C118.728 60.0296 120.414 57.8071 122.527 56.1222C124.757 54.3429 127.514 53.1573 130.359 53.1027C132.535 53.061 134.669 53.6685 136.834 53.8973C138.842 54.1094 140.881 53.9937 142.856 53.573C144.682 53.1839 146.451 52.5358 148.124 51.7008C148.25 51.6378 148.375 51.5738 148.5 51.5089C146.85 55.4755 145.828 59.706 145.483 63.9926C145.126 68.4248 145.488 72.9021 144.955 77.3164C144.35 82.3304 142.538 87.2641 139.329 91.1459C136.768 94.245 133.428 96.5711 130.394 99.2019C129.181 100.254 127.994 101.371 126.566 102.101C125.853 102.466 125.082 102.73 124.286 102.813C123.49 102.897 122.667 102.796 121.938 102.464C121.105 102.084 120.42 101.413 119.951 100.623C119.481 99.8331 119.221 98.9288 119.116 98.0143C118.907 96.1853 119.305 94.3488 119.647 92.5401C120.083 90.2294 120.43 87.898 120.568 85.55C120.801 81.5885 120.438 77.6134 119.868 73.6868C119.323 69.9319 118.589 66.205 117.669 62.5252H117.669Z" fill="url(#paint0_linear_188_1589)"/>
<path d="M67.6078 79.3211C67.6078 79.3211 63.9889 75.6916 62.1247 74.3518C60.2604 73.012 56.4223 71.2825 56.4223 71.2825L52.1513 76.5776L50.0033 67.9347C50.0033 67.9347 39.1346 65.155 28.5266 66.6154C18.3321 68.0188 0.5 73.0419 0.5 73.0419C7.09443 79.7839 9.86006 88.7401 16.354 94.7026C16.354 94.7026 18.7567 91.955 20.039 90.7784C21.3213 89.6018 24.0479 87.6428 24.0479 87.6428C24.0479 87.6428 24.4501 91.6922 24.3495 93.6557C24.2488 95.6191 23.4442 99.4235 23.4442 99.4235C23.4442 99.4235 31.3724 103.936 39.2756 106.649C44.3884 108.404 54.7789 108.771 54.7789 108.771L73.8072 98.5672L67.6078 79.3211Z" fill="url(#paint1_linear_188_1589)"/>
<path d="M72.7852 92.9002C72.3145 92.87 55.9832 88.0033 55.9832 88.0033C55.9832 88.0033 56.0955 85.9704 55.8632 84.3547C55.6966 83.1963 54.9886 81.0525 54.9886 81.0525C54.9886 81.0525 52.613 83.5154 52.4134 86.2239C50.3197 85.5485 45.9482 84.3893 45.9482 84.3893C45.9482 84.3893 45.6708 82.8842 45.4321 82.1545C45.1618 81.328 44.4034 79.7532 44.4034 79.7532C43.9616 80.3176 43.7425 80.925 43.5035 81.5665C43.3057 82.0971 43.0818 82.65 43.0595 83.2301C43.0595 83.2301 32.4661 80.7933 33.0328 80.7535C33.5995 80.7137 42.1081 85.6715 42.1081 85.6715C42.1081 85.6715 41.5522 86.4738 41.3852 86.9475C41.1218 87.6947 40.9687 89.352 40.9687 89.352C40.9687 89.352 42.5903 88.7378 43.3286 88.286C43.9051 87.9328 44.9244 87.0114 44.9244 87.0114L51.2329 90.2993C51.2329 90.2993 50.1382 91.4684 49.8048 92.2338C49.3844 93.1989 48.9714 95.4908 48.9714 95.4908C48.9714 95.4908 51.4589 94.4465 52.4612 93.8508C53.4634 93.2551 54.9849 91.9164 54.9849 91.9164L73.8798 100.478L72.7852 92.9002Z" fill="#664D51" fill-opacity="0.772491"/>
<path d="M68.8894 4.05353C69.4458 3.92489 73.6646 -0.540837 74.6649 0.360698C81.5354 6.55239 93.7058 38.4862 93.7058 38.4862C93.7058 38.4862 131.054 30.2474 133.01 36.0145C134.965 41.7817 112.301 66.4215 112.301 66.4215C112.301 66.4215 135.448 90.4198 138.279 99.0337C138.709 100.341 132.819 102.865 132.479 103.241C129.896 106.091 84.089 94.7394 84.089 94.7394C84.089 94.7394 47.0068 118.842 44.7042 116.599C42.4017 114.355 50.6963 76.3453 50.6963 76.3453C50.6963 76.3453 18.5241 60.5555 19.4431 56.7447C19.6025 56.0838 23.4948 53.8099 25.5167 52.9115C35.1524 48.6302 58.8306 43.9493 58.8306 43.9493C58.8306 43.9493 64.5117 5.06636 68.8894 4.05353Z" fill="url(#paint2_linear_188_1589)"/>
<path d="M119.836 80.7401C119.836 80.7401 123.587 75.8444 126.232 73.1183C128.827 70.4442 137.649 62.6842 137.649 62.6842C137.649 62.6842 130.101 71.295 126.425 76.3565C123.693 80.119 120.21 88.762 120.21 88.762" fill="#654152"/>
<path d="M74.7895 0.0212991C79.1672 -0.991523 99.6059 34.4539 99.6059 34.4539C99.6059 34.4539 136.954 26.2151 138.91 31.9823C140.865 37.7494 118.201 62.3892 118.201 62.3892C118.201 62.3892 140.962 96.3584 138.379 99.2086C135.796 102.059 89.9891 90.7072 89.9891 90.7072C89.9891 90.7072 52.6577 115.612 50.4488 113.827C48.2399 112.042 57.5921 74.6289 57.5921 74.6289C57.5921 74.6289 24.5479 57.7228 25.4669 53.912C26.386 50.1011 64.7307 39.917 64.7307 39.917C64.7307 39.917 70.4118 1.03417 74.7895 0.0212991Z" fill="url(#paint3_linear_188_1589)"/>
<path d="M72.4534 54.3828L75.4991 56.3891L83.0624 47.2914L84.2861 68.67L76.7599 71.372L77.7816 76.0919C77.7816 76.0919 101.365 70.0674 101.164 70.4095C100.964 70.7516 101.48 64.3328 101.48 64.3328L91.495 66.8783L87.4248 40.0609L81.8692 41.4641L72.4534 54.3828Z" fill="#8D3827"/>
<path d="M46.7255 87.3665C43.9409 95.3214 50.268 98.5583 60.0615 100.686C54.4452 104.91 53.2498 114.056 58.913 118.499C64.5761 122.942 73.6005 117.003 74.5142 105.741C74.9387 111.122 82.8688 123.137 89.2193 119.234C95.5698 115.331 91.3847 105.774 83.7641 100.121C92.1659 100.026 99.6949 91.9524 96.6303 86.2965C93.5658 80.6407 86.3457 78.812 79.154 88.8111C80.2422 79.6682 78.5341 69.4387 71.1992 70.2591C63.8643 71.0794 63.2662 77.6975 66.6748 89.2161C57.9891 81.6347 49.5102 79.4116 46.7255 87.3665Z" fill="url(#paint4_linear_188_1589)"/>
<path d="M70.2034 94.1884C70.5828 94.8103 70.7305 95.5504 70.614 96.2459C70.4975 96.9414 70.1264 97.5353 69.5823 97.897C69.0381 98.2588 68.3655 98.3587 67.7124 98.1749C67.0592 97.9911 66.4791 97.5385 66.0995 96.9168C65.7199 96.295 65.5719 95.5549 65.6881 94.8594C65.8044 94.1638 66.1753 93.5697 66.7193 93.2077C67.2633 92.8457 67.9358 92.7455 68.589 92.929C69.2422 93.1126 69.8225 93.565 70.2023 94.1866L68.151 95.5518L70.2034 94.1884Z" fill="#B45896"/>
<path d="M79.1008 90.2281C79.7043 91.2174 79.9213 92.4065 79.7042 93.5339C79.4871 94.6613 78.8536 95.6347 77.943 96.24C77.0324 96.8454 75.9194 97.0331 74.8487 96.7618C73.7779 96.4906 72.8372 95.7826 72.2333 94.7936C71.6295 93.8046 71.412 92.6156 71.6287 91.4881C71.8455 90.3606 72.4786 89.3869 73.3889 88.7812C74.2993 88.1755 75.4123 87.9873 76.4831 88.2581C77.5539 88.529 78.4949 89.2366 79.0991 90.2253L75.6667 92.5103L79.1008 90.2281Z" fill="#B45896"/>
<path d="M73.5272 98.4725C73.7382 98.8183 73.8169 99.2321 73.7461 99.6228C73.6752 100.014 73.4606 100.349 73.1495 100.556C72.8384 100.763 72.4562 100.824 72.0869 100.726C71.7177 100.628 71.3917 100.378 71.1806 100.032C70.9695 99.6868 70.8907 99.273 70.9614 98.8823C71.0321 98.4915 71.2465 98.1557 71.5576 97.9487C71.8686 97.7417 72.2508 97.6805 72.6201 97.7786C72.9893 97.8766 73.3154 98.1259 73.5266 98.4715L72.3538 99.2522L73.5272 98.4725Z" fill="#B45896"/>
<path d="M105.093 84.0183C101.326 81.2656 98.6133 84.1488 95.9389 89.0676C94.5929 85.3856 89.9448 83.2975 86.6989 85.6336C83.453 87.9697 85.1667 93.7517 90.9785 96.0234C88.0653 95.4 80.456 97.7549 81.5156 101.78C82.5752 105.805 88.2923 105.071 92.4881 101.876C91.2092 106.4 94.2882 111.717 97.7645 110.967C101.241 110.217 103.35 106.632 99.1992 101.191C103.863 103.221 109.544 103.923 110.27 99.8572C110.996 95.7914 107.591 94.4236 100.959 94.4306C106.343 90.969 108.86 86.7708 105.093 84.0182V84.0183Z" fill="#C57FAE"/>
<path d="M97.2883 95.3931C96.8993 95.4983 96.4845 95.4605 96.1351 95.288C95.7857 95.1155 95.5302 94.8224 95.425 94.4732C95.3197 94.124 95.3732 93.7472 95.5738 93.4258C95.7744 93.1044 96.1055 92.8647 96.4944 92.7593C96.8834 92.654 97.2982 92.6917 97.6477 92.8641C97.9972 93.0365 98.2528 93.3295 98.3582 93.6786C98.4636 94.0278 98.4102 94.4046 98.2098 94.726C98.0093 95.0475 97.6783 95.2873 97.2894 95.3928L96.8916 94.0762L97.2883 95.3931Z" fill="#B45896"/>
<path d="M97.9754 100.794C97.3567 100.961 96.6934 100.89 96.1315 100.595C95.5695 100.3 95.1549 99.8062 94.9787 99.2218C94.8026 98.6374 94.8794 98.0105 95.1923 97.4788C95.5051 96.9471 96.0284 96.5543 96.647 96.3867C97.2657 96.2191 97.9289 96.2905 98.491 96.5852C99.0531 96.8798 99.468 97.3736 99.6443 97.9579C99.8207 98.5422 99.7441 99.1692 99.4315 99.701C99.1188 100.233 98.5957 100.626 97.9772 100.794L97.3116 98.5903L97.9754 100.794Z" fill="#B45896"/>
<path d="M94.4965 96.4991C94.2802 96.5576 94.049 96.5344 93.8535 96.4346C93.658 96.3348 93.5144 96.1665 93.4542 95.9669C93.394 95.7672 93.4222 95.5524 93.5326 95.3698C93.6429 95.1872 93.8264 95.0517 94.0426 94.9932C94.2589 94.9346 94.4902 94.9577 94.6857 95.0574C94.8812 95.1572 95.0249 95.3254 95.0851 95.5251C95.1454 95.7247 95.1173 95.9395 95.007 96.1221C94.8968 96.3048 94.7134 96.4403 94.4971 96.4989L94.2697 95.7461L94.4965 96.4991Z" fill="#B45896"/>
<defs>
<linearGradient id="paint0_linear_188_1589" x1="153.699" y1="44.0287" x2="91.1242" y2="106.009" gradientUnits="userSpaceOnUse">
<stop stop-color="#7F6468"/>
<stop offset="1" stop-color="#70464B"/>
</linearGradient>
<linearGradient id="paint1_linear_188_1589" x1="-11.5433" y1="83.2244" x2="44.4248" y2="73.0848" gradientUnits="userSpaceOnUse">
<stop stop-color="#A79C96"/>
<stop offset="1" stop-color="#826460"/>
</linearGradient>
<linearGradient id="paint2_linear_188_1589" x1="58.563" y1="141.534" x2="138.9" y2="59.076" gradientUnits="userSpaceOnUse">
<stop stop-color="#64282E"/>
<stop offset="0.998784" stop-color="#D1521B"/>
</linearGradient>
<linearGradient id="paint3_linear_188_1589" x1="43.1674" y1="94.588" x2="125.787" y2="-8.7842" gradientUnits="userSpaceOnUse">
<stop stop-color="#FEFAD4"/>
<stop offset="1" stop-color="#A76A55"/>
</linearGradient>
<linearGradient id="paint4_linear_188_1589" x1="58.5849" y1="64.122" x2="97.0336" y2="128.301" gradientUnits="userSpaceOnUse">
<stop stop-color="#862067"/>
<stop offset="1" stop-color="#A7287E"/>
</linearGradient>
</defs>
</svg>
