<svg width="149" height="120" viewBox="0 0 149 120" fill="none" xmlns="http://www.w3.org/2000/svg">
<path d="M117.669 62.5252C118.728 60.0296 120.414 57.8071 122.527 56.1222C124.757 54.3429 127.514 53.1573 130.359 53.1027C132.535 53.061 134.669 53.6685 136.834 53.8973C138.842 54.1094 140.881 53.9937 142.856 53.573C144.682 53.1839 146.451 52.5357 148.124 51.7007C148.25 51.6378 148.375 51.574 148.5 51.5089C146.85 55.4755 145.828 59.706 145.483 63.9926C145.126 68.4248 145.488 72.9021 144.955 77.3164C144.35 82.3304 142.538 87.2641 139.329 91.1459C136.768 94.245 133.428 96.5711 130.394 99.2019C129.181 100.254 127.994 101.371 126.566 102.101C125.853 102.466 125.082 102.73 124.286 102.813C123.49 102.897 122.667 102.796 121.938 102.464C121.105 102.084 120.42 101.413 119.951 100.623C119.481 99.8331 119.221 98.9288 119.116 98.0143C118.907 96.1853 119.305 94.3488 119.647 92.5401C120.083 90.2294 120.43 87.898 120.568 85.55C120.801 81.5885 120.438 77.6134 119.868 73.6868C119.323 69.9319 118.589 66.205 117.669 62.5251L117.669 62.5252Z" fill="url(#paint0_linear_188_1568)"/>
<path d="M67.6078 79.3211C67.6078 79.3211 63.9889 75.6916 62.1247 74.3518C60.2604 73.0121 56.4223 71.2825 56.4223 71.2825L52.1513 76.5776L50.0033 67.9347C50.0033 67.9347 39.1345 65.155 28.5265 66.6154C18.3321 68.0188 0.5 73.0419 0.5 73.0419C7.09443 79.7839 9.86005 88.74 16.3539 94.7026C16.3539 94.7026 18.7566 91.955 20.039 90.7784C21.3213 89.6018 24.0479 87.6428 24.0479 87.6428C24.0479 87.6428 24.4501 91.6922 24.3495 93.6557C24.2488 95.6191 23.4442 99.4235 23.4442 99.4235C23.4442 99.4235 31.3724 103.936 39.2756 106.649C44.3884 108.404 54.7789 108.771 54.7789 108.771L73.8071 98.5673L67.6078 79.3211Z" fill="url(#paint1_linear_188_1568)"/>
<path d="M72.7852 92.9001C72.3145 92.87 55.9832 88.0033 55.9832 88.0033C55.9832 88.0033 56.0955 85.9704 55.8632 84.3547C55.6966 83.1962 54.9886 81.0525 54.9886 81.0525C54.9886 81.0525 52.613 83.5154 52.4134 86.2238C50.3197 85.5485 45.9482 84.3892 45.9482 84.3892C45.9482 84.3892 45.6708 82.8842 45.4321 82.1545C45.1618 81.328 44.4034 79.7532 44.4034 79.7532C43.9616 80.3176 43.7425 80.9249 43.5034 81.5664C43.3057 82.0971 43.0818 82.65 43.0595 83.2301C43.0595 83.2301 32.466 80.7933 33.0328 80.7535C33.5995 80.7137 42.1081 85.6715 42.1081 85.6715C42.1081 85.6715 41.5521 86.4737 41.3852 86.9475C41.1218 87.6947 40.9687 89.352 40.9687 89.352C40.9687 89.352 42.5903 88.7378 43.3286 88.286C43.9051 87.9328 44.9244 87.0113 44.9244 87.0113L51.2329 90.2993C51.2329 90.2993 50.1382 91.4683 49.8048 92.2337C49.3844 93.1988 48.9714 95.4908 48.9714 95.4908C48.9714 95.4908 51.4589 94.4464 52.4612 93.8507C53.4634 93.255 54.9849 91.9164 54.9849 91.9164L73.8797 100.478L72.7852 92.9001Z" fill="#9A2575"/>
<path d="M68.8895 4.05352C69.4459 3.92485 73.6646 -0.540838 74.665 0.3607C81.5354 6.55239 93.7058 38.4862 93.7058 38.4862C93.7058 38.4862 131.054 30.2473 133.01 36.0145C134.965 41.7817 112.301 66.4215 112.301 66.4215C112.301 66.4215 135.448 90.4197 138.279 99.0337C138.709 100.341 132.82 102.865 132.479 103.241C129.896 106.091 84.0891 94.7393 84.0891 94.7393C84.0891 94.7393 47.0068 118.842 44.7043 116.599C42.4018 114.355 50.6963 76.3453 50.6963 76.3453C50.6963 76.3453 18.5241 60.5556 19.4432 56.7447C19.6026 56.0838 23.4948 53.8099 25.5168 52.9115C35.1525 48.6302 58.8307 43.9493 58.8307 43.9493C58.8307 43.9493 64.5117 5.06634 68.8895 4.05352Z" fill="url(#paint2_linear_188_1568)"/>
<path d="M119.836 80.74C119.836 80.74 123.587 75.8443 126.232 73.1182C128.827 70.4441 137.649 62.6841 137.649 62.6841C137.649 62.6841 130.101 71.2949 126.425 76.3563C123.693 80.1189 120.21 88.7619 120.21 88.7619" fill="#8F226E"/>
<path d="M74.7895 0.0212991C79.1672 -0.991523 99.6059 34.4539 99.6059 34.4539C99.6059 34.4539 136.954 26.2151 138.91 31.9823C140.865 37.7494 118.201 62.3892 118.201 62.3892C118.201 62.3892 140.962 96.3584 138.379 99.2086C135.796 102.059 89.9891 90.7072 89.9891 90.7072C89.9891 90.7072 52.6577 115.612 50.4488 113.827C48.2399 112.042 57.5921 74.6289 57.5921 74.6289C57.5921 74.6289 24.5479 57.7228 25.4669 53.912C26.386 50.1011 64.7307 39.917 64.7307 39.917C64.7307 39.917 70.4118 1.03417 74.7895 0.0212991Z" fill="url(#paint3_linear_188_1568)"/>
<path d="M74.0651 53.0795C74.0651 53.0795 83.5939 43.386 87.2347 48.6392C90.1066 52.7831 87.1184 55.7992 79.7634 65.6748C80.2519 68.7602 80.1158 72.0279 80.7861 72.5548C81.4563 73.0816 100.905 68.8898 101.093 68.4752C101.281 68.0605 99.8986 62.6815 99.1645 62.7362C98.4304 62.7913 87.903 65.3111 85.1491 66.0858C87.4261 63.2631 98.955 48.1697 88.4187 42.6967C83.7438 40.2683 72.2963 48.0261 72.2963 48.0261" fill="url(#paint4_linear_188_1568)"/>
<path d="M46.7255 87.3665C43.9409 95.3214 50.2679 98.5583 60.0615 100.686C54.4452 104.91 53.2498 114.056 58.913 118.499C64.5761 122.942 73.6005 117.003 74.5142 105.741C74.9386 111.122 82.8688 123.137 89.2193 119.234C95.5698 115.331 91.3846 105.774 83.764 100.121C92.1659 100.026 99.6948 91.9524 96.6303 86.2965C93.5658 80.6407 86.3456 78.812 79.1539 88.8111C80.2421 79.6682 78.5341 69.4387 71.1991 70.2591C63.8642 71.0794 63.2662 77.6976 66.6747 89.2161C57.989 81.6347 49.5102 79.4116 46.7255 87.3665Z" fill="url(#paint5_linear_188_1568)"/>
<path d="M70.2033 94.1883C70.5827 94.8102 70.7304 95.5503 70.614 96.2458C70.4975 96.9413 70.1263 97.5352 69.5822 97.897C69.038 98.2587 68.3654 98.3587 67.7123 98.1748C67.0592 97.991 66.479 97.5384 66.0994 96.9167C65.7198 96.2949 65.5718 95.5548 65.688 94.8593C65.8043 94.1637 66.1752 93.5696 66.7192 93.2076C67.2632 92.8456 67.9357 92.7454 68.5889 92.929C69.2421 93.1125 69.8224 93.5649 70.2022 94.1865L68.1509 95.5517L70.2033 94.1883Z" fill="#CC8E91"/>
<path d="M79.1007 90.2283C79.7042 91.2175 79.9213 92.4066 79.7042 93.534C79.487 94.6614 78.8535 95.6349 77.943 96.2402C77.0324 96.8456 75.9194 97.0332 74.8486 96.762C73.7779 96.4907 72.8371 95.7827 72.2333 94.7938C71.6295 93.8048 71.412 92.6158 71.6287 91.4882C71.8454 90.3607 72.4785 89.387 73.3889 88.7813C74.2992 88.1756 75.4122 87.9874 76.483 88.2583C77.5539 88.5291 78.4948 89.2367 79.099 90.2254L75.6666 92.5104L79.1007 90.2283Z" fill="#CC8E91"/>
<path d="M73.5271 98.4724C73.7381 98.8182 73.8168 99.232 73.746 99.6227C73.6751 100.013 73.4606 100.349 73.1494 100.556C72.8383 100.763 72.4561 100.824 72.0868 100.726C71.7176 100.627 71.3916 100.378 71.1805 100.032C70.9695 99.6867 70.8906 99.2729 70.9613 98.8822C71.032 98.4914 71.2464 98.1556 71.5575 97.9486C71.8685 97.7416 72.2507 97.6804 72.62 97.7785C72.9892 97.8765 73.3153 98.1258 73.5265 98.4714L72.3537 99.2521L73.5271 98.4724Z" fill="#CC8E91"/>
<path d="M105.093 84.0181C101.326 81.2655 98.6133 84.1487 95.9388 89.0675C94.5928 85.3855 89.9447 83.2974 86.6988 85.6335C83.4529 87.9695 85.1666 93.7516 90.9784 96.0233C88.0652 95.3998 80.4559 97.7547 81.5155 101.78C82.5752 105.805 88.2922 105.071 92.488 101.876C91.2091 106.399 94.2881 111.717 97.7644 110.967C101.241 110.217 103.35 106.632 99.1991 101.191C103.863 103.221 109.544 103.923 110.27 99.857C110.996 95.7913 107.591 94.4235 100.959 94.4305C106.343 90.9689 108.86 86.7707 105.093 84.0181V84.0181Z" fill="#C57F83"/>
<path d="M97.2883 95.3933C96.8994 95.4985 96.4846 95.4607 96.1351 95.2881C95.7857 95.1156 95.5303 94.8225 95.425 94.4733C95.3198 94.1241 95.3733 93.7473 95.5739 93.4259C95.7744 93.1045 96.1056 92.8648 96.4945 92.7595C96.8834 92.6541 97.2982 92.6918 97.6477 92.8642C97.9972 93.0366 98.2528 93.3296 98.3582 93.6788C98.4636 94.0279 98.4102 94.4047 98.2098 94.7262C98.0094 95.0476 97.6783 95.2875 97.2894 95.393L96.8917 94.0763L97.2883 95.3933Z" fill="#D0A8AA"/>
<path d="M97.9753 100.794C97.3567 100.962 96.6934 100.89 96.1314 100.595C95.5695 100.3 95.1548 99.8063 94.9787 99.2219C94.8026 98.6375 94.8794 98.0106 95.1922 97.4789C95.5051 96.9472 96.0284 96.5544 96.647 96.3868C97.2656 96.2193 97.9289 96.2906 98.491 96.5853C99.0531 96.8799 99.4679 97.3737 99.6443 97.958C99.8206 98.5423 99.7441 99.1693 99.4314 99.7011C99.1188 100.233 98.5957 100.626 97.9771 100.794L97.3117 98.5904L97.9753 100.794Z" fill="#D0A8AA"/>
<path d="M94.4965 96.4991C94.2802 96.5576 94.0489 96.5344 93.8535 96.4346C93.658 96.3348 93.5144 96.1665 93.4542 95.9669C93.394 95.7672 93.4222 95.5524 93.5325 95.3698C93.6429 95.1872 93.8264 95.0517 94.0426 94.9932C94.2588 94.9346 94.4902 94.9577 94.6857 95.0574C94.8812 95.1572 95.0249 95.3254 95.0851 95.5251C95.1454 95.7247 95.1173 95.9395 95.007 96.1221C94.8968 96.3048 94.7133 96.4403 94.4971 96.4989L94.2697 95.7461L94.4965 96.4991Z" fill="#D0A8AA"/>
<defs>
<linearGradient id="paint0_linear_188_1568" x1="153.699" y1="44.0287" x2="91.1242" y2="106.009" gradientUnits="userSpaceOnUse">
<stop stop-color="#7F6468"/>
<stop offset="1" stop-color="#A1277A"/>
</linearGradient>
<linearGradient id="paint1_linear_188_1568" x1="-11.5433" y1="83.2245" x2="44.4248" y2="73.0848" gradientUnits="userSpaceOnUse">
<stop stop-color="#A79C96"/>
<stop offset="1" stop-color="#C57FAE"/>
</linearGradient>
<linearGradient id="paint2_linear_188_1568" x1="58.5631" y1="141.534" x2="138.9" y2="59.076" gradientUnits="userSpaceOnUse">
<stop stop-color="#6D5254"/>
<stop offset="1" stop-color="#5A434D"/>
</linearGradient>
<linearGradient id="paint3_linear_188_1568" x1="43.1674" y1="94.588" x2="125.787" y2="-8.78419" gradientUnits="userSpaceOnUse">
<stop stop-color="#ECC8D9"/>
<stop offset="1" stop-color="#998283"/>
</linearGradient>
<linearGradient id="paint4_linear_188_1568" x1="72.2963" y1="57.4132" x2="101.11" y2="57.4132" gradientUnits="userSpaceOnUse">
<stop stop-color="#574042"/>
<stop offset="1" stop-color="#403434"/>
</linearGradient>
<linearGradient id="paint5_linear_188_1568" x1="58.5849" y1="64.122" x2="97.0336" y2="128.301" gradientUnits="userSpaceOnUse">
<stop offset="0.262068" stop-color="#C05F22"/>
<stop offset="1" stop-color="#A72828"/>
</linearGradient>
</defs>
</svg>
