<svg width="149" height="120" viewBox="0 0 149 120" fill="none" xmlns="http://www.w3.org/2000/svg">
<path d="M117.682 62.5252C118.741 60.0296 120.426 57.8071 122.538 56.1222C124.767 54.3429 127.523 53.1573 130.366 53.1027C132.542 53.061 134.675 53.6685 136.839 53.8973C138.846 54.1094 140.884 53.9937 142.858 53.573C144.684 53.1839 146.452 52.5358 148.124 51.7007C148.25 51.6379 148.375 51.5739 148.5 51.5089C146.851 55.4755 145.829 59.706 145.484 63.9926C145.127 68.4248 145.489 72.9021 144.957 77.3164C144.352 82.3304 142.54 87.2641 139.333 91.1459C136.773 94.245 133.435 96.5711 130.402 99.2019C129.189 100.254 128.002 101.371 126.576 102.101C125.862 102.466 125.092 102.73 124.296 102.814C123.5 102.897 122.678 102.796 121.949 102.464C121.117 102.084 120.432 101.413 119.963 100.623C119.494 99.8331 119.233 98.9288 119.128 98.0143C118.919 96.1853 119.318 94.3488 119.659 92.5401C120.095 90.2294 120.442 87.898 120.58 85.55C120.812 81.5885 120.45 77.6134 119.88 73.6868C119.335 69.9319 118.601 66.205 117.682 62.5252H117.682Z" fill="url(#paint0_linear_188_1547)"/>
<path d="M67.5793 79.3211C67.5793 79.3211 63.962 75.6916 62.0986 74.3518C60.2351 73.0121 56.3986 71.2825 56.3986 71.2825L52.1294 76.5776L49.9823 67.9347C49.9823 67.9347 39.1182 65.155 28.5147 66.6154C18.3245 68.0188 0.5 73.0419 0.5 73.0419C7.09163 79.7839 9.8561 88.7401 16.3472 94.7026C16.3472 94.7026 18.7489 91.955 20.0307 90.7784C21.3125 89.6018 24.0379 87.6428 24.0379 87.6428C24.0379 87.6428 24.44 91.6923 24.3394 93.6557C24.2388 95.6191 23.4345 99.4235 23.4345 99.4235C23.4345 99.4235 31.3593 103.936 39.2592 106.649C44.3698 108.404 54.7559 108.771 54.7559 108.771L73.7761 98.5673L67.5793 79.3211Z" fill="url(#paint1_linear_188_1547)"/>
<path d="M72.8173 92.9002C72.3468 92.87 56.0224 88.0033 56.0224 88.0033C56.0224 88.0033 56.1346 85.9704 55.9024 84.3547C55.7359 83.1963 55.0282 81.0525 55.0282 81.0525C55.0282 81.0525 52.6536 83.5154 52.4541 86.2239C50.3613 85.5485 45.9917 84.3892 45.9917 84.3892C45.9917 84.3892 45.7144 82.8842 45.4758 82.1545C45.2056 81.328 44.4475 79.7532 44.4475 79.7532C44.0059 80.3176 43.7868 80.9249 43.5479 81.5664C43.3502 82.0971 43.1265 82.65 43.1042 83.2302C43.1042 83.2302 32.5152 80.7933 33.0817 80.7535C33.6482 80.7137 42.1532 85.6715 42.1532 85.6715C42.1532 85.6715 41.5975 86.4737 41.4306 86.9475C41.1673 87.6947 41.0143 89.352 41.0143 89.352C41.0143 89.352 42.6351 88.7378 43.3731 88.286C43.9494 87.9328 44.9683 87.0113 44.9683 87.0113L51.2741 90.2993C51.2741 90.2993 50.1799 91.4684 49.8466 92.2338C49.4264 93.1988 49.0136 95.4908 49.0136 95.4908C49.0136 95.4908 51.5 94.4464 52.5019 93.8508C53.5037 93.2551 55.0245 91.9164 55.0245 91.9164L73.9114 100.478L72.8173 92.9002Z" fill="#664D51" fill-opacity="0.772491"/>
<path d="M68.9231 4.05352C69.4793 3.92485 73.6963 -0.540839 74.6962 0.3607C81.5637 6.55239 93.729 38.4862 93.729 38.4862C93.729 38.4862 131.061 30.2473 133.016 36.0145C134.971 41.7817 112.316 66.4215 112.316 66.4215C112.316 66.4215 135.453 90.4198 138.283 99.0338C138.713 100.341 132.826 102.865 132.486 103.241C129.904 106.091 84.1163 94.7394 84.1163 94.7394C84.1163 94.7394 47.0498 118.842 44.7483 116.599C42.4467 114.355 50.7377 76.3454 50.7377 76.3454C50.7377 76.3454 18.5791 60.5556 19.4978 56.7447C19.6571 56.0838 23.5478 53.8099 25.5689 52.9115C35.2005 48.6302 58.8686 43.9493 58.8686 43.9493C58.8686 43.9493 64.5473 5.06634 68.9231 4.05352Z" fill="url(#paint2_linear_188_1547)"/>
<path d="M119.848 80.74C119.848 80.74 123.597 75.8443 126.242 73.1182C128.835 70.4441 137.653 62.6841 137.653 62.6841C137.653 62.6841 130.109 71.2949 126.434 76.3563C123.703 80.1189 120.222 88.7619 120.222 88.7619" fill="#654152"/>
<path d="M74.758 0.0212991C79.1339 -0.991523 99.5639 34.454 99.5639 34.454C99.5639 34.454 136.896 26.2151 138.851 31.9823C140.806 37.7495 118.151 62.3893 118.151 62.3893C118.151 62.3893 140.903 96.3584 138.321 99.2086C135.739 102.059 89.9512 90.7072 89.9512 90.7072C89.9512 90.7072 52.6356 115.612 50.4276 113.827C48.2196 112.042 57.5679 74.6289 57.5679 74.6289C57.5679 74.6289 24.5377 57.7228 25.4563 53.912C26.375 50.1012 64.7035 39.917 64.7035 39.917C64.7035 39.917 70.3821 1.03417 74.758 0.0212991Z" fill="url(#paint3_linear_188_1547)"/>
<path d="M46.7686 87.3665C43.9851 95.3214 50.3095 98.5584 60.0989 100.686C54.485 104.91 53.2901 114.056 58.9509 118.499C64.6117 122.942 73.6322 117.003 74.5455 105.741C74.9698 111.122 82.8966 123.137 89.2444 119.234C95.5922 115.331 91.4088 105.774 83.7914 100.121C92.1897 100.026 99.7155 91.9525 96.6523 86.2966C93.589 80.6407 86.372 78.812 79.1833 88.8111C80.271 79.6682 78.5637 69.4387 71.2319 70.2591C63.9001 71.0794 63.3023 77.6975 66.7094 89.2161C58.0274 81.6347 49.5521 79.4116 46.7686 87.3665Z" fill="url(#paint4_linear_188_1547)"/>
<path d="M70.2365 94.1883C70.6158 94.8102 70.7634 95.5503 70.647 96.2458C70.5306 96.9413 70.1596 97.5352 69.6157 97.897C69.0717 98.2587 68.3994 98.3587 67.7466 98.1748C67.0937 97.991 66.5138 97.5384 66.1343 96.9167C65.7549 96.2949 65.607 95.5548 65.7232 94.8593C65.8393 94.1637 66.2101 93.5696 66.7539 93.2076C67.2976 92.8456 67.9699 92.7454 68.6228 92.929C69.2757 93.1125 69.8558 93.5649 70.2354 94.1865L68.185 95.5517L70.2365 94.1883Z" fill="#B45896"/>
<path d="M79.1302 90.2283C79.7334 91.2175 79.9504 92.4066 79.7333 93.534C79.5163 94.6614 78.8831 95.6349 77.9729 96.2402C77.0627 96.8455 75.9501 97.0332 74.8798 96.762C73.8096 96.4907 72.8692 95.7827 72.2656 94.7938C71.662 93.8048 71.4447 92.6158 71.6613 91.4882C71.8779 90.3607 72.5108 89.387 73.4207 88.7813C74.3307 88.1756 75.4432 87.9874 76.5136 88.2583C77.5839 88.5291 78.5245 89.2367 79.1284 90.2254L75.6975 92.5104L79.1302 90.2283Z" fill="#B45896"/>
<path d="M73.5589 98.4724C73.7698 98.8182 73.8485 99.232 73.7777 99.6227C73.7069 100.013 73.4924 100.349 73.1814 100.556C72.8704 100.763 72.4883 100.824 72.1193 100.726C71.7502 100.627 71.4243 100.378 71.2133 100.032C71.0023 99.6867 70.9235 99.2729 70.9942 98.8821C71.0648 98.4914 71.2792 98.1556 71.5901 97.9486C71.9011 97.7416 72.2831 97.6804 72.6522 97.7784C73.0213 97.8765 73.3472 98.1257 73.5583 98.4714L72.386 99.2521L73.5589 98.4724Z" fill="#B45896"/>
<path d="M105.112 84.0183C101.346 81.2656 98.6345 84.1488 95.9611 89.0676C94.6157 85.3856 89.9696 83.2975 86.7251 85.6336C83.4806 87.9697 85.1935 93.7517 91.0028 96.0234C88.0909 95.4 80.4848 97.7549 81.544 101.78C82.6032 105.805 88.3178 105.071 92.5118 101.876C91.2335 106.4 94.3111 111.717 97.786 110.967C101.261 110.217 103.369 106.632 99.22 101.191C103.882 103.221 109.56 103.923 110.286 99.8572C111.012 95.7914 107.608 94.4236 100.979 94.4307C106.361 90.969 108.877 86.7708 105.112 84.0182V84.0183Z" fill="#C57FAE"/>
<path d="M97.31 95.3933C96.9212 95.4985 96.5065 95.4607 96.1572 95.2882C95.808 95.1156 95.5527 94.8225 95.4475 94.4733C95.3422 94.1241 95.3957 93.7473 95.5962 93.4259C95.7967 93.1045 96.1277 92.8648 96.5165 92.7595C96.9052 92.6541 97.3199 92.6918 97.6692 92.8642C98.0186 93.0366 98.274 93.3296 98.3794 93.6788C98.4848 94.0279 98.4314 94.4047 98.2311 94.7262C98.0307 95.0476 97.6998 95.2875 97.3111 95.393L96.9135 94.0763L97.31 95.3933Z" fill="#B45896"/>
<path d="M97.9967 100.794C97.3783 100.962 96.7153 100.89 96.1536 100.595C95.5919 100.3 95.1774 99.8063 95.0014 99.2219C94.8253 98.6375 94.9021 98.0106 95.2148 97.4789C95.5275 96.9473 96.0506 96.5544 96.6689 96.3868C97.2873 96.2193 97.9503 96.2906 98.5122 96.5853C99.074 96.8799 99.4887 97.3737 99.665 97.958C99.8412 98.5423 99.7647 99.1693 99.4522 99.7011C99.1397 100.233 98.6168 100.626 97.9985 100.794L97.3334 98.5904L97.9967 100.794Z" fill="#B45896"/>
<path d="M94.5194 96.4993C94.3032 96.5578 94.072 96.5346 93.8766 96.4347C93.6812 96.3349 93.5377 96.1667 93.4775 95.967C93.4173 95.7673 93.4455 95.5525 93.5558 95.3699C93.6661 95.1873 93.8495 95.0519 94.0656 94.9933C94.2818 94.9347 94.513 94.9578 94.7084 95.0576C94.9039 95.1573 95.0475 95.3255 95.1077 95.5252C95.168 95.7248 95.1399 95.9396 95.0297 96.1223C94.9194 96.3049 94.7361 96.4404 94.52 96.4991L94.2927 95.7462L94.5194 96.4993Z" fill="#B45896"/>
<path d="M70.4719 50.3293C70.4719 50.3293 90.2546 37.8197 94.9216 44.2939C99.5886 50.7682 85.7502 61.3957 85.7502 61.3957C85.7502 61.3957 97.7214 57.4881 99.9505 61.6972C103.186 67.8071 88.8372 79.1974 88.8372 79.1974L84.7995 75.6979C84.7995 75.6979 95.827 69.9204 94.4673 65.3975C93.3826 61.7892 85.4741 64.2262 81.4922 64.3894C80.0058 64.4503 79.442 61.9333 79.442 61.9333C79.442 61.9333 93.167 51.9297 90.9175 47.9557C88.6681 43.9817 71.8588 54.4373 71.8588 54.4373L70.4719 50.3293Z" fill="#5D252B"/>
<defs>
<linearGradient id="paint0_linear_188_1547" x1="153.697" y1="44.0287" x2="91.1222" y2="105.982" gradientUnits="userSpaceOnUse">
<stop stop-color="#7F6468"/>
<stop offset="1" stop-color="#70464B"/>
</linearGradient>
<linearGradient id="paint1_linear_188_1547" x1="-11.5382" y1="83.2245" x2="44.4077" y2="73.0931" gradientUnits="userSpaceOnUse">
<stop stop-color="#A79C96"/>
<stop offset="1" stop-color="#826460"/>
</linearGradient>
<linearGradient id="paint2_linear_188_1547" x1="58.6011" y1="141.534" x2="138.939" y2="59.1101" gradientUnits="userSpaceOnUse">
<stop stop-color="#64282E"/>
<stop offset="0.998784" stop-color="#4F2024"/>
</linearGradient>
<linearGradient id="paint3_linear_188_1547" x1="43.1494" y1="94.588" x2="125.777" y2="-8.75001" gradientUnits="userSpaceOnUse">
<stop stop-color="#C57358"/>
<stop offset="1" stop-color="#A76A55"/>
</linearGradient>
<linearGradient id="paint4_linear_188_1547" x1="58.623" y1="64.122" x2="97.0793" y2="128.286" gradientUnits="userSpaceOnUse">
<stop stop-color="#862067"/>
<stop offset="1" stop-color="#A7287E"/>
</linearGradient>
</defs>
</svg>
