<svg width="183" height="183" viewBox="0 0 183 183" fill="none" xmlns="http://www.w3.org/2000/svg">
<path d="M130 157H54C51.3268 157 50.1113 153.89 52 152C56.0377 147.961 60.6422 142.207 63 137C67.4052 127.271 72 114 72 114H112C112 114 116.686 127.75 121 137C123.529 142.423 128.075 148.076 132 152C133.902 153.902 132.691 157 130 157Z" fill="#9F928D"/>
<path d="M92 132C117.405 132 138 111.405 138 86C138 60.5949 117.405 40 92 40C66.5949 40 46 60.5949 46 86C46 111.405 66.5949 132 92 132Z" fill="#EA6B24"/>
<path d="M89 57C90.0542 54.8787 92.9459 54.8787 94 57L101 70C101.419 70.8421 102.064 71.865 103 72L119 74C121.357 74.3402 121.706 77.3491 120 79L109 90C108.323 90.6558 107.84 91.0742 108 92L111 108C111.403 110.331 109.108 112.101 107 111L93 103C92.1628 102.563 90.8372 102.563 90 103L76 111C73.8914 112.101 71.5974 110.331 72 108L75 92C75.1598 91.0742 74.6774 90.6558 74 90L63 79C61.2943 77.3491 61.6428 74.3402 64 74L80 72C80.936 71.865 81.5813 70.8421 82 70L89 57Z" fill="#EDE75A"/>
<path d="M49 159C49 151.971 54.8035 146 62 146H122C129.196 146 135 151.971 135 159C135 159.703 134.72 160 134 160H50C49.2805 160 49 159.703 49 159Z" fill="#79706C"/>
<path d="M93 75L92 95L95 96H92H91H89L91 95L90 77L87 79L90 74H93H95L93 75Z" fill="#282524"/>
</svg>
