<svg width="183" height="183" viewBox="0 0 183 183" fill="none" xmlns="http://www.w3.org/2000/svg">
<path d="M130 157H54C51.3268 157 50.1113 153.89 52 152C56.0377 147.961 60.6422 142.207 63 137C67.4052 127.271 72 114 72 114H112C112 114 116.686 127.75 121 137C123.529 142.423 128.075 148.076 132 152C133.902 153.902 132.691 157 130 157Z" fill="#9F928D"/>
<path d="M92 132C117.405 132 138 111.405 138 86C138 60.5949 117.405 40 92 40C66.5949 40 46 60.5949 46 86C46 111.405 66.5949 132 92 132Z" fill="#EA6B24"/>
<path d="M89 57C90.0542 54.8787 92.9459 54.8787 94 57L101 70C101.419 70.8421 102.064 71.865 103 72L119 74C121.357 74.3402 121.706 77.3491 120 79L109 90C108.323 90.6558 107.84 91.0742 108 92L111 108C111.403 110.331 109.108 112.101 107 111L93 103C92.1628 102.563 90.8372 102.563 90 103L76 111C73.8914 112.101 71.5974 110.331 72 108L75 92C75.1598 91.0742 74.6774 90.6558 74 90L63 79C61.2943 77.3491 61.6428 74.3402 64 74L80 72C80.936 71.865 81.5813 70.8421 82 70L89 57Z" fill="#EDE75A"/>
<path d="M49 159C49 151.971 54.8035 146 62 146H122C129.196 146 135 151.971 135 159C135 159.703 134.72 160 134 160H50C49.2805 160 49 159.703 49 159Z" fill="#79706C"/>
<path d="M91 73C91.8863 73 92.2467 72.7058 93 73C93.7755 73.2943 94.4461 74.4568 95 75C95.5539 75.5432 96.712 76.2079 97 77C97.3102 77.7922 97.0222 78.0268 97 79C96.9557 79.9959 96.4653 81.0494 96 82C95.5347 82.928 94.709 84.1173 94 85C93.291 85.8828 92.8419 87.1626 92 88C91.1802 88.8148 90.7533 89.2305 90 90C89.2467 90.7696 88.5982 91.2758 88 92C87.4239 92.7017 87.1994 93.3663 87 94H95L96 91V95H85C85 94.2531 85.5347 93.8601 86 93C86.4653 92.14 86.291 90.928 87 90C87.709 89.0721 89.2024 87.9507 90 87C90.8198 86.0268 91.291 84.9507 92 84C92.709 83.0268 93.5347 81.928 94 81C94.4653 80.0494 94 79.8601 94 79C94 78.4568 94.1773 77.5432 94 77C93.8227 76.4342 93.3102 76.4301 93 76C92.6898 75.5474 92.4431 74.2716 92 74C91.5569 73.7284 91.5539 74 91 74C90.4682 74 89.3988 73.8416 89 74C88.6012 74.1358 88.3767 74.7511 88 75V79L86 76C86.0222 75.9774 86 76 86 76C86 75.9774 85.9778 75.0227 86 75C86.2437 74.7058 86.7341 75.2943 87 75C87.2659 74.7058 87.6233 74.2264 88 74C88.3767 73.7511 88.4904 73.1358 89 73C89.5096 72.8416 90.291 73 91 73Z" fill="#282524"/>
</svg>
