<svg width="284" height="328" viewBox="0 0 284 328" fill="none" xmlns="http://www.w3.org/2000/svg">
<path d="M165.816 160.161C166.083 162.99 168.789 172.108 168.789 172.108L148.067 177.469L150.275 165.697C150.275 165.697 165.322 154.918 165.816 160.161Z" fill="#88656B"/>
<path d="M51.5153 221.353C51.5171 221.357 51.5188 221.362 51.5198 221.367C51.5234 221.378 51.527 221.388 51.5308 221.399C51.5365 221.396 51.543 221.393 51.5506 221.391C51.5461 221.381 51.5409 221.371 51.5363 221.36C51.5291 221.358 51.5225 221.355 51.5154 221.353L51.5153 221.353Z" fill="#874943"/>
<path d="M51.5034 221.308V221.308V221.309C51.5034 221.31 51.5039 221.311 51.5042 221.311L51.505 221.31V221.309C51.505 221.309 51.505 221.309 51.505 221.308C51.5048 221.308 51.5051 221.308 51.505 221.308C51.5044 221.307 51.5036 221.308 51.5034 221.308Z" fill="#874943"/>
<path d="M54.2999 223.07C54.2928 223.071 54.2863 223.074 54.2807 223.077C54.2871 223.075 54.2935 223.073 54.2999 223.07Z" fill="#874943"/>
<path d="M53.847 223.028C53.8469 223.029 53.846 223.031 53.846 223.031C53.8467 223.031 53.8487 223.031 53.8494 223.031C53.8501 223.031 53.8511 223.03 53.8514 223.03L53.8504 223.029C53.8501 223.029 53.8477 223.028 53.847 223.028Z" fill="#874943"/>
<path d="M43.6625 132.613C41.2248 132.868 37.8553 144.146 37.8553 144.146C37.8553 144.146 25.9611 144.928 25.6814 147.064C25.4018 149.199 34.4329 155.269 34.4329 155.269C34.4329 155.269 29.9688 167.111 31.3521 168.006C32.7353 168.9 42.3833 164.28 42.3833 164.28L45.3623 189.009L49.2074 220.924C49.2074 220.924 49.5324 227.706 53.1652 227.372C56.798 227.038 56.0195 220.54 56.0195 220.54L52.3294 187.929L49.6085 163.877C49.6085 163.877 57.8792 166.454 59.4354 165.18C60.9916 163.907 55.0721 154.028 55.0721 154.028C55.0721 154.028 63.5034 147.212 62.9574 145.223C62.4114 143.234 49.9391 143.117 49.9391 143.117C49.9391 143.117 46.1002 132.358 43.6625 132.613ZM53.5924 221.119C53.6327 221.115 53.6628 221.127 53.7051 221.158C53.7521 221.21 53.7633 221.277 53.7734 221.343C53.7836 221.43 53.7853 221.517 53.7875 221.604C53.7914 221.726 53.7634 221.845 53.7344 221.962C53.7028 222.092 53.67 222.222 53.6325 222.35C53.6247 222.377 53.6174 222.405 53.6097 222.432C53.6525 222.456 53.695 222.481 53.7365 222.507C53.8612 222.59 53.9846 222.676 54.1062 222.763C54.2097 222.835 54.316 222.906 54.4 223.001C54.4176 223.025 54.4454 223.059 54.4563 223.086C54.4923 223.176 54.4691 223.256 54.375 223.294C54.3177 223.311 54.2595 223.326 54.2016 223.341C54.1098 223.362 54.0169 223.379 53.9241 223.395C53.8252 223.413 53.7261 223.433 53.6271 223.45C53.5408 223.464 53.4544 223.478 53.368 223.49C53.3581 223.558 53.3456 223.624 53.3376 223.691C53.3273 223.805 53.3108 223.918 53.2899 224.03C53.277 224.104 53.2608 224.177 53.2379 224.249C53.2203 224.297 53.2022 224.346 53.1751 224.39C53.0931 224.473 53.0244 224.465 52.9279 224.407C52.9134 224.395 52.8999 224.366 52.8791 224.343C52.8741 224.343 52.8689 224.344 52.864 224.344C52.852 224.342 52.8364 224.314 52.8282 224.306C52.8114 224.284 52.7945 224.262 52.7816 224.237C52.7651 224.211 52.7495 224.184 52.735 224.157C52.7183 224.125 52.7026 224.094 52.684 224.063C52.6622 224.023 52.6377 223.983 52.6146 223.943C52.5863 223.894 52.5556 223.847 52.529 223.797C52.4873 223.724 52.4491 223.65 52.4119 223.575C52.4051 223.562 52.398 223.549 52.3913 223.536C52.255 223.539 52.1189 223.543 51.9826 223.548C51.8795 223.553 51.765 223.559 51.6618 223.566C51.5553 223.573 51.4497 223.589 51.3431 223.595C51.3269 223.595 51.3105 223.596 51.2943 223.596C51.285 223.596 51.2766 223.595 51.2682 223.595C51.2324 223.616 51.2161 223.611 51.1663 223.574C51.1364 223.52 51.1244 223.508 51.1349 223.453C51.142 223.412 51.1497 223.371 51.1663 223.333C51.1918 223.283 51.2237 223.235 51.2574 223.189C51.3111 223.118 51.3681 223.048 51.4232 222.978C51.5109 222.866 51.6013 222.757 51.704 222.657C51.7532 222.608 51.8036 222.559 51.8547 222.511C51.7898 222.401 51.7228 222.292 51.6617 222.179C51.5751 222.019 51.4979 221.855 51.4254 221.688C51.3876 221.604 51.3535 221.519 51.3235 221.432C51.2987 221.36 51.291 221.318 51.3127 221.243C51.3221 221.228 51.3282 221.21 51.3409 221.197C51.4187 221.119 51.5269 221.146 51.6184 221.176C51.722 221.216 51.8157 221.277 51.9078 221.338C52.0033 221.4 52.0986 221.462 52.1897 221.53C52.2996 221.611 52.3984 221.705 52.4954 221.801C52.5689 221.876 52.6413 221.951 52.7133 222.028C52.7267 222.029 52.7402 222.031 52.7534 222.033C52.7955 221.971 52.8376 221.909 52.8792 221.846C52.9345 221.759 52.9926 221.674 53.0515 221.589C53.097 221.525 53.1465 221.463 53.1989 221.403C53.2394 221.357 53.2837 221.315 53.329 221.273C53.3693 221.235 53.4157 221.204 53.4624 221.173C53.4897 221.156 53.5173 221.138 53.548 221.127C53.5647 221.123 53.5791 221.12 53.5925 221.119L53.5924 221.119Z" fill="#874943"/>
<path style="mix-blend-mode:lighten" d="M74.9947 153.833C74.9947 161.779 71.827 169.399 66.1885 175.018C60.5499 180.637 52.9022 183.794 44.9273 183.796C36.9524 183.798 29.3035 180.643 23.6628 175.026C18.0221 169.409 14.8515 161.79 14.8485 153.844C14.8455 145.898 18.0102 138.277 23.6466 132.656C29.283 127.034 36.9295 123.874 44.9044 123.87C52.8793 123.865 60.5294 127.017 66.1723 132.631C71.8152 138.246 74.9886 145.864 74.9947 153.81L44.9216 153.833H74.9947Z" fill="url(#paint0_radial_102_257)"/>
<path d="M66.5252 203.837C66.5252 203.837 55.7814 198.051 54.1366 199.215C53.119 199.935 55.9211 203.566 54.7537 203.677C53.08 203.841 50.6196 203.766 50.6082 205.082C50.5759 208.823 59.7301 216.819 59.7301 216.819L65.0707 211.703L66.5252 203.837Z" fill="#A39892" stroke="#A39892" stroke-width="2.04123" stroke-linecap="round" stroke-linejoin="round"/>
<path d="M226.427 212.305C226.427 212.305 234.6 211.613 236.543 210.884C238.498 210.15 233.567 216.398 233.567 216.398C233.567 216.398 236.668 218.394 238.392 219.641C238.372 219.668 238.352 219.695 238.331 219.722C236.439 222.112 227.246 224.676 227.246 224.676L226.427 212.305Z" fill="#A39892" stroke="#A39892" stroke-width="2.04123" stroke-linecap="round" stroke-linejoin="round"/>
<path d="M195.358 244.757C195.358 244.757 219.522 221.971 226.885 237.494C232.625 257.367 212.435 253.355 201.164 247.038C206.046 245.137 226.968 256.073 221.822 239.047C217.79 233.113 195.358 244.757 195.358 244.757Z" fill="#862F39"/>
<path d="M222.177 277.674C222.177 277.674 227.402 288.763 239.96 289.009C252.518 289.255 254.43 271.76 254.43 271.76C254.43 271.76 250.192 270.567 249.957 265.346C249.869 259.272 256.939 255.609 256.939 255.609C256.939 255.609 258.888 259.12 258.658 263.101C259.582 259.997 260.558 259.376 260.558 259.376C260.558 259.376 262.914 260.834 263.414 265.174C263.914 269.514 260.73 271.8 260.73 271.8C260.73 271.8 261.106 277.336 259.543 283.632C257.86 290.414 254.516 297.566 240.084 299.258C222.748 301.29 212.319 282.995 212.319 282.995L222.177 277.674Z" fill="#A39892"/>
<path d="M166.534 285.68C166.534 285.68 177.947 325.129 186.18 324.676C188.223 322.435 188.199 318.986 188.199 318.986C188.199 318.986 190.504 324.43 194.182 323.268C195.57 322.691 193.664 314.859 191.796 304.035C189.928 293.211 189.692 285.703 189.692 285.703L166.534 285.68Z" fill="url(#paint1_linear_102_257)"/>
<path d="M168.449 180.433C189.899 201.26 205.083 210.098 226.738 212.308C226.738 212.308 227.62 217.773 227.532 224.434C211.554 230.195 191.848 225.869 191.848 225.869C191.848 225.869 205.046 252.408 222.351 277.805C188.687 307.732 94.2047 283.63 94.2047 283.63L106.27 226.241C106.27 226.241 80.105 235.137 60.0986 217.061C64.8528 210.449 64.6856 210.374 66.3662 203.966C103.346 213.715 109.116 195.182 109.116 195.182C109.116 195.182 132.426 174.5 152.928 175.431C158.384 175.679 163.941 176.055 168.449 180.433Z" fill="#282524" stroke="#282524" stroke-width="2.40145" stroke-linecap="round" stroke-linejoin="round"/>
<path d="M121.168 285.339C121.168 285.339 129.489 325.542 137.732 325.717C139.943 323.638 140.186 320.197 140.186 320.197C140.186 320.197 142.063 325.802 145.82 324.923C147.248 324.454 145.955 316.499 144.932 305.565C143.91 294.631 144.256 287.127 144.256 287.127L121.168 285.339Z" fill="url(#paint2_linear_102_257)"/>
<path d="M109.885 194.791C109.942 195.643 107.055 214.103 103.656 233.234C98.6524 257.278 92.6735 284.15 92.6735 284.15C92.6735 284.15 101.05 291.668 131.597 293.292C164.397 295.034 183.354 293.108 183.354 293.108L176.442 253.713C176.442 253.713 185.874 252.403 190.312 251.294C194.847 250.159 204.779 246.828 204.779 246.828L200.295 239.363C200.295 239.363 193.45 242.077 186.736 243.355C180.589 244.526 173.811 244.646 173.952 243.821C174.091 243.006 173.948 229.043 175.006 216.259C176.187 201.979 178.87 188.106 178.87 188.106C178.87 188.106 176.096 186.257 174.285 184.146C172.473 182.034 169.952 177.59 169.952 177.59C169.952 177.59 167.087 196.722 166.197 206.347C164.796 221.494 164.371 232.227 164.371 232.227L115.344 231.484C117.819 215.588 118.011 206.149 119.786 194.119L108.639 195.172L109.885 194.791Z" fill="#874943"/>
<path d="M106.628 191.451C106.723 192.033 113.271 202.56 120.064 201.925C130.198 200.977 131.383 193.253 131.383 193.253C131.383 193.253 135.167 200.923 148.602 200.345C158.921 199.902 172.912 182.259 172.912 182.259C172.912 182.259 169.472 174.661 168.174 169.655C165.369 171.66 143.721 176.57 143.721 176.57L106.628 191.451Z" fill="#BF71A5"/>
<path d="M85.5565 62.8708C85.4126 62.8791 85.2549 62.9223 85.098 62.9643C85.0457 62.9892 84.9935 63.0136 84.9408 63.0374C84.8949 63.0821 84.849 63.1269 84.8042 63.1728C84.784 63.1925 84.7628 63.2114 84.7424 63.2309C84.696 63.2948 84.6495 63.3588 84.6036 63.4232C78.307 80.2326 90.6689 93.7659 90.6689 93.7659C90.6689 93.7659 75.7556 83.3607 56.7697 92.1872C64.2978 141.006 94.2441 111.352 94.2441 111.352C94.2441 111.352 61.7187 184.339 106.312 194.82C148.228 204.672 155.961 164.463 155.961 164.463L165.805 160.784C165.805 160.784 165.03 149.718 164.997 143.919C164.962 138.027 165.981 125.613 165.981 125.613L114.568 83.9731C114.568 83.9731 109.429 85.9097 101.188 79.7677C90.044 71.4614 89.4064 62.6513 85.5565 62.8708Z" fill="#A39792"/>
<path d="M92.7095 133.199C92.7095 133.199 97.4635 131.601 96.7362 132.731C93.5631 137.657 94.4802 144.77 94.3654 145.099C94.3654 145.099 102.927 142.145 108.581 146.407C109.258 143.048 109.673 138.745 108.418 134.192C108.054 132.871 112.228 134.773 112.228 134.773C112.283 134.783 111.14 128.93 103.251 128.04C95.395 127.154 92.7095 133.199 92.7095 133.199Z" fill="#282524" stroke="#282524" stroke-width="7.9423" stroke-linecap="round" stroke-linejoin="round"/>
<path d="M121.417 90.8396C121.417 90.8396 104.267 126.253 120.164 151.108C136.062 175.962 165.97 161.599 165.97 161.599C165.97 161.599 165.241 149.908 165.245 144.084C165.25 137.801 165.996 125.276 165.996 125.276L121.417 90.8396Z" fill="#A7287E"/>
<path d="M124.842 137.279C125.123 137.214 128.625 136.56 128.625 136.56C128.625 136.56 126.406 145.462 128.489 148.574C136.043 144.346 139.013 146.643 142.578 148.436C145.282 145.736 142.949 137.133 142.949 137.133L146.46 138.78C146.46 138.78 144.996 130.404 136.434 130.432C127.027 130.463 124.842 137.279 124.842 137.279Z" fill="#282524" stroke="#282524" stroke-width="7.9423" stroke-linecap="round" stroke-linejoin="round"/>
<path d="M94.2715 61.6804C92.8505 64.469 97.7938 89.7444 133.118 116.444C171.435 145.405 209.031 147.383 210.272 145.477C211.513 143.571 188.8 104.769 188.8 104.769C188.8 104.769 208.456 28.5011 203.448 26.3915C198.439 24.282 138.379 73.3605 138.379 73.3605C138.379 73.3605 95.6926 58.8919 94.2715 61.6804Z" fill="#282524" stroke="#282524" stroke-width="2.04123" stroke-linecap="round" stroke-linejoin="round"/>
<path d="M109.028 138.069C109.003 135.129 107.153 133.993 105.309 134.007C103.449 134.021 101.874 136.217 101.989 138.057C102.104 139.884 104.04 141.615 105.882 141.495C107.537 141.386 109.045 140.065 109.028 138.069Z" fill="#EFEDEC"/>
<path d="M143.15 140.391C143.125 137.451 141.275 136.316 139.431 136.329C137.571 136.344 135.996 138.539 136.111 140.379C136.226 142.206 138.162 143.937 140.004 143.817C141.659 143.708 143.167 142.387 143.15 140.391Z" fill="#EFEDEC"/>
<path d="M103.098 142.764C103.098 143 103.01 143.229 102.849 143.411C102.688 143.592 102.464 143.715 102.217 143.757C101.97 143.799 101.715 143.759 101.497 143.642C101.278 143.526 101.11 143.341 101.021 143.12C100.933 142.899 100.93 142.655 101.012 142.432C101.095 142.209 101.258 142.02 101.473 141.899C101.689 141.777 101.943 141.731 102.191 141.767C102.439 141.804 102.666 141.921 102.831 142.099" fill="#EFEDEC"/>
<path d="M137.463 144.387C137.463 144.67 137.362 144.945 137.177 145.162C136.992 145.38 136.736 145.527 136.452 145.578C136.168 145.629 135.875 145.58 135.624 145.44C135.373 145.301 135.18 145.079 135.078 144.814C134.976 144.548 134.973 144.257 135.068 143.989C135.163 143.721 135.35 143.495 135.597 143.349C135.845 143.203 136.136 143.148 136.422 143.191C136.707 143.235 136.967 143.376 137.157 143.589" fill="#EFEDEC"/>
<path d="M110.414 254.45C110.414 254.45 107.319 255.056 106.352 241.535C118.608 246.264 120.3 256.546 120.3 256.546L110.414 254.45Z" fill="#A39892"/>
<path d="M108.057 252.448C124.698 256.546 145.449 255.764 166.041 253.687C166.885 269.23 153.281 281.534 134.332 281.071C120.753 280.74 108.213 267.789 108.057 252.448Z" fill="#9F6150"/>
<path d="M254.448 271.894C254.448 271.894 255.383 269.369 255.806 269.476C256.23 269.583 256.559 272.356 256.87 272.341C257.18 272.326 257.697 271.126 258.106 271.138C258.515 271.151 258.993 272.971 259.275 272.949C259.558 272.928 259.693 270.99 260.184 270.991C260.674 270.992 260.682 271.823 260.682 271.823C260.682 271.823 263.765 270.601 263.495 265.693C263.226 260.786 260.553 259.348 260.553 259.348C259.598 260.36 259.197 261.356 258.658 262.955C258.658 262.955 258.938 257.313 256.859 255.53C252.027 258.102 249.732 261.692 249.897 265.82C250.064 269.977 254.448 271.894 254.448 271.894Z" fill="#A7287E"/>
<path d="M113.65 252.989C113.65 252.989 109.537 248.054 109.244 246.121C111.213 247.085 114.851 251.752 114.851 251.752L113.65 252.989Z" fill="#88656B"/>
<path d="M113.698 243.834C111.261 245.609 112.65 247.774 115.36 250.286C112.746 250.429 110.585 252.859 111.527 255.246C112.469 257.633 116.504 257.65 118.987 254.551C118.075 256.198 118.267 261.226 121.053 261.318C123.839 261.411 124.364 257.821 123.033 254.704C125.732 256.3 129.705 255.407 129.828 253.169C129.952 250.932 128.004 249.004 123.763 250.523C125.89 248.073 127.336 244.767 124.836 243.588C122.336 242.409 120.857 244.218 119.703 248.228C118.407 244.344 116.135 242.058 113.698 243.834Z" fill="url(#paint3_linear_102_257)"/>
<path d="M119.683 250.622C119.683 250.876 119.586 251.12 119.414 251.3C119.241 251.48 119.007 251.581 118.763 251.581C118.519 251.581 118.285 251.48 118.112 251.3C117.94 251.121 117.843 250.877 117.843 250.622C117.843 250.368 117.939 250.124 118.112 249.944C118.284 249.765 118.518 249.663 118.762 249.663C119.006 249.663 119.24 249.764 119.413 249.944C119.586 250.123 119.683 250.367 119.683 250.621L118.763 250.622L119.683 250.622Z" fill="#B45896"/>
<path d="M123.293 251.19C123.293 251.594 123.13 251.982 122.842 252.268C122.553 252.554 122.161 252.715 121.753 252.715C121.345 252.715 120.953 252.555 120.664 252.269C120.375 251.983 120.213 251.595 120.213 251.191C120.213 250.786 120.375 250.398 120.663 250.112C120.952 249.826 121.344 249.665 121.752 249.665C122.16 249.665 122.552 249.825 122.841 250.111C123.13 250.397 123.292 250.784 123.293 251.189L121.753 251.19L123.293 251.19Z" fill="#B45896"/>
<path d="M119.91 252.511C119.91 252.652 119.854 252.788 119.756 252.888C119.657 252.988 119.523 253.044 119.384 253.044C119.244 253.044 119.11 252.988 119.012 252.888C118.913 252.788 118.857 252.652 118.857 252.511C118.857 252.37 118.913 252.234 119.011 252.134C119.11 252.034 119.244 251.978 119.383 251.978C119.523 251.978 119.657 252.034 119.755 252.134C119.854 252.234 119.91 252.369 119.91 252.51L119.384 252.511L119.91 252.511Z" fill="#B45896"/>
<path d="M93.5105 108.826C93.5105 108.826 76.5013 106.137 58.4808 93.5647C60.9749 101.72 64.1073 113.307 73.6524 116.359C83.1975 119.411 93.5105 108.826 93.5105 108.826Z" fill="#88656B"/>
<path d="M255.121 260.853C254.765 261.598 254.33 262.268 253.912 262.717C253.494 263.165 253.128 263.355 252.894 263.245C252.66 263.135 252.577 262.734 252.664 262.13C252.751 261.526 253 260.768 253.357 260.024C253.713 259.279 254.148 258.609 254.566 258.16C254.984 257.711 255.35 257.521 255.584 257.63C255.818 257.74 255.901 258.141 255.815 258.745C255.728 259.349 255.479 260.107 255.122 260.851L254.239 260.438L255.121 260.853Z" fill="#BF71A5"/>
<path d="M256.838 261.467C256.688 261.93 256.478 262.363 256.255 262.672C256.031 262.98 255.812 263.138 255.645 263.11C255.479 263.083 255.379 262.873 255.367 262.527C255.356 262.181 255.433 261.726 255.583 261.263C255.733 260.8 255.943 260.367 256.167 260.059C256.391 259.751 256.61 259.593 256.776 259.619C256.943 259.646 257.043 259.856 257.055 260.202C257.066 260.549 256.989 261.003 256.839 261.466L256.211 261.365L256.838 261.467Z" fill="#BF71A5"/>
<path d="M138.512 71.6596C138.512 71.6596 136.307 77.3673 158.606 92.9686C180.904 108.57 190.33 104.006 190.33 104.006L193.817 89.0769C193.817 89.0769 186.459 89.7427 167.676 79.0262C148.892 68.3096 149.474 63.1998 149.474 63.1998L138.512 71.6596Z" fill="#BF71A5"/>
<path d="M43.7746 134.558C42.536 134.579 39.3941 145.602 39.3941 145.602C39.3941 145.602 28.853 145.891 28.7086 147.592C28.5641 149.293 36.2521 154.457 36.2521 154.457C36.2521 154.457 32.3912 165.235 33.2702 165.835C34.1491 166.435 45.667 160.246 45.667 160.246C45.667 160.246 57.2993 164.489 57.7733 163.854C58.2474 163.219 53.2839 153.679 53.2839 153.679C53.2839 153.679 61.0195 146.844 60.5229 145.87C60.0263 144.896 49.0906 144.724 49.0906 144.724C49.0906 144.724 45.0133 134.537 43.7746 134.558Z" fill="#BF71A5"/>
<defs>
<radialGradient id="paint0_radial_102_257" cx="0" cy="0" r="1" gradientUnits="userSpaceOnUse" gradientTransform="translate(43.9456 150.404) rotate(47.3272) scale(28.7375 28.9674)">
<stop offset="0.0832663" stop-color="#C42D94"/>
<stop offset="1" stop-color="#A7287E" stop-opacity="0"/>
</radialGradient>
<linearGradient id="paint1_linear_102_257" x1="177.955" y1="286.764" x2="190.047" y2="325.903" gradientUnits="userSpaceOnUse">
<stop stop-color="#88656B"/>
<stop offset="0.69496" stop-color="#A39892"/>
</linearGradient>
<linearGradient id="paint2_linear_102_257" x1="132.471" y1="287.29" x2="141.539" y2="327.224" gradientUnits="userSpaceOnUse">
<stop stop-color="#88656B"/>
<stop offset="0.69496" stop-color="#A39892"/>
</linearGradient>
<linearGradient id="paint3_linear_102_257" x1="122.006" y1="239.364" x2="120.868" y2="265.427" gradientUnits="userSpaceOnUse">
<stop stop-color="#862067"/>
<stop offset="1" stop-color="#A7287E"/>
</linearGradient>
</defs>
</svg>
