<svg width="387" height="120" viewBox="0 0 387 120" fill="none" xmlns="http://www.w3.org/2000/svg">
<path d="M386.673 58.0393C387.271 61.5196 387.652 68.5588 382.135 73.9448C379.418 76.5976 372.699 81.835 364.892 83.1262C352.346 85.2011 334.381 85.9211 316.226 86.0142C315.985 85.9696 315.742 85.9295 315.498 85.8907C314.975 85.8261 314.441 85.7749 313.904 85.7599C313.679 85.7407 313.459 85.7006 313.233 85.6873C312.461 85.6326 311.683 85.664 310.907 85.7188C310.14 85.7933 309.378 85.9092 308.617 86.0314C292.919 85.9642 277.707 85.475 266.174 84.9955C266.019 84.9422 265.864 84.8917 265.707 84.843C265.257 84.7185 264.803 84.6001 264.341 84.5021C263.923 84.4159 263.492 84.3858 263.06 84.3645C262.605 84.3359 262.15 84.3142 261.692 84.3238C261.176 84.337 260.66 84.3726 260.144 84.41C259.571 84.4569 258.998 84.5188 258.425 84.5721C258.247 84.588 258.07 84.6002 257.892 84.6122C251.151 84.2847 246.154 84.0073 246.154 84.0073L164.551 76.6886L168.477 61.6367L324.761 65.8634L386.212 55.9384C386.25 56.1147 386.473 56.879 386.672 58.0393H386.673ZM263.656 84.8868C262.979 84.8577 262.599 84.8351 261.954 84.8058C262.303 84.8047 262.652 84.8143 262.999 84.8397C263.219 84.8518 263.439 84.8645 263.656 84.8869V84.8868Z" fill="#722A33"/>
<path d="M168.282 76.9623L135.02 74.2063C135.02 74.2063 155.65 106.763 147.833 113.977C141.846 119.502 93.816 95.452 93.816 95.452C93.816 95.452 54.1813 122.495 48.305 119.806C37.6932 114.952 51.7657 78.3077 51.7657 78.3077C51.7657 78.3077 0.650004 63.793 1.00729 55.1709C1.04582 54.2417 -1.18499 50.8082 0.873698 49.5604C12.5321 42.4943 54.3054 33.9223 54.3054 33.9223C54.3054 33.9223 49.826 4.13556 57.3722 1.66195C65.0171 -0.844033 96.2259 22.3599 96.2259 22.3599C96.2259 22.3599 127.507 4.83432 135.869 11.7193C139.195 14.458 126.41 30.2403 131.703 40.5696C136.996 50.8989 165.598 42.0529 165.598 42.0529" fill="#722A33"/>
<path d="M385.917 52.431C386.077 53.0501 386.191 53.6628 386.256 54.2634C386.996 61.0295 384.973 72.8921 358.919 75.9392C328.175 79.5349 303.166 76.5045 271.055 76.4481C232.278 76.3799 167.536 70.4734 156.65 71.2303L165.507 41.8046C165.507 41.8046 229.896 36.3635 289.436 35.1419C290.024 35.1946 290.607 35.2696 291.182 35.3836C292.584 35.6476 293.972 35.9551 295.37 36.2306C296.477 36.4338 297.598 36.6274 298.751 36.5962C300.018 36.5343 301.268 36.3208 302.487 35.9881C302.858 35.8884 303.669 35.5969 304.416 35.3412C304.698 35.3018 304.979 35.2613 305.26 35.2181C305.804 35.1212 306.349 35.027 306.893 34.9301C322.609 34.8482 337.544 35.1104 350.133 35.9941C357.554 36.515 368.373 37.1849 375.832 40.791C381.365 43.4664 384.794 48.0974 385.916 52.4312L385.917 52.431Z" fill="#874943"/>
<path d="M290.163 76.5561C290.019 76.6191 289.802 76.7248 289.491 76.9262C289.273 77.0672 289.059 77.2208 288.81 77.4038C288.646 77.5238 288.355 77.7395 288.104 77.9086C287.882 78.0579 287.626 78.2169 287.353 78.3449C287.266 78.3855 287.176 78.4252 287.081 78.4336C286.986 78.442 286.886 78.4169 286.812 78.3566C286.737 78.2963 286.692 78.2041 286.68 78.109C286.668 78.0139 286.689 77.9182 286.711 77.8249C286.701 77.8643 286.705 77.8751 286.705 77.8705C286.705 77.8645 286.703 77.8479 286.697 77.8189C286.684 77.7605 286.662 77.6806 286.628 77.5796C286.594 77.4797 286.553 77.3695 286.509 77.2542C286.464 77.139 286.416 77.0159 286.372 76.9006C286.325 76.7789 286.282 76.6631 286.247 76.5566C286.228 76.5003 286.211 76.4458 286.197 76.3939C286.182 76.3396 286.169 76.285 286.16 76.2316C286.15 76.1764 286.143 76.1108 286.146 76.0416C286.149 76.0038 286.153 75.9592 286.166 75.9111C286.18 75.8601 286.204 75.8002 286.246 75.7411C286.292 75.6757 286.354 75.6201 286.429 75.5815C286.508 75.5405 286.586 75.5269 286.649 75.5249C286.716 75.5225 286.774 75.5333 286.814 75.5443C286.862 75.5568 286.902 75.5734 286.932 75.5873C287.042 75.6386 287.127 75.7317 287.169 75.846C287.211 75.9603 287.206 76.0866 287.154 76.197C287.103 76.3073 287.01 76.3928 286.895 76.4346C286.781 76.4763 286.655 76.471 286.545 76.4197C286.547 76.4206 286.559 76.4268 286.58 76.4318C286.597 76.4366 286.632 76.444 286.679 76.4427C286.723 76.4415 286.784 76.4318 286.849 76.3981C286.91 76.3666 286.96 76.3214 286.996 76.2702C287.028 76.2245 287.044 76.1811 287.053 76.1503C287.06 76.1214 287.062 76.099 287.064 76.0869C287.065 76.0661 287.062 76.0604 287.065 76.0785C287.067 76.0929 287.072 76.1165 287.082 76.151C287.09 76.1833 287.103 76.2217 287.118 76.267C287.147 76.3538 287.184 76.4545 287.229 76.5727C287.275 76.6912 287.321 76.8078 287.366 76.9264C287.412 77.0452 287.458 77.1692 287.498 77.287C287.537 77.4026 287.573 77.5224 287.596 77.6336C287.608 77.6899 287.617 77.7509 287.621 77.8127C287.625 77.8727 287.625 77.9511 287.605 78.0345L286.964 77.5144C287.176 77.4151 287.388 77.2852 287.591 77.148C287.823 76.9918 288.094 76.7909 288.265 76.6656C288.519 76.4802 288.75 76.3129 288.993 76.1562C289.347 75.927 289.608 75.7977 289.797 75.7153C289.909 75.6667 290.035 75.6645 290.149 75.7091C290.262 75.7536 290.353 75.8413 290.401 75.9529C290.45 76.0645 290.452 76.1909 290.408 76.3042C290.363 76.4175 290.275 76.5084 290.164 76.557L290.163 76.5561Z" fill="#874943"/>
<path d="M287.426 76.9791C287.464 77.0935 287.503 77.1909 287.512 77.1958C287.527 77.2006 287.673 77.1012 287.85 76.9748C288.027 76.8482 288.166 76.7416 288.159 76.7377C288.158 76.7329 287.963 76.7256 287.74 76.7204C287.479 76.712 287.338 76.7214 287.345 76.7407C287.349 76.7578 287.388 76.8644 287.425 76.9788L287.426 76.9791Z" fill="#874943"/>
<path d="M235.386 75.984C235.11 72.5903 236.611 71.2166 233.405 73.9043C230.378 76.4421 235.386 75.984 235.386 75.984Z" fill="#722A33"/>
<path d="M352.321 78.0154C345.569 77.5549 342.408 81.2259 345.747 75.4444C347.779 71.9257 347.778 68.9253 349.9 73.3972C350.678 75.0353 352.321 78.0154 352.321 78.0154Z" fill="#722A33"/>
<path d="M354.825 60.0127C355.117 59.9595 357.924 59.2144 360.858 58.0642C364.338 56.7 367.368 55.8146 367.364 55.0483C367.36 54.3656 360.162 52.1759 360.162 52.1759L354.72 50.515C354.72 50.515 354.955 40.1902 353.711 40.139C352.219 40.0777 345.848 47.6725 345.848 47.6725C345.848 47.6725 337.704 43.1656 336.535 43.7995C335.456 44.3849 339.84 53.9346 339.413 54.3983C338.986 54.862 333.559 65.3874 334.762 65.894C335.001 65.995 338.546 65.261 341.656 64.5264C342.718 65.3496 342.815 65.2658 343.073 64.1838C344.43 63.8474 345.561 63.5399 346.076 63.3482C346.64 65.0565 353.11 69.894 354.27 69.8757C354.588 69.8708 355.015 67.387 354.786 64.9404C353.387 64.288 354.03 64.1359 354.809 63.7788C354.84 61.7572 354.825 60.0127 354.825 60.0127H354.825Z" fill="#722A33"/>
<path opacity="0.475947" d="M324.182 61.4706C322.74 61.5691 321.294 61.5362 319.859 61.4742C318.099 61.4634 316.35 61.3644 314.596 61.3013C312.914 61.2847 311.239 61.2033 309.561 61.1482C307.98 61.0923 306.394 61.1023 304.811 61.0845C303.294 61.1037 301.785 61.0251 300.274 60.973C299.268 60.9449 298.264 60.9118 297.261 60.8553C297.028 60.8416 296.792 60.8432 296.561 60.8185C296.281 60.7873 296.007 60.7282 295.73 60.6829C294.902 60.6515 294.103 60.4852 293.296 60.361L293.23 60.2857C293.934 60.2439 294.641 60.1622 295.34 60.2399C295.562 60.2225 295.783 60.1918 296.005 60.1883C296.237 60.1847 296.466 60.2095 296.697 60.2165C297.699 60.247 298.701 60.2771 299.701 60.325C299.818 60.3274 301.129 60.365 301.257 60.3657C302.231 60.3729 303.209 60.331 304.181 60.3765C305.778 60.3912 307.374 60.436 308.969 60.479C310.655 60.5462 312.344 60.5876 314.029 60.6596C315.792 60.7363 317.553 60.8299 319.319 60.8676C320.678 60.8438 322.056 60.8895 323.401 60.6302L324.183 61.47L324.182 61.4706Z" fill="#722A33"/>
<path opacity="0.475947" d="M164.045 61.9962C162.602 62.0946 161.156 62.0618 159.721 61.9998C157.962 61.989 156.212 61.8899 154.458 61.8269C152.776 61.8102 151.101 61.7289 149.423 61.6738C147.842 61.6178 146.257 61.6279 144.673 61.61C143.156 61.6293 141.647 61.5507 140.137 61.4985C139.13 61.4705 138.126 61.4373 137.123 61.3809C136.89 61.3671 136.655 61.3688 136.424 61.3441C136.143 61.3129 135.869 61.2538 135.592 61.2085C134.765 61.1771 133.965 61.0108 133.158 60.8866L133.092 60.8113C133.796 60.7697 134.504 60.6878 135.202 60.7655C135.424 60.7481 135.646 60.7173 135.868 60.7139C136.099 60.7102 136.329 60.7352 136.56 60.7421C137.562 60.7725 138.563 60.8026 139.563 60.8506C139.68 60.853 140.991 60.8906 141.12 60.8913C142.094 60.8985 143.071 60.8566 144.043 60.9021C145.641 60.9168 147.236 60.9616 148.831 61.0045C150.517 61.0717 152.206 61.1132 153.892 61.1851C155.654 61.2618 157.415 61.3555 159.181 61.3931C160.54 61.3693 161.918 61.4151 163.264 61.1558L164.045 61.9955L164.045 61.9962Z" fill="#722A33"/>
<path opacity="0.383265" d="M295.43 54.6255C294.475 54.5401 293.541 54.368 292.592 54.2586C291.706 54.1568 291.503 54.1527 290.608 54.0904C288.455 53.9506 286.288 53.9141 284.122 53.8917C282.705 53.7966 281.281 53.7971 279.854 53.8222C278.79 53.8684 277.727 53.8849 276.665 53.8743C275.529 53.8337 274.389 53.8403 273.25 53.826C272.053 53.8635 270.859 53.8446 269.663 53.846C268.464 53.8436 267.263 53.9093 266.062 53.9575C265.368 53.9441 264.687 54.0794 264.001 54.1669C263.626 54.2148 263.249 54.2475 262.874 54.2936C261.536 54.4564 260.205 54.6621 258.869 54.8427C257.567 55.0313 256.255 55.1384 254.942 55.1768C253.781 55.2326 252.634 55.0961 251.488 55.0068C250.41 54.9456 249.344 54.8154 248.27 54.7308C246.832 54.6186 245.39 54.5302 243.946 54.4614C243.659 54.4344 243.374 54.398 243.086 54.3821C242.595 54.3552 242.098 54.3784 241.606 54.3613C241.376 54.3517 241.147 54.328 240.916 54.3229C240.411 54.3109 240.043 54.3416 239.536 54.3689C239.239 54.3366 238.942 54.3039 238.644 54.2715L238.309 53.9047C238.506 53.8264 238.704 53.7484 238.901 53.6703C239.559 53.6176 240.225 53.5608 240.883 53.5494C241.378 53.5398 241.869 53.5841 242.363 53.5697C242.611 53.5613 242.858 53.5327 243.105 53.5139C244.535 53.5138 245.948 53.6316 247.371 53.703C248.445 53.7809 249.518 53.8653 250.587 53.9757C251.708 54.0654 252.828 54.1335 253.963 54.0893C255.279 54.039 256.589 53.9198 257.901 53.7896C259.257 53.664 260.609 53.5194 261.953 53.2938C262.279 53.2539 262.764 53.1875 263.097 53.1732C263.859 53.1408 264.616 53.2318 265.379 53.197C266.588 53.1712 267.798 53.1266 269.008 53.1113C270.221 53.1102 271.429 53.1723 272.644 53.1457C273.779 53.1311 274.913 53.162 276.047 53.1782C277.127 53.2013 278.208 53.1949 279.289 53.1904C280.715 53.1831 282.138 53.2335 283.562 53.2584C285.728 53.366 287.901 53.4138 290.072 53.4777C291.635 53.5823 293.2 53.6833 294.752 53.8491L295.43 54.6243L295.43 54.6255Z" fill="#722A33"/>
<path opacity="0.383265" d="M192.927 51.6555C191.972 51.5701 191.038 51.3979 190.089 51.2886C189.203 51.1868 189 51.1827 188.105 51.1203C185.952 50.9805 183.785 50.9442 181.619 50.9217C180.202 50.8266 178.778 50.827 177.351 50.8522C176.287 50.8982 175.224 50.9148 174.162 50.9042C173.026 50.8637 171.886 50.8703 170.747 50.856C169.55 50.8935 168.356 50.8747 167.16 50.8761C165.961 50.8737 164.76 50.9393 163.56 50.9876C162.865 50.974 162.184 51.1094 161.499 51.1968C161.123 51.2448 160.747 51.2776 160.371 51.3236C159.033 51.4864 157.702 51.6921 156.367 51.8727C155.064 52.0613 153.752 52.1684 152.439 52.2068C151.278 52.2626 150.131 52.1262 148.985 52.0369C147.907 51.9757 146.841 51.8455 145.767 51.7609C144.329 51.6486 142.887 51.5602 141.443 51.4914C141.156 51.4645 140.871 51.4279 140.583 51.4121C140.092 51.3852 139.596 51.4085 139.103 51.3915C138.873 51.3818 138.644 51.3581 138.413 51.353C137.908 51.341 137.54 51.3717 137.034 51.399C136.736 51.3668 136.439 51.3341 136.141 51.3017L135.806 50.9348C136.003 50.8565 136.201 50.7786 136.398 50.7004C137.056 50.6477 137.722 50.591 138.381 50.5796C138.875 50.57 139.366 50.6143 139.86 50.5998C140.108 50.5914 140.355 50.5628 140.602 50.544C142.032 50.5439 143.445 50.6617 144.868 50.7331C145.942 50.8111 147.015 50.8954 148.084 51.0058C149.205 51.0955 150.325 51.1637 151.46 51.1194C152.776 51.0692 154.086 50.95 155.398 50.8197C156.754 50.6941 158.106 50.5495 159.45 50.3239C159.776 50.284 160.261 50.2176 160.594 50.2033C161.356 50.1709 162.113 50.2619 162.876 50.2272C164.085 50.2015 165.295 50.1569 166.505 50.1416C167.718 50.1405 168.926 50.2026 170.141 50.1759C171.276 50.1614 172.41 50.1923 173.544 50.2084C174.624 50.2315 175.705 50.2252 176.786 50.2206C178.212 50.2134 179.635 50.2636 181.059 50.2886C183.225 50.3962 185.398 50.4441 187.569 50.5079C189.132 50.6126 190.697 50.7136 192.249 50.8794L192.927 51.6546L192.927 51.6555Z" fill="#722A33"/>
<path opacity="0.412621" d="M296.37 63.7308C294.991 63.7876 293.613 63.8323 292.234 63.8976C290.83 63.9726 289.426 64.1114 288.021 64.1372C287.569 64.1468 286.513 64.136 286.044 64.1323C284.145 64.0326 282.248 63.9229 280.346 63.8495C280.066 63.8327 279.786 63.8219 279.508 63.8003C279.335 63.7879 277.773 63.6417 277.635 63.634C276.61 63.5777 276.47 63.6181 275.434 63.6255C275.043 63.6291 274.652 63.6245 274.261 63.6245C273.878 63.6173 273.494 63.616 273.111 63.6066C272.747 63.5946 272.384 63.5745 272.02 63.5655C271.167 63.5439 270.316 63.5426 269.471 63.4559C269.168 63.4254 268.869 63.3779 268.567 63.3392C267.926 63.2735 267.407 63.203 266.755 63.2047C266.458 63.2055 266.16 63.2449 265.863 63.2505C264.922 63.2682 263.974 63.2244 263.037 63.1971C262.682 63.1804 262.328 63.161 261.973 63.1476C261.65 63.1352 261.324 63.1379 261.001 63.1213C258.338 62.9773 261.716 63.1069 259.114 62.9726C258.58 62.9441 258.043 62.9458 257.508 62.9301C256.816 62.9074 256.115 62.9181 255.43 62.841C255.192 62.8146 254.962 62.7574 254.723 62.7354C254.526 62.7177 254.324 62.7281 254.125 62.7203C253.905 62.7095 253.686 62.6925 253.467 62.6784C253.213 62.6201 252.959 62.5616 252.705 62.5032L252.639 62.4279C252.806 62.3881 252.973 62.348 253.14 62.3079C253.347 62.3081 253.555 62.3055 253.762 62.3103C253.964 62.3151 254.166 62.34 254.369 62.3347C254.558 62.3299 254.745 62.2863 254.933 62.2787C255.622 62.2507 256.305 62.3461 256.992 62.3472C257.535 62.3651 258.076 62.4024 258.62 62.4137C259.686 62.4358 259.278 62.387 260.348 62.3856C260.671 62.3854 260.993 62.3991 261.315 62.4062C261.654 62.4055 261.993 62.4052 262.332 62.4039C263.28 62.4161 264.256 62.3955 265.195 62.4912C266.173 62.5903 267.129 62.811 268.124 62.832C269.922 62.8763 271.718 63.0407 273.524 62.8051C273.896 62.7827 274.268 62.7458 274.639 62.7374C276.305 62.7005 277.95 62.9008 279.6 63.0024C281.474 63.115 283.351 63.1948 285.234 63.2197C287.339 63.2996 289.454 63.2486 291.567 63.1607C292.889 63.0805 294.207 62.9669 295.521 62.7904L296.37 63.7302L296.37 63.7308Z" fill="#722A33"/>
<path d="M249.626 62.2963C249.618 62.2614 249.647 62.2268 249.689 62.219C249.732 62.2113 249.772 62.2333 249.78 62.2683C249.787 62.3032 249.758 62.3378 249.716 62.3456C249.673 62.3533 249.633 62.3313 249.626 62.2963Z" fill="#722A33" stroke="black" stroke-width="0.287534"/>
<path opacity="0.410524" d="M339.889 57.1343C339.429 57.0436 339.272 56.9958 338.731 56.9926C338.465 56.9918 338.198 57.0316 337.932 57.0415C336.887 57.0808 335.84 57.0771 334.796 57.0963C332.951 57.1243 331.113 57.0651 329.269 57.0831C327.506 57.094 325.753 56.9955 323.994 56.9567C322.709 56.9018 321.416 56.9792 320.131 56.9471C319.458 56.9312 319.082 56.8991 318.42 56.8552C316.734 56.667 315.035 56.5607 313.324 56.5509C311.67 56.5019 310.013 56.5948 308.356 56.6773C307.253 56.7165 306.151 56.8456 305.049 56.8929C302.862 56.9867 305.825 56.8097 303.609 56.9507C302.814 57.0291 302.012 57.1078 301.215 57.118C300.916 57.1216 300.619 57.106 300.322 57.1023L300.254 57.0276C301.31 56.8764 302.371 56.7926 303.435 56.7595C303.9 56.7283 304.364 56.6797 304.829 56.6502C305.078 56.6345 305.327 56.6342 305.575 56.6212C306.423 56.5769 307.269 56.5028 308.113 56.4088C308.382 56.3898 308.651 56.3631 308.921 56.3515C310.324 56.2914 311.726 56.375 313.129 56.3311C314.832 56.3636 316.541 56.3772 318.214 56.6197C320.106 56.792 322.015 56.8687 323.927 56.8799C325.673 56.904 327.416 56.9472 329.163 56.9619C331.007 57.0077 332.854 57.0644 334.705 56.9932C335.49 56.9407 335.929 56.9271 336.71 56.8129C337.001 56.7704 337.288 56.7079 337.576 56.6531C337.814 56.6075 338.059 56.5807 338.291 56.5133C338.614 56.4195 338.767 56.3117 339.018 56.1597L339.89 57.1319L339.889 57.1343Z" fill="#722A33"/>
<path opacity="0.42017" d="M315.595 48.6973C314.866 48.8009 315.567 48.7069 314.653 48.8107C314.409 48.8386 314.166 48.8836 313.921 48.8999C312.87 48.9693 311.82 48.9119 310.779 48.851C307.814 48.5348 304.855 48.1834 301.879 47.921C301.41 47.8968 300.942 47.8652 300.472 47.8507C299.948 47.834 298.446 47.833 297.908 47.8224C296.807 47.8012 295.709 47.7401 294.611 47.6895C292.77 47.4088 290.876 47.7261 289.011 47.719C288.68 47.7179 288.351 47.691 288.02 47.6776C286.58 47.5395 285.117 47.4988 283.658 47.6129C283.398 47.6331 283.14 47.6714 282.881 47.7008C282.135 47.7344 281.396 47.8478 280.655 47.9367C280.401 47.9673 280.143 47.972 279.891 48.0174C277.848 48.3842 280.628 48.0588 278.232 48.2994C276.387 48.5029 274.537 48.5451 272.692 48.5069C271.18 48.3094 271.94 48.4047 270.411 48.2216L270.344 48.1467C271.586 48.0077 270.968 48.0722 272.198 47.9525C274.048 47.9646 275.901 47.9382 277.752 47.7748C279.897 47.6235 277.493 47.7568 279.647 47.7511C279.912 47.7506 280.177 47.7165 280.442 47.7039C281.213 47.667 281.984 47.6411 282.754 47.5614C285.457 47.4875 281.719 47.5948 284.427 47.5004C285.538 47.4617 286.647 47.4956 287.757 47.3842C288.775 47.3308 289.785 47.3289 290.802 47.3189C291.364 47.3141 292.596 47.3093 293.169 47.2764C293.5 47.2565 293.829 47.2122 294.159 47.1801C296.643 47.2322 299.113 47.399 301.581 47.5818C302.631 47.6508 303.536 47.7044 304.583 47.8021C306.501 47.9805 308.398 48.2677 310.333 48.3482C311.359 48.3652 312.377 48.3492 313.403 48.3309C313.669 48.3261 313.935 48.3418 314.201 48.3213C314.501 48.3008 314.795 48.2252 315.086 48.159L315.594 48.6965L315.595 48.6973Z" fill="#722A33"/>
<path opacity="0.483077" d="M306.957 70.5753C306.853 70.6007 306.751 70.6353 306.645 70.6515C306.313 70.7027 305.628 70.7427 305.326 70.7613C304.363 70.8213 303.421 70.8199 302.461 70.8002C302.111 70.7881 301.757 70.8013 301.41 70.7691C300.995 70.7312 300.589 70.6481 300.179 70.5875C299.76 70.5439 299.342 70.4942 298.922 70.4567C297.774 70.3547 296.618 70.2836 295.467 70.196C294.412 70.134 293.358 70.0349 292.294 70.0514C291.791 70.0598 291.27 70.098 290.768 70.1295C290.496 70.1463 290.223 70.1632 289.951 70.18L289.883 70.1054C290.156 70.0885 290.428 70.0717 290.701 70.0548C291.2 70.0236 291.727 69.9842 292.227 69.9763C293.291 69.9593 294.346 70.0582 295.401 70.1204C296.144 70.1769 296.887 70.2358 297.631 70.2915C298.446 70.3527 299.201 70.4241 300.025 70.4117C300.362 70.4069 300.7 70.3539 301.037 70.3482C301.387 70.341 301.735 70.3675 302.084 70.3772C303.012 70.3723 303.934 70.3644 304.861 70.2547C305.524 70.1762 305.483 70.1497 306.084 70.0519C306.196 70.0336 306.311 70.0226 306.424 70.008L306.957 70.575L306.957 70.5753Z" fill="#722A33"/>
<path opacity="0.402556" d="M247.442 67.4218C245.036 67.2005 242.595 67.3426 240.168 67.422C238.152 67.4172 236.124 67.5124 234.122 67.3468C233.153 67.2667 232.194 67.1397 231.229 67.0434C230.789 67.0002 230.35 66.9569 229.911 66.9125C229.492 66.8709 229.074 66.8208 228.654 66.7844C227.201 66.6589 225.731 66.617 224.269 66.5689C223.404 66.4076 222.501 66.4738 221.625 66.3851C221.16 66.3378 220.711 66.2196 220.245 66.178C219.843 66.1422 219.432 66.16 219.026 66.153C218.163 66.1382 217.699 66.1366 216.843 66.1297C215.718 66.2475 214.598 66.4105 213.469 66.3719C212.916 66.3532 212.366 66.3068 211.813 66.2835C210.213 66.2053 208.621 66.0643 207.022 65.9752C206.748 65.9644 206.474 65.9459 206.199 65.9462C205.923 65.9464 205.645 65.9736 205.369 65.9767C205.084 65.9804 204.8 65.966 204.516 65.9648C203.622 65.9575 202.728 65.9539 201.834 65.9527C200.47 65.9909 199.107 66.0612 197.745 66.1689C196.506 66.2504 195.263 66.2495 194.027 66.2264C193.206 66.2452 192.434 66.0271 191.635 65.9365C190.781 65.8396 191.546 65.9867 190.673 65.7896L190.27 65.333C190.381 65.3085 190.489 65.2624 190.603 65.2583C190.766 65.2511 190.925 65.29 191.087 65.3043C191.826 65.3668 192.571 65.3869 193.313 65.4223C194.544 65.451 195.775 65.4646 197.009 65.3579C198.4 65.2971 199.791 65.2335 201.18 65.2234C202.369 65.1882 203.564 65.159 204.742 65.2651C205.065 65.2944 205.382 65.3474 205.704 65.3807C205.99 65.4101 206.278 65.4288 206.565 65.4532C208.15 65.5569 209.748 65.5744 211.327 65.7288C211.592 65.7471 211.857 65.7739 212.124 65.785C212.685 65.8081 213.251 65.7839 213.812 65.8167C214.805 65.8589 215.79 65.9636 216.776 66.0522C217.632 66.0595 218.097 66.0619 218.959 66.0752C219.366 66.0837 219.771 66.1215 220.179 66.1003C220.538 66.0824 220.891 65.9848 221.25 65.961C222.055 65.9078 222.86 66.0099 223.665 65.8848C224.057 65.897 224.451 65.8984 224.843 65.9235C226.012 65.9976 227.146 66.2149 228.296 66.3702C228.721 66.4275 229.148 66.476 229.575 66.5247C230.017 66.5748 230.46 66.6187 230.902 66.6662C231.354 66.7101 231.804 66.764 232.258 66.7968C232.738 66.8315 233.219 66.8479 233.701 66.8679C235.696 66.9547 237.7 67.0189 239.707 66.909C241.15 66.8541 241.375 66.8507 242.812 66.7759C243.968 66.7156 245.137 66.6027 246.294 66.5981C246.444 66.5981 246.593 66.6138 246.743 66.6224L247.442 67.4195V67.4218Z" fill="#722A33"/>
<path opacity="0.434848" d="M221.301 59.6728C220.486 59.7351 219.673 59.6955 218.859 59.6954C218.462 59.6953 218.063 59.7096 217.665 59.7111C214.937 59.7232 217.77 59.679 215.078 59.7292C213.919 59.7419 212.753 59.8113 211.598 59.7484C211.214 59.7272 210.834 59.6812 210.452 59.6479C209.029 59.5241 209.79 59.604 208.361 59.4329C206.225 59.1146 204.051 58.9711 201.887 58.7887C200.447 58.6427 199.016 58.4459 197.56 58.3884C196.909 58.3627 196.308 58.3691 195.656 58.3692C195.368 58.3834 195.081 58.4004 194.794 58.4116C194.072 58.4399 193.891 58.4213 193.194 58.4864C192.596 58.5427 192.001 58.6517 191.406 58.7376C190.519 58.8635 189.613 58.9133 188.722 58.8816C187.935 58.9214 187.603 58.7473 186.979 58.4013L186.913 58.3259C186.933 58.2498 186.916 58.1633 186.969 58.0974C187.15 57.8687 187.658 58.0063 187.9 57.9686C188.763 57.8769 189.628 57.7923 190.494 57.7434C191.142 57.7002 191.788 57.673 192.436 57.649C192.658 57.6394 193.879 57.5941 194.065 57.5957C194.38 57.5982 194.693 57.6232 195.006 57.6372C197.09 57.7339 199.158 57.9334 201.239 58.0481C203.403 58.2308 205.558 58.4566 207.713 58.6855C207.966 58.715 209.568 58.9081 209.82 58.9283C211.343 59.0505 212.887 59.0107 214.421 58.9983C215.648 58.9703 216.872 58.9109 218.098 58.848C218.453 58.8298 218.806 58.7937 219.161 58.7842C219.763 58.7679 220.008 58.7981 220.565 58.8402L221.302 59.6731L221.301 59.6728Z" fill="#722A33"/>
<path d="M167.678 71.1414L134.373 70.4584C134.373 70.4584 152.953 107.198 149.405 109.109C142.144 113.02 93.6412 86.431 93.6412 86.431C93.6412 86.431 52.2239 118.208 46.0258 116.263C40.6556 114.578 51.0113 74.5598 51.0113 74.5598C51.0113 74.5598 -0.264242 58.5357 0.0934701 49.9136C0.350367 43.7219 53.5542 30.1744 53.5542 30.1744C53.5542 30.1744 50.2194 2.68213 57.7753 0.208516C65.4301 -2.29748 95.5288 18.612 95.5288 18.612C95.5288 18.612 129.396 -1.74211 140.974 7.64945C146.202 11.89 135.942 32.4893 132.061 40.8671C141.844 43.1467 164.991 41.5856 164.991 41.5856" fill="#874943"/>
<g opacity="0.309267" filter="url(#filter0_f_100_579)">
<path d="M122.016 51.717C127.263 58.6943 146.287 96.2499 141.873 101.005C135.17 108.228 93.8888 77.5333 93.8888 77.5333C93.8888 77.5333 61.1173 108.146 52.4387 103.71C45.2715 100.047 56.1778 69.4442 56.1778 69.4442C56.1778 69.4442 12.4627 56.4124 12.514 48.9736C12.5635 41.7907 57.6282 29.5376 58.1651 32.3032C58.1651 32.3032 53.2833 6.32654 59.6913 3.62997C65.4021 1.22675 93.853 23.2625 93.853 23.2625C93.853 23.2625 133.128 3.97774 138.079 8.08814C137.181 22.3927 129.998 36.1438 122.016 51.717Z" fill="#722A33"/>
</g>
<path opacity="0.309267" d="M137.317 24.3403C136.598 24.0583 135.832 23.9432 135.065 23.8568C134.485 23.8051 133.902 23.7764 133.329 23.8889C132.741 24.0521 132.175 24.2831 131.612 24.5125C130.949 24.7521 130.353 25.1147 129.747 25.4585C129.08 25.8137 128.367 26.0791 127.647 26.3181C126.847 26.5718 126.017 26.72 125.193 26.8817C124.496 27.068 123.789 27.1816 123.068 27.2357C122.141 27.2621 121.215 27.3054 120.289 27.3548C119.341 27.4542 118.423 27.2936 117.521 27.0268C116.56 26.6899 115.62 26.2845 114.765 25.7446C114.08 25.2978 113.474 24.7567 112.861 24.2258C112.382 23.8019 111.871 23.4119 111.375 23.0066C110.874 22.5925 110.405 22.1475 109.957 21.6828C109.537 21.2262 109.123 20.7645 108.677 20.3304C108.354 19.9478 107.949 19.6588 107.492 19.4423C107.141 19.2721 106.765 19.1573 106.396 19.0302C105.881 18.8252 105.366 18.6201 104.842 18.4369C104.318 18.2556 103.799 18.0618 103.263 17.9178C102.84 17.8305 102.412 17.7638 101.984 17.7074C101.86 17.691 101.732 17.6914 101.611 17.6595C101.526 17.6368 101.452 17.5842 101.373 17.5464L101.811 17.1409C101.978 17.102 102.142 17.0404 102.314 17.0246C102.444 17.0124 102.575 17.0439 102.706 17.0584C103.137 17.1063 103.569 17.1746 103.988 17.2846C104.519 17.4395 105.039 17.6258 105.554 17.8251C106.064 18.027 106.578 18.2169 107.073 18.4499C107.433 18.5978 107.81 18.7086 108.158 18.8822C108.618 19.1197 108.986 19.4481 109.371 19.7817C109.839 20.2 110.286 20.6325 110.703 21.0976C111.156 21.5533 111.619 22.0002 112.118 22.4107C112.614 22.8175 113.125 23.2084 113.602 23.6356C114.208 24.1645 114.809 24.7035 115.484 25.1528C116.335 25.6845 117.259 26.0905 118.213 26.4238C119.111 26.6782 120.015 26.8306 120.956 26.7308C121.891 26.6804 122.826 26.6341 123.761 26.5844C124.475 26.5248 125.174 26.4079 125.867 26.2327C126.689 26.0735 127.516 25.923 128.31 25.6616C129.026 25.4186 129.735 25.1514 130.396 24.7902C130.999 24.4436 131.606 24.1019 132.265 23.8586C132.809 23.6425 133.364 23.4421 133.936 23.3062C134.502 23.217 135.062 23.2808 135.628 23.3486C136.412 23.4427 137.196 23.5655 137.951 23.793L137.317 24.34V24.3403Z" fill="#722A33"/>
<path opacity="0.309267" d="M139.532 84.8397C138.659 84.7742 137.794 84.6273 136.919 84.576C136.283 84.5599 135.718 84.7732 135.179 85.0705C134.674 85.3773 134.204 85.7322 133.73 86.0794C133.895 85.9604 133.049 86.5778 133.226 86.4615C133.341 86.3856 133.432 86.2753 133.556 86.2148C133.654 86.1673 133.391 86.3518 133.309 86.4213C133.091 86.6057 133.017 86.6735 132.806 86.8596C132.179 87.3762 131.594 87.9362 130.96 88.4458C130.239 89.016 129.491 89.5534 128.763 90.1153C128.337 90.4442 127.905 90.7622 127.444 91.044C127.005 91.2906 126.54 91.4879 126.055 91.6355C125.596 91.7668 125.132 91.877 124.666 91.9796C124.201 92.0808 123.723 92.1376 123.246 92.1279C122.776 92.0568 122.308 91.9693 121.842 91.8775C121.739 91.8645 121.631 91.8667 121.532 91.8389C121.274 91.7634 121.043 91.621 120.793 91.5235C120.416 91.376 120.037 91.2352 119.662 91.082C119.295 90.952 118.927 90.8182 118.533 90.7949C118.099 90.8646 117.696 90.7792 117.279 90.6634C116.764 90.4925 116.238 90.3664 115.707 90.2514C115.217 90.1245 114.734 89.9649 114.234 89.8735C113.693 89.8078 113.177 89.6245 112.663 89.4546C112.079 89.2769 111.474 89.1793 110.883 89.0271C110.071 88.8603 109.246 88.8035 108.419 88.7674C108.012 88.6997 107.56 88.8222 107.156 88.7337C107.1 88.7214 106.819 88.5455 106.756 88.507L106.824 88.4422C107.071 88.3477 107.62 88.1283 107.867 88.0711C108.314 87.9675 108.795 88.0155 109.25 88.0066C110.069 88.0449 110.904 88.0849 111.692 88.3173C112.277 88.4647 112.871 88.5864 113.443 88.7779C113.971 88.9306 114.495 89.0814 115.042 89.1555C115.542 89.2562 116.022 89.4174 116.516 89.54C117.036 89.6768 117.564 89.7867 118.068 89.9731C118.45 90.0721 118.832 90.1264 119.224 90.1685C119.613 90.2164 119.977 90.3362 120.318 90.5235C120.811 90.7361 121.293 90.9885 121.802 91.1627C121.926 91.2051 122.057 91.2281 122.18 91.2723C122.259 91.3006 122.331 91.3438 122.406 91.3797C122.855 91.4936 123.315 91.5732 123.774 91.6454C124.208 91.6808 124.638 91.6429 125.07 91.5905C125.57 91.4998 126.031 91.3034 126.521 91.1768C127.002 91.0238 127.467 90.827 127.899 90.572C128.373 90.2679 128.819 89.9305 129.262 89.5863C129.597 89.3292 129.938 89.08 130.275 88.8261C130.377 88.7493 130.469 88.6594 130.58 88.5949C130.677 88.5385 130.404 88.733 130.316 88.802C130.956 88.2892 131.565 87.7429 132.184 87.2075C132.844 86.6236 133.52 86.0582 134.24 85.5421C134.699 85.2068 135.15 84.8575 135.654 84.5843C136.175 84.3158 136.709 84.1569 137.311 84.2178C138.226 84.2561 139.14 84.3119 140.054 84.3605L139.532 84.8397L139.532 84.8397Z" fill="#722A33"/>
<path opacity="0.309267" d="M173.921 57.5983C172.723 57.3903 171.525 57.185 170.317 57.0349C169.044 56.8599 167.759 56.907 166.479 56.9649C165.568 57.031 164.653 56.999 163.74 56.9964C162.581 56.9844 161.422 57.0086 160.265 57.0558C159.29 57.0832 158.324 57.1696 157.358 57.2872C156.285 57.4402 155.2 57.4679 154.118 57.4693C153.928 57.4717 153.738 57.4699 153.548 57.4778C152.795 57.503 153.068 57.5317 152.338 57.4995C152.136 57.4899 151.934 57.472 151.732 57.4582C151.531 57.4233 151.332 57.3682 151.127 57.3534C150.865 57.3343 150.6 57.3558 150.337 57.357C150.081 57.358 149.825 57.3522 149.569 57.3618C148.774 57.3923 148.699 57.4425 147.899 57.481C147.071 57.521 146.267 57.4762 145.445 57.388C144.038 57.2057 142.633 57.0124 141.214 56.9416C139.711 56.8932 138.207 56.873 136.703 56.863C135.377 56.739 134.062 57.0456 132.737 57.0164C132.101 56.965 131.472 56.885 130.843 56.7824L130.913 56.7188C131.677 56.6749 132.442 56.6572 133.204 56.5822C134.604 56.4585 136.014 56.4164 137.406 56.2104C138.931 56.1464 140.458 56.1575 141.981 56.2412C143.391 56.3318 144.794 56.4627 146.182 56.7217C147.692 56.8855 149.21 56.9756 150.729 56.9946C150.989 56.997 151.249 57.0164 151.509 57.0018C154.113 56.8498 150.779 56.9353 153.025 56.8658C153.823 56.841 153.413 56.8633 154.173 56.9022C154.354 56.9131 154.537 56.9131 154.718 56.9167C155.733 56.9287 156.751 56.9892 157.764 56.9046C158.794 56.789 159.806 56.5662 160.845 56.5158C161.989 56.4602 163.133 56.4796 164.277 56.5022C165.175 56.5174 166.073 56.5315 166.97 56.5107C168.24 56.4694 169.514 56.4557 170.776 56.6253C171.986 56.7858 173.19 56.9871 174.395 57.1803L173.921 57.6015L173.921 57.5983Z" fill="#722A33"/>
<path opacity="0.309267" d="M133.826 48.9446C132.485 48.9026 131.156 49.0085 129.827 49.1622C128.721 49.317 127.607 49.3787 126.491 49.4147C125.552 49.3986 124.62 49.4014 123.687 49.5018C123.057 49.5865 122.431 49.6683 121.812 49.8058C121.257 49.9139 120.71 49.9963 120.196 50.2304C119.416 50.6883 118.703 51.2418 117.944 51.7302C116.796 52.473 115.588 53.1254 114.405 53.8131C113.601 54.3016 112.804 54.7989 111.981 55.256C111.494 55.5225 110.953 55.6813 110.421 55.8451C109.754 56.0632 109.044 56.0897 108.346 56.113C107.321 56.1557 106.297 56.1282 105.271 56.1364C103.695 56.1371 102.12 56.1172 100.545 56.1869C98.7549 56.3168 96.9928 56.6525 95.2108 56.8469C93.4566 57.0253 91.6907 57.071 89.9277 57.0813C88.6993 57.0789 87.47 57.0683 86.2423 57.0255C85.4254 57.0327 84.6407 56.8363 83.8557 56.648C83.4077 56.5352 82.9566 56.432 82.4956 56.383C81.7045 56.3625 80.9437 56.1246 80.1893 55.9185C78.7721 55.529 77.314 55.3091 75.8669 55.0499C74.6284 54.8323 73.3747 54.7189 72.127 54.5651C70.9076 54.3426 69.701 54.083 68.5052 53.7647C67.6891 53.535 66.8741 53.3012 66.0325 53.1745C65.4406 53.0899 64.8569 52.9695 64.2647 52.887C63.6293 52.7996 62.9897 52.7424 62.3499 52.6937C61.8222 52.6343 61.2892 52.6317 60.7612 52.5811C60.0204 52.5427 59.3251 52.2045 58.6294 51.9796C57.2281 51.5361 55.7861 51.2205 54.3591 50.8621C52.9709 50.4709 51.5685 50.1463 50.1345 49.9561C48.7634 49.7922 47.3808 49.7789 46.0016 49.7404C44.2425 49.7158 42.4886 49.58 40.7355 49.4513C38.9907 49.3096 37.2456 49.1697 35.5055 48.9811C33.9152 48.8305 32.3376 48.5867 30.757 48.3662C29.9089 48.2378 29.0715 48.029 28.2136 47.9683C27.4586 47.9681 26.7754 47.7199 26.1074 47.4119C25.6468 47.1902 25.2152 46.923 24.782 46.6575C24.6906 46.6209 24.597 46.5893 24.5081 46.5479C24.1828 46.3959 23.8816 46.2315 23.5282 46.1356C23.1993 46.0465 22.8627 45.9849 22.5328 45.8996C21.7084 45.6624 20.8671 45.4847 20.0416 45.252C19.0993 45.2012 18.1458 45.3491 17.2137 45.4772C16.7056 45.5899 16.4062 45.644 15.9128 45.8003C15.7101 45.8644 15.524 45.9829 15.3132 46.0156C15.2258 46.0291 15.1458 45.9601 15.0621 45.9326L15.1287 45.8662C15.407 45.7006 15.6727 45.5137 15.9638 45.3694C16.1569 45.2735 16.3699 45.22 16.5746 45.1497C17.3915 44.8692 17.1353 44.9496 17.9579 44.769C18.9194 44.6319 19.8929 44.4919 20.8672 44.5131C21.7619 44.5623 22.6086 44.864 23.4684 45.0848C24.173 45.3157 24.9193 45.6058 25.4777 46.0859C25.8961 46.3595 26.3231 46.6233 26.7698 46.8531C27.425 47.1627 28.1337 47.3526 28.8677 47.3768C29.7352 47.496 30.6045 47.6042 31.4719 47.7244C33.0499 47.944 34.6275 48.1731 36.2126 48.3411C37.9579 48.5021 39.704 48.653 41.4506 48.8012C43.2007 48.9456 44.9544 49.0442 46.7106 49.0881C48.083 49.1113 49.4546 49.1806 50.8176 49.342C52.251 49.5309 53.6442 49.8819 55.0307 50.2726C56.459 50.631 57.8996 50.9532 59.3015 51.3995C59.9781 51.6395 60.6606 51.9682 61.3914 52.0033C61.9318 51.9949 62.4719 52.0624 63.0109 52.0922C63.6599 52.1408 64.3111 52.166 64.9548 52.2673C65.5497 52.3504 66.1484 52.4163 66.7336 52.5516C67.5407 52.7427 68.3262 53.0042 69.1253 53.2223C70.3532 53.5562 71.6004 53.8753 72.8866 53.8786C74.1556 53.9968 75.423 54.1377 76.6839 54.3191C78.1598 54.5234 79.636 54.7543 81.0722 55.1459C81.8283 55.3438 82.588 55.5645 83.3784 55.5818C83.8531 55.6154 84.3118 55.728 84.7716 55.8424C85.5463 56.0307 86.3253 56.2075 87.1302 56.2108C88.3551 56.2555 89.5809 56.2642 90.8067 56.2675C92.5659 56.2542 94.3276 56.2141 96.0775 56.0267C97.8537 55.8259 99.6152 55.5131 101.401 55.3883C102.978 55.3182 104.556 55.3357 106.134 55.3389C107.154 55.3497 108.172 55.328 109.191 55.3256C109.847 55.3034 110.522 55.3066 111.155 55.1226C111.68 54.959 112.214 54.8024 112.69 54.5276C113.509 54.0767 114.295 53.5761 115.096 53.099C116.296 52.3967 117.511 51.7165 118.679 50.9645C119.376 50.5092 120.031 49.9833 120.793 49.6286C121.297 49.427 121.823 49.3331 122.365 49.2748C122.946 49.2044 123.529 49.1391 124.113 49.0992C125.086 49.0146 126.06 48.9192 127.038 48.905C128.145 48.8689 129.248 48.777 130.35 48.667C131.688 48.5417 133.028 48.4028 134.374 48.4372L133.826 48.9442L133.826 48.9446Z" fill="#722A33"/>
<path opacity="0.309267" d="M12.8593 45.97C11.7399 45.9963 10.6219 46.0415 9.50496 46.1189C8.86845 46.1428 8.23325 46.1937 7.59684 46.2184C7.44646 46.2256 7.29533 46.245 7.14556 46.231C7.01891 46.2188 6.89892 46.1713 6.77564 46.1414C6.70025 46.0713 6.6249 46.0016 6.54955 45.9316L6.75311 45.7415C6.99561 45.6559 7.23816 45.5703 7.48068 45.4847C7.68302 45.4428 7.88214 45.3826 8.08771 45.359C8.2297 45.3426 8.37368 45.3626 8.51662 45.3675C9.11033 45.3809 9.70276 45.4035 10.2969 45.3819C11.4195 45.3679 12.5353 45.2537 13.6573 45.2266L12.8593 45.9715V45.97Z" fill="#722A33"/>
<path opacity="0.309267" d="M9.77653 62.0044C10.0565 61.0673 10.5266 60.2106 11.1438 59.4386C12.5264 58.0886 13.3054 57.7375 15.0424 57.349C16.0643 57.1633 17.0597 56.8697 18.0751 56.6573C18.8418 56.5244 19.6266 56.5065 20.4039 56.5169C21.1285 56.5394 21.8537 56.5667 22.575 56.6393C23.6442 56.6576 24.697 56.7883 25.7352 57.0276C26.6208 57.2452 27.4652 57.587 28.3121 57.9113C28.8785 58.1392 29.442 58.374 30.0044 58.611C30.7256 58.9177 31.4669 59.1809 32.2389 59.3422C32.7403 59.4351 33.2521 59.4339 33.7605 59.4483C34.4516 59.4851 35.1425 59.5111 35.8349 59.5256C36.6116 59.5615 37.3709 59.4383 38.1129 59.2306C38.8324 58.978 39.5429 58.7243 40.2932 58.5695C40.4266 58.5482 40.56 58.5271 40.6933 58.5059C40.7975 58.543 40.8947 58.6195 41.0058 58.6172C41.2253 58.6124 41.4304 58.4952 41.6497 58.4859C41.8407 58.4763 42.026 58.5616 42.2172 58.5663C43.7401 58.6039 42.3402 58.3937 43.6363 58.6363C44.5123 58.7162 45.404 58.7332 46.273 58.5856C46.5622 58.4964 46.862 58.4521 47.1575 58.3898C47.2975 58.3603 47.4322 58.305 47.5747 58.291C47.7119 58.2775 47.8502 58.3071 47.9881 58.3085C48.1896 58.3096 48.3911 58.3013 48.5926 58.2989C48.7767 58.3237 48.9635 58.3346 49.1451 58.3734C49.3162 58.4099 49.4773 58.4814 49.647 58.5236C50.2893 58.6835 50.0702 58.5845 50.6944 58.7278C50.9545 58.7876 51.2086 58.8696 51.4676 58.9336C51.9313 59.0288 52.3929 59.1237 52.7864 59.3841C52.9667 59.5473 53.2114 59.6315 53.3947 59.7902C53.5146 59.894 53.5912 60.0387 53.7139 60.1396C53.8823 60.2781 54.0829 60.3765 54.2615 60.5029C54.8609 60.9272 54.9152 60.9986 55.4872 61.4902C56.629 62.4515 57.8166 63.3551 59.067 64.1839C59.6099 64.5335 60.2223 64.7593 60.8243 64.9961C61.2624 65.121 61.6334 65.3733 62.0301 65.5776C62.2594 65.6959 62.4995 65.7943 62.7286 65.9128C62.889 65.9958 64.1436 66.7017 64.2574 66.7655C65.2631 67.272 66.2754 67.8362 67.4002 68.0698C67.8593 68.165 67.9942 68.1403 68.437 68.1322C69.2394 68.0169 69.914 67.5625 70.6566 67.2823C70.9898 67.236 71.3011 67.0808 71.6356 67.0419C71.85 67.0168 72.0676 67.043 72.2835 67.0383C73.0998 67.0207 73.1387 66.9808 74.0003 67.0262C74.3481 67.0451 74.6942 67.0864 75.0411 67.1164C77.1528 67.3539 79.2696 67.496 81.392 67.601C82.9059 67.6331 84.4148 67.6668 85.9158 67.4504C86.4919 67.3562 87.0053 67.0847 87.5584 66.923C88.1712 66.7439 88.1186 66.7704 88.7624 66.6481C90.2819 66.4782 91.7836 66.7709 93.2818 66.9662C94.3825 67.1097 95.3298 67.2144 96.4362 67.3419C98.3315 67.4399 100.199 67.7398 102.062 68.0637L101.993 68.1269C99.964 68.0821 97.9273 68.0756 95.9125 67.8145C93.9521 67.585 92.0094 67.3146 90.0335 67.2422C89.6655 67.2287 89.297 67.2025 88.929 67.2164C88.6404 67.2285 88.3557 67.2834 88.069 67.317C87.7372 67.3904 87.1964 67.4983 86.8671 67.6132C86.297 67.8122 85.7698 68.1371 85.1461 68.1819C83.6742 68.3591 82.1878 68.3422 80.7103 68.2252C78.5865 68.1344 76.4675 67.9521 74.3533 67.7421C72.8993 67.6413 71.3844 67.4343 69.9877 67.9504C69.2416 68.2702 68.5355 68.7189 67.7056 68.8074C67.265 68.805 67.1002 68.8255 66.6468 68.7249C65.5275 68.4765 64.5282 67.8807 63.5264 67.3725C63.0572 67.1238 62.4439 66.8038 61.977 66.5382C61.7613 66.4155 61.5583 66.272 61.3367 66.1592C60.9343 65.9544 60.4803 65.8461 60.0824 65.6306C59.4657 65.4101 58.8603 65.1609 58.3221 64.7914C57.0756 63.9581 55.9254 63.0084 54.7702 62.0649C54.0966 61.5697 54.1308 61.6101 53.5167 61.1033C53.3533 60.9685 53.2115 60.8078 53.0327 60.6922C52.8858 60.5974 52.704 60.5625 52.55 60.4784C52.3376 60.3624 52.1729 60.1757 51.9417 60.0862C51.52 59.9024 51.0954 59.7545 50.6409 59.657C50.3801 59.5879 50.1145 59.5359 49.855 59.4626C49.4328 59.3434 49.3525 59.2656 48.9066 59.1773C48.7163 59.1396 48.5206 59.1318 48.3288 59.1016C48.1556 59.0744 47.9843 59.0371 47.812 59.005C47.6589 58.9695 47.5099 58.907 47.3526 58.8986C47.1932 58.889 47.0361 58.9402 46.8771 58.9543C46.77 58.9651 46.6613 58.9536 46.5549 58.9685C46.2407 59.0123 45.9464 59.1425 45.6345 59.1962C44.7108 59.3754 43.8941 59.3367 42.9554 59.2536C42.7004 59.2585 42.4454 59.2644 42.1904 59.2684C41.9891 59.2277 41.7921 59.1535 41.5864 59.1463C41.3435 59.1367 41.1046 59.2187 40.8616 59.2222C40.7151 59.2246 40.5713 59.1417 40.4264 59.1631C40.0626 59.2169 39.749 59.4659 39.3675 59.4628C38.6085 59.6425 37.8854 59.9195 37.1494 60.1683C36.3949 60.356 35.6286 60.4756 34.8451 60.434C34.1565 60.4182 33.467 60.3983 32.7804 60.3453C32.2684 60.3249 31.751 60.3226 31.2488 60.2135C30.4805 60.0276 29.7453 59.7402 29.0142 59.4513C28.4483 59.2179 27.8852 58.9787 27.3114 58.7638C26.4767 58.4229 25.6369 58.0826 24.7449 57.901C23.6851 57.6934 22.6106 57.5712 21.5264 57.5977C20.8017 57.6061 20.0852 57.5035 19.3617 57.4764C18.5623 57.476 17.7687 57.5359 16.9868 57.7059C15.9991 57.9182 15.0206 58.1707 14.0216 58.3332C13.519 58.4381 13.0115 58.5445 12.537 58.7411C12.3848 58.8042 12.0062 59.0927 12.0946 58.9588C12.2525 58.7194 12.5412 58.5866 12.7629 58.3988C12.8914 58.29 12.5037 58.6143 12.3741 58.722C11.7548 59.4701 11.278 60.2972 11.0103 61.221L9.77664 62.0019L9.77653 62.0044Z" fill="#722A33"/>
<path opacity="0.309267" d="M118.358 60.9463C118.169 60.9823 117.983 61.0405 117.791 61.0543C117.611 61.067 117.432 61.0332 117.252 61.0246C117.022 61.0125 116.791 61.0082 116.561 60.9957C115.696 60.9488 114.831 60.9098 113.966 60.8614C112.179 60.8097 110.4 60.6467 108.616 60.5564C107.562 60.5265 106.498 60.4428 105.446 60.5571C104.809 60.6264 104.521 60.7101 103.896 60.851C102.323 61.1939 100.699 61.2297 99.0922 61.2502C98.8111 61.2382 98.1619 61.2264 97.8673 61.1725C97.6012 61.1238 97.171 60.955 96.9195 60.8633L96.9893 60.8C97.9564 60.723 98.915 60.5803 99.8834 60.5126C100.427 60.4767 100.971 60.4538 101.513 60.4089C102.339 60.3406 103.159 60.2169 103.984 60.1388C104.219 60.1166 104.456 60.1087 104.692 60.0936C106.16 60.0532 107.626 59.9878 109.092 60.1213C110.847 60.2314 112.595 60.41 114.35 60.5086C115.248 60.5254 116.15 60.5218 117.047 60.551C117.05 60.5511 118.153 60.6148 118.245 60.6418C118.345 60.6711 118.414 60.7606 118.499 60.8199L118.358 60.9464L118.358 60.9463Z" fill="#722A33"/>
<path opacity="0.309267" d="M87.7961 33.8173C86.336 33.6623 84.8749 33.5164 83.4139 33.3661C81.855 33.1982 80.2857 33.1807 78.7207 33.1036C77.2448 32.9851 75.7666 32.9414 74.2863 32.9243C72.8427 32.8588 71.3693 32.8699 69.9684 32.4972C69.3639 32.3001 68.8342 31.9454 68.2529 31.7022C68.0444 31.615 67.821 31.5628 67.6122 31.4761C67.4872 31.4244 66.6459 31.0004 66.5161 30.9354C65.607 30.4268 64.6857 29.9439 63.7158 29.5494C62.8337 29.1961 61.8998 28.9953 60.9669 28.8097C60.1752 28.6683 59.385 28.5237 58.5834 28.4444C57.9529 28.3799 57.3229 28.3866 56.6957 28.4699C56.2614 28.5597 55.8245 28.6086 55.3806 28.5867C55.0767 28.5687 54.7729 28.5569 54.4685 28.5492C54.2964 28.5152 54.3463 28.5649 54.3405 28.3827L54.7641 27.992C55.1263 27.8303 54.9608 27.866 55.2459 27.8351C55.5421 27.8459 55.8392 27.8598 56.1326 27.9009C56.5488 27.9337 56.9548 27.9093 57.3662 27.8347C57.9969 27.7674 58.6312 27.7514 59.2623 27.8298C60.0625 27.9145 60.8579 28.0324 61.6418 28.2104C62.5831 28.3931 63.5273 28.5891 64.4127 28.9553C65.3848 29.3569 66.3019 29.8502 67.2278 30.3399C67.3646 30.4136 68.1557 30.8371 68.28 30.9175C68.4485 31.0266 68.5917 31.1688 68.7612 31.2763C69.2834 31.6072 69.8765 31.8374 70.4458 32.0798C70.6231 32.1304 70.797 32.193 70.9775 32.2314C72.2735 32.5067 73.6145 32.3038 74.9252 32.3348C76.4051 32.3493 77.8843 32.4023 79.3595 32.5198C80.9451 32.6253 82.5366 32.6009 84.1217 32.7236C85.5622 32.8341 86.9961 33.0007 88.4146 33.268L87.7961 33.817V33.8173Z" fill="#722A33"/>
<path opacity="0.309267" d="M82.5128 11.62C81.3084 11.5749 80.1258 11.76 78.9531 12C77.5267 12.3249 76.2944 13.0674 75.1057 13.8545C74.2578 14.4397 73.4504 15.0752 72.6111 15.6712C72.004 16.1408 71.3242 16.4801 70.5908 16.7277C69.8023 16.9884 68.9824 17.1515 68.168 17.3218C67.1956 17.5317 66.1975 17.5775 65.204 17.5849C64.286 17.5922 63.4179 17.331 62.5625 17.0433C61.8024 16.7687 61.0426 16.4944 60.2911 16.199C59.7575 15.9857 59.2453 15.7376 58.7042 15.5398C58.2848 15.2568 57.7932 15.2803 57.3056 15.3279C56.9983 15.3473 56.6904 15.3471 56.3827 15.3483C56.2913 15.3487 56.1949 15.3787 56.1084 15.3507C56.0455 15.3302 56.0157 15.2594 55.9694 15.2138L56.3333 14.8772C56.4789 14.831 56.6198 14.7678 56.7702 14.7386C56.8589 14.7213 56.9511 14.7393 57.0416 14.7393C57.332 14.7392 57.6238 14.7345 57.9123 14.7723C58.3948 14.8875 58.8851 14.9462 59.3835 14.9528C59.9447 15.1201 60.4748 15.3692 61.019 15.58C61.7332 15.8977 62.4269 16.2564 63.1657 16.5225C64.0143 16.8055 64.8859 17.012 65.7886 17.0463C66.7391 17.0799 67.6926 17.0052 68.633 16.8733C69.5236 16.6878 70.3663 16.3812 71.226 16.0975C71.9421 15.8338 72.6152 15.4999 73.2151 15.0366C74.048 14.4443 74.8496 13.8129 75.6964 13.2383C76.9222 12.4345 78.2003 11.6725 79.6586 11.3205C80.8185 11.0929 82.0014 10.878 83.1904 10.9993L82.5128 11.6202V11.62Z" fill="#722A33"/>
<path opacity="0.309267" d="M117.708 38.873C116.873 38.9117 116.146 39.2189 115.432 39.607C114.798 39.9853 114.214 40.434 113.613 40.8575C112.796 41.3845 111.87 41.7222 110.989 42.1338C110.157 42.5524 109.377 43.0514 108.547 43.4738C107.799 43.8495 107.023 44.1606 106.209 44.3753C105.333 44.5329 104.45 44.6464 103.572 44.7883C102.526 44.9731 101.478 45.1987 100.409 45.2143C100.177 45.218 99.9459 45.1963 99.7145 45.1871C98.5176 45.0707 97.3308 45.0604 96.1407 45.2297C95.0209 45.4868 93.9128 45.7715 92.7815 45.9858C91.5195 46.2012 90.2414 46.3119 88.9666 46.4322C87.9628 46.5093 86.9552 46.5359 85.9485 46.5497C84.8604 46.5781 83.7715 46.5165 82.6865 46.4432C81.4666 46.3594 80.263 46.1651 79.0642 45.9434C78.1333 45.7371 77.173 45.6721 76.2221 45.6005C74.8769 45.4457 73.5561 45.1611 72.2429 44.8494C70.7723 44.5093 69.338 44.0463 67.8946 43.6162C66.5019 43.2013 65.097 42.8244 63.709 42.3953C62.5345 42.0523 61.3445 41.7362 60.1273 41.5709C58.8324 41.4238 57.5503 41.2115 56.2737 40.9611C56.1075 40.919 55.9412 40.8768 55.775 40.8347L56.237 40.421C56.436 40.4345 56.6349 40.4479 56.8339 40.4614C58.1193 40.6476 59.3886 40.921 60.6797 41.0754C61.4854 41.197 61.0717 41.1442 61.9211 41.231C62.7641 41.3553 63.5901 41.5871 64.4179 41.7764C65.8425 42.1303 67.2447 42.5623 68.6587 42.9524C70.091 43.3949 71.5146 43.8665 72.9811 44.1992C74.2877 44.5011 75.6028 44.792 76.9381 44.9498C77.909 45.034 78.8823 45.0799 79.8437 45.2478C81.052 45.4338 82.2632 45.6109 83.4822 45.7199C84.546 45.8183 85.6129 45.8762 86.6822 45.8702C87.6766 45.8629 88.6721 45.8654 89.6634 45.7766C90.934 45.6797 92.2017 45.5479 93.4579 45.3375C93.991 45.2512 94.2639 45.2156 94.784 45.0991C95.4476 44.9504 96.0909 44.7196 96.7693 44.6315C97.9725 44.4655 99.1814 44.4634 100.392 44.5645C100.847 44.5729 101.301 44.6056 101.755 44.5871C102.524 44.5555 103.291 44.434 104.052 44.3301C104.941 44.1816 105.825 44.0118 106.718 43.8811C107.512 43.7123 108.255 43.4089 108.971 43.0414C109.825 42.5956 110.613 42.0456 111.486 41.6312C112.369 41.2219 113.295 40.8795 114.105 40.341C114.703 39.9197 115.284 39.4738 115.921 39.1065C116.645 38.7255 117.384 38.4315 118.222 38.3898L117.708 38.8732V38.873Z" fill="#722A33"/>
<path d="M102.634 43.0228C108.095 46.3867 105.489 56.4294 98.6471 58.1142C87.8361 60.7763 76.3267 54.7961 77.3118 48.961C79.3234 37.0465 95.9322 38.8939 102.634 43.0228Z" fill="#9D2676"/>
<path d="M100.48 41.9241C104.768 57.8819 85.7237 54.8471 80.3219 54.777C84.1344 58.3948 96.5163 60.5664 101.004 57.2527C111.485 49.5123 103.828 42.7671 100.48 41.9241Z" fill="#872067"/>
<path d="M85.7907 46.3855C84.0317 46.3855 82.6056 45.263 82.6056 43.8784C82.6056 42.4938 84.0317 41.3713 85.7907 41.3713C87.5498 41.3713 88.9758 42.4938 88.9758 43.8784C88.9758 45.263 87.5498 46.3855 85.7907 46.3855Z" fill="#BF71A5"/>
<path d="M79.6504 56.1181C82.1346 57.5953 80.9492 62.0053 77.8365 62.7451C72.9184 63.9141 67.6826 61.2881 68.1308 58.7257C69.0459 53.4938 76.6015 54.305 79.6504 56.1181Z" fill="#9D2676"/>
<path d="M78.6702 55.6357C80.6207 62.6432 71.9573 61.3105 69.4999 61.2797C71.2343 62.8683 76.867 63.822 78.9083 62.3669C83.6767 58.9679 80.1932 56.0059 78.6702 55.6357Z" fill="#872067"/>
<path d="M71.9881 58.0542C71.1878 58.0542 70.5392 57.5314 70.5392 56.8866C70.5392 56.2417 71.1878 55.7189 71.9881 55.7189C72.7883 55.7189 73.437 56.2417 73.437 56.8866C73.437 57.5314 72.7883 58.0542 71.9881 58.0542Z" fill="#BF71A5"/>
<path opacity="0.309267" d="M48.2688 91.3536C49.1999 91.1139 50.1604 91.1623 51.1108 91.1109C52.1982 91.0494 53.284 90.9674 54.3715 90.9132C55.4859 90.8866 56.5847 91.049 57.6708 91.2675C58.664 91.4867 59.6414 91.7797 60.6593 91.8723C61.5214 91.9357 62.386 91.9137 63.25 91.9029C64.4113 91.8848 65.5242 91.5663 66.6596 91.3856C67.3576 91.1705 68.0768 91.088 68.7991 90.9994C69.0039 90.9743 69.2049 90.914 69.4113 90.909C69.5945 90.9042 69.7752 90.9507 69.9571 90.9718C70.5359 90.9493 70.7856 90.9135 71.349 90.9856C71.5438 91.0104 71.7306 91.0837 71.9265 91.0995C72.159 91.1186 72.3932 91.0848 72.6265 91.0887C73.0017 91.0984 73.3755 91.1359 73.7502 91.1545C74.2342 91.1983 74.7098 91.1915 75.1914 91.2554L74.5823 91.8142C74.0644 91.8372 73.5597 91.802 73.0414 91.8021C72.9908 91.7997 71.9295 91.7498 71.9035 91.7473C71.705 91.7272 71.5117 91.6666 71.3124 91.6569C71.069 91.6447 70.8255 91.6851 70.5819 91.6829C70.0963 91.6781 69.791 91.6268 69.3136 91.5672C69.0802 91.5977 68.8469 91.6284 68.6135 91.659C68.4358 91.6675 68.2572 91.6615 68.0804 91.6795C67.3559 91.7556 66.646 91.9583 65.9318 92.0877C64.7726 92.412 63.5722 92.6258 62.3684 92.7217C61.4911 92.7751 60.6103 92.7824 59.7343 92.7037C58.7137 92.5522 57.698 92.3844 56.6994 92.1265C55.6238 91.9137 54.533 91.7288 53.4295 91.7875C52.366 91.8054 51.3055 91.8577 50.2433 91.9191C49.2242 91.9719 48.1977 92.1243 47.2145 92.3881L48.2688 91.351V91.3536Z" fill="#722A33"/>
<path opacity="0.309267" d="M76.1842 102.384C75.83 101.962 75.3856 101.627 74.9571 101.278C74.8202 101.167 74.6954 101.041 74.5504 100.94C74.2651 100.74 74.0671 100.675 73.7515 100.543C73.6504 100.494 73.5555 100.432 73.4482 100.396C72.9527 100.234 72.036 100.294 71.5095 100.309C70.5296 100.379 69.5552 100.247 68.5796 100.192C67.811 100.133 67.0459 100.224 66.2803 100.26C65.3549 100.381 64.4281 100.491 63.5045 100.625C62.6727 100.796 61.8573 101.019 61.015 101.14C60.8807 101.152 60.7469 101.173 60.6121 101.174C60.4902 101.175 60.3693 101.152 60.2475 101.148C59.6304 101.124 59.009 101.129 58.3915 101.123C57.5405 101.113 56.6984 101.073 55.8534 101.184C54.9406 101.248 54.0176 101.218 53.1516 100.92L53.5091 100.586C53.767 100.522 54.0192 100.431 54.2829 100.394C54.4544 100.37 54.6295 100.402 54.8028 100.406C55.4325 100.421 56.0628 100.445 56.6921 100.404C57.4823 100.47 58.2788 100.426 59.069 100.503C60.0331 100.559 60.8912 100.589 61.8395 100.353C62.7031 100.192 63.5363 99.9191 64.4028 99.7707C65.2982 99.6407 66.1976 99.5235 67.1032 99.4848C67.9112 99.3683 68.7251 99.2478 69.5451 99.3092C70.5451 99.3412 71.5467 99.3386 72.5472 99.3469C73.3784 99.331 74.0391 99.2206 74.7222 99.7598C75.3336 100.541 75.8562 101.383 76.4747 102.161L76.1842 102.386V102.384Z" fill="#4F1D23"/>
<path opacity="0.309267" d="M76.1765 102.467C75.9302 102.096 75.533 101.862 75.2563 101.514C75.0411 101.244 74.8755 100.941 74.6787 100.658L74.7519 100.598C74.9327 100.657 75.7498 100.914 75.9104 100.988C76.3468 101.189 76.6526 101.536 77.0648 101.769L76.1765 102.467L76.1765 102.467Z" fill="#4F1D23"/>
<path opacity="0.309267" d="M12.619 58.3159C12.5027 58.3871 12.3877 58.4603 12.27 58.5296C12.1718 58.5875 11.3686 59.0408 11.312 59.0764C11.1259 59.1936 10.6098 59.5972 10.7686 59.4481C11.0062 59.225 11.2538 58.9986 11.5501 58.8528C11.7418 58.7585 11.2448 59.1435 11.0921 59.2889C10.2855 60.0774 10.6927 59.6737 9.87116 60.5003L9.74224 60.5776C9.54622 60.3008 9.58792 60.4621 9.69733 60.0803C10.8345 58.8719 12.2624 57.9971 13.7107 57.1743L12.619 58.316L12.619 58.3159Z" fill="#4F1D23"/>
<path opacity="0.309267" d="M11.3015 58.568C10.8226 58.989 10.5675 59.5973 10.1378 60.0514C8.4226 61.8638 9.65104 60.2727 8.74513 61.4964L8.66336 61.5452C8.73309 61.4077 8.80289 61.2702 8.87265 61.1328C8.77595 61.0782 8.56931 61.0756 8.58266 60.9691C8.61096 60.7437 8.83299 60.5828 8.96537 60.3941C9.34493 59.8531 9.30947 59.9163 9.7101 59.4669L11.3015 58.5681V58.568Z" fill="#4F1D23"/>
<path opacity="0.309267" d="M128.416 109.534C129.185 108.632 130.161 107.929 131.14 107.247C131.919 106.718 132.679 106.164 133.505 105.702C134.118 105.392 134.797 105.227 135.463 105.053C136.179 104.866 136.914 104.835 137.651 104.819C138.166 104.816 138.681 104.802 139.194 104.848C139.725 104.941 140.258 105.014 140.792 105.085C141.216 105.195 141.006 105.135 141.422 105.266L141.306 105.373C140.629 105.493 140.962 105.443 140.31 105.525C139.711 105.517 139.114 105.466 138.515 105.472C137.974 105.488 137.433 105.497 136.894 105.527C136.141 105.584 135.383 105.661 134.652 105.846C133.975 106.035 133.293 106.23 132.673 106.556C131.969 106.94 131.29 107.367 130.616 107.797C130.488 107.885 130.369 107.987 130.231 108.061C130.165 108.096 130.459 107.869 130.398 107.913C129.883 108.284 129.433 108.726 129.013 109.191L128.416 109.534H128.416Z" fill="#4F1D23"/>
<path opacity="0.309267" d="M131.445 108.591C131.98 107.641 132.936 107.004 133.814 106.369C133.892 106.367 133.97 106.364 134.048 106.361L133.982 106.428C133.767 106.574 133.552 106.72 133.337 106.866C133.381 106.818 133.524 106.684 133.47 106.722C132.842 107.162 132.346 107.76 131.866 108.337L131.445 108.59L131.445 108.591Z" fill="#4F1D23"/>
<path opacity="0.309267" d="M121.589 99.9962C120.65 100.027 119.71 100.025 118.772 100.066C117.821 100.082 116.907 100.31 116.016 100.604C115.987 100.548 115.115 101.02 115.44 100.835L115.238 100.95C115.695 100.516 116.102 100.043 116.748 99.8807C117.638 99.6008 118.555 99.409 119.496 99.3905C120.44 99.35 121.385 99.349 122.329 99.3071L121.589 99.9964V99.9962Z" fill="#4F1D23"/>
<path opacity="0.309267" d="M94.0247 86.9454C93.8901 88.0567 93.8612 89.1762 93.8097 90.2929C93.6666 91.3291 93.8883 92.4123 93.6529 93.4395C93.5974 93.6815 93.4935 93.911 93.4138 94.1468L93.027 94.4052C92.9539 94.2713 92.8477 94.1496 92.8078 94.0036C92.7544 93.8076 92.7575 93.6008 92.7523 93.3984C92.731 92.5872 92.8359 91.7736 92.8058 90.962C92.8193 89.8487 92.8154 88.7305 92.9796 87.6257L94.0246 86.9454H94.0247Z" fill="#4F1D23"/>
<path opacity="0.309267" d="M92.7117 87.5759C92.7818 88.6931 92.5516 89.78 92.3214 90.8678L91.9812 91.0958C91.9015 90.8258 91.8055 90.5597 91.7419 90.2858C91.5915 89.6383 91.5762 88.9867 91.5909 88.3273L92.7117 87.5759Z" fill="#4F1D23"/>
<path opacity="0.309267" d="M91.2056 88.666C91.1871 89.2501 91.2697 90.1048 91.1453 90.6547C91.0609 91.0274 90.8919 91.3781 90.7653 91.7398L90.5076 91.911C90.4045 91.7025 90.2481 91.5112 90.1983 91.2856C90.1423 91.032 90.1947 90.7672 90.1977 90.5081C90.2073 89.7752 90.2049 89.9234 90.2713 89.2874L91.2057 88.666H91.2056Z" fill="#4F1D23"/>
<path opacity="0.309267" d="M89.6528 90.147C89.4982 91.1769 89.6401 90.5951 89.1094 91.8626L89.0303 91.9152C88.5334 91.2458 88.6614 91.6104 88.6127 90.8328L89.6528 90.147L89.6528 90.147Z" fill="#4F1D23"/>
<path opacity="0.309267" d="M50.734 73.8584C50.6272 74.1533 50.7065 74.4922 50.5945 74.7855C50.5566 74.8845 49.9139 76.0121 49.8453 76.1332L49.7299 76.2089C49.6692 76.1577 49.2036 75.777 49.182 75.7112C49.1812 75.7088 49.2448 74.8747 49.248 74.8328L50.734 73.8585L50.734 73.8584Z" fill="#4F1D23"/>
<path opacity="0.309267" d="M49.0878 73.032C49.1504 73.582 49.1978 74.1873 49.0443 74.7293C48.9593 75.0297 48.7919 75.3034 48.6814 75.5962C48.5979 75.8172 48.5357 76.0449 48.4628 76.2693L48.3223 76.3623C48.2756 76.2172 48.2497 76.0645 48.1821 75.9271C48.106 75.7724 47.9443 75.6581 47.895 75.4939C47.756 75.0319 47.901 74.2979 47.9235 73.8125L49.0878 73.0321L49.0878 73.032Z" fill="#4F1D23"/>
<path opacity="0.309267" d="M47.7452 73.0077C47.7477 73.493 47.8439 73.9936 47.6706 74.4677C47.1376 75.9256 47.2887 74.7132 47.2136 75.7485L47.0379 75.8662C46.971 74.8285 47.1708 76.0074 46.5874 75.1939C46.3584 74.8746 46.5418 74.2029 46.5127 73.834L47.7453 73.0077H47.7452Z" fill="#4F1D23"/>
<path d="M112.223 53.5663C115.869 55.8872 114.129 62.8158 109.562 63.9782C102.345 65.8148 94.6623 61.689 95.3199 57.6632C96.6626 49.4431 107.749 50.7176 112.223 53.5663Z" fill="#9D2676"/>
<path d="M110.786 52.8085C113.648 63.8182 100.935 61.7244 97.3294 61.676C99.8744 64.172 108.14 65.6702 111.135 63.3841C118.132 58.0438 113.02 53.3901 110.786 52.8085Z" fill="#872067"/>
<path d="M100.98 55.8869C99.8062 55.8869 98.8543 55.2271 98.8543 54.4132C98.8543 53.5993 99.8062 52.9395 100.98 52.9395C102.155 52.9395 103.107 53.5993 103.107 54.4132C103.107 55.2271 102.155 55.8869 100.98 55.8869Z" fill="#BF71A5"/>
<defs>
<filter id="filter0_f_100_579" x="11.8335" y="2.76634" width="131.379" height="102.064" filterUnits="userSpaceOnUse" color-interpolation-filters="sRGB">
<feFlood flood-opacity="0" result="BackgroundImageFix"/>
<feBlend mode="normal" in="SourceGraphic" in2="BackgroundImageFix" result="shape"/>
<feGaussianBlur stdDeviation="0.340218" result="effect1_foregroundBlur_100_579"/>
</filter>
</defs>
</svg>
