<svg width="103" height="62" viewBox="0 0 103 62" fill="none" xmlns="http://www.w3.org/2000/svg">
<g opacity="0.4" clip-path="url(#clip0_100_702)">
<path d="M38.6383 54.232C38.4439 54.0972 38.2091 54.0335 37.9733 54.0514H36.9886V55.4647H37.9733C38.2085 55.4842 38.4432 55.4222 38.6383 55.2894C38.7117 55.2257 38.7698 55.1462 38.8082 55.0569C38.8466 54.9675 38.8643 54.8707 38.8599 54.7736C38.8701 54.672 38.8551 54.5696 38.8165 54.4751C38.7778 54.3807 38.7167 54.2972 38.6383 54.232Z" fill="#DFDCD3"/>
<path d="M59.4545 54.3661L58.6606 56.2539H60.2639L59.4648 54.3661H59.4545Z" fill="#DFDCD3"/>
<path d="M67.3831 39.1549L65.4036 43.8849H69.4194L67.4244 39.1549H67.3831Z" fill="#DFDCD3"/>
<path d="M98.7674 35.5077C98.8189 35.322 98.8705 35.1363 98.9169 34.9455C99.6498 34.7377 100.289 34.2844 100.728 33.6614C101.167 33.0385 101.379 32.2836 101.328 31.5231C101.277 30.7625 100.967 30.0425 100.45 29.4834C99.9318 28.9243 99.2379 28.56 98.4838 28.4515C97.2209 25.5733 94.5196 23.5513 91.3028 22.659C90.506 22.4381 89.6805 22.339 88.8541 22.365C90.246 21.5551 91.3492 20.4204 91.5812 19.4197C91.7874 18.5222 91.2358 17.9703 90.2357 17.8723C90.4393 17.5234 90.526 17.1186 90.4831 16.7169C90.2769 15.5615 88.3799 15.5254 86.2353 16.6395C84.6424 17.47 83.364 18.7027 82.9052 19.7343C82.6983 19.7076 82.49 19.6938 82.2814 19.6931C79.642 19.6931 76.6108 22.138 76.5798 24.4695C76.5798 26.3986 78.6419 27.6314 80.8225 28.0131C80.6074 28.4645 80.4181 28.9277 80.2554 29.4006H75.8169C72.1722 23.6081 68.7338 15.6646 68.0379 14.0244C70.3577 15.1385 71.7547 15.8761 73.3631 15.3758C76.9716 14.2462 78.3944 9.75348 77.7655 9.36147C74.1879 7.13834 71.8062 7.73668 69.9607 8.25248C70.4927 7.77266 70.959 7.2246 71.3474 6.62253C71.9594 5.66408 72.3471 4.57969 72.4816 3.45032C72.5066 3.26138 72.4698 3.06941 72.3767 2.90314C72.2835 2.73688 72.1391 2.60528 71.965 2.52803C71.7908 2.45078 71.5964 2.43206 71.4107 2.47465C71.225 2.51724 71.0581 2.61886 70.935 2.7643L70.8989 2.80556C70.3355 3.47629 69.7088 4.09122 69.0276 4.64183C68.4205 5.12225 67.7445 5.50829 67.0223 5.78692C66.3104 6.05338 65.5671 6.22675 64.8108 6.30273C64.1834 6.35806 63.5532 6.37184 62.924 6.344C61.8287 5.99498 60.7008 5.75821 59.5577 5.63734C58.5624 5.51538 57.5577 5.48947 56.5575 5.55997C55.8936 5.38158 55.2397 5.16808 54.5985 4.92037C53.9581 4.67362 53.3517 4.34601 52.7942 3.94549C52.2216 3.51946 51.7023 3.02588 51.2477 2.47544C50.7322 1.88742 50.2734 1.19108 49.7012 0.412215L49.6651 0.360635C49.5588 0.214524 49.4115 0.103268 49.242 0.0409603C49.0724 -0.0213475 48.8882 -0.0319041 48.7127 0.0106277C48.5371 0.0531595 48.3782 0.146866 48.2559 0.279878C48.1336 0.412889 48.0535 0.579222 48.0258 0.757806C47.8547 1.84418 47.9503 2.95587 48.3042 3.99707C48.6124 4.91029 49.1035 5.751 49.7476 6.46779C48.3265 5.91701 46.8122 5.64724 45.2884 5.67345C44.6698 5.67345 41.8861 5.91072 41.2623 6.5039C40.9014 6.84949 41.3551 10.8006 43.2573 12.3067C46.0978 14.5556 50.0672 12.121 50.2373 12.0179C50.2012 12.1365 48.9228 15.9535 48.3196 18.5222C47.8184 20.4851 47.67 22.5216 47.8814 24.5365C47.9381 24.7686 48 24.9956 48.0773 25.2225C48.199 25.6235 48.3542 26.0134 48.5413 26.3883C48.6867 26.7183 48.8591 27.0357 49.0568 27.3373C49.8964 28.6474 51.1158 29.6696 52.552 30.2671C54.0745 30.8096 55.6928 31.0308 57.305 30.917C58.1352 30.8887 58.9606 30.7781 59.7691 30.5869C60.5753 30.4038 61.3524 30.1105 62.0786 29.7152C62.167 29.6706 62.2689 29.6607 62.3643 29.6874C62.4597 29.7141 62.5417 29.7755 62.5941 29.8596C62.6249 29.9129 62.6409 29.9735 62.6405 30.035C62.6413 30.0919 62.6286 30.1482 62.6035 30.1993C62.5785 30.2504 62.5417 30.2949 62.4961 30.329C61.0012 31.3872 59.26 32.0443 57.439 32.2375C56.7868 32.3312 56.1286 32.3777 55.4697 32.3768C55.2171 32.3768 54.9542 32.3768 54.7119 32.3768C53.7707 32.3449 52.8379 32.187 51.9385 31.9074C50.5738 31.4181 49.3393 30.6223 48.3299 29.5811C48.2887 29.5347 48.2423 29.4934 48.2062 29.447H39.6591C39.4295 29.0135 39.2563 28.5524 39.1436 28.0749C39.9915 27.7042 40.7391 27.1366 41.3242 26.4192C43.0045 24.8802 44.198 22.8827 44.7575 20.6731C44.7575 20.6319 44.7575 20.5957 44.7575 20.5545L44.7884 20.3946C44.8256 20.1661 44.8446 19.9349 44.8451 19.7034C44.8471 19.3744 44.816 19.0461 44.7523 18.7234L45.6802 17.2739C45.6914 17.2585 45.6975 17.24 45.6978 17.2209C45.6981 17.2019 45.6925 17.1832 45.6818 17.1674C45.6711 17.1516 45.6558 17.1395 45.638 17.1327C45.6202 17.126 45.6007 17.1248 45.5823 17.1295L44.2007 17.372C43.5409 16.4022 42.4016 15.8761 40.9118 15.8761C39.2673 15.8761 38.1228 17.341 36.963 18.9091C36.3443 18.8575 35.7309 18.842 35.1484 18.842C31.911 18.842 30.2252 18.9916 30.2252 22.2257C30.2252 24.8357 32.411 27.3167 34.9525 28.1833C35.0561 28.6063 35.1887 29.0216 35.3494 29.4264H24.1886C26.1012 27.7107 27.5243 25.5177 28.3127 23.0716C28.5756 22.2927 28.4158 21.9936 27.6322 21.6067C24.9774 20.2966 19.9924 19.2443 15.6312 21.127C15.492 21.1838 15.3579 21.256 15.2239 21.323C14.6414 21.1838 13.4609 21.0961 11.0998 21.4417C9.71312 21.6635 8.28516 22.1793 7.81604 22.8911C7.45519 23.4069 7.7748 23.7009 8.33155 24.1342L10.4606 25.7125C9.4546 27.135 8.56995 28.6396 7.81604 30.2104C5.56067 30.4887 3.40441 31.3022 1.52683 32.5831C1.44846 32.6419 1.38751 32.7209 1.35048 32.8116C1.31344 32.9023 1.3017 33.0014 1.31652 33.0983C1.33133 33.1952 1.37214 33.2862 1.4346 33.3617C1.49706 33.4372 1.57882 33.4944 1.67117 33.527L4.38275 34.44C1.61437 37.382 0.0760692 41.2724 0.0834001 45.3132V46.1127C0.0834001 50.3262 1.75622 54.3671 4.73387 57.3464C7.71151 60.3258 11.7501 61.9996 15.9611 61.9996H86.988C91.0103 61.9996 94.8679 60.4008 97.7122 57.5549C100.556 54.709 102.154 50.8492 102.154 46.8245V45.3132C102.158 41.7569 100.965 38.303 98.7674 35.5077ZM55.0522 18.3468C54.9996 18.3674 54.9437 18.3779 54.8872 18.3778C54.793 18.3784 54.7016 18.3455 54.6295 18.2849C54.0465 17.7776 53.3313 17.4466 52.5674 17.3307C52.2127 17.2682 51.8499 17.2682 51.4952 17.3307C51.1582 17.394 50.8467 17.5534 50.5982 17.7898C50.5228 17.8647 50.4209 17.9068 50.3146 17.9068C50.2084 17.9068 50.1065 17.8647 50.0311 17.7898C49.9802 17.7366 49.9451 17.6704 49.9296 17.5984C49.9141 17.5265 49.9189 17.4516 49.9435 17.3823C50.0523 17.1141 50.2172 16.8723 50.427 16.673C50.6368 16.4738 50.8868 16.3217 51.1601 16.2269C51.6653 16.032 52.2128 15.9733 52.7479 16.0566C53.2725 16.1357 53.7727 16.3313 54.2119 16.6292C54.6621 16.9153 55.0201 17.3255 55.2429 17.8104C55.2656 17.8581 55.2787 17.9099 55.2814 17.9627C55.2841 18.0155 55.2764 18.0683 55.2587 18.1182C55.241 18.168 55.2136 18.2138 55.1782 18.2531C55.1427 18.2923 55.0999 18.3242 55.0522 18.3468ZM42.1644 17.4596C42.3122 17.4433 42.4615 17.4711 42.5935 17.5396C42.7255 17.6081 42.8342 17.7141 42.906 17.8444C42.9779 17.9746 43.0095 18.1233 42.997 18.2715C42.9845 18.4197 42.9284 18.5609 42.8358 18.6773C42.7432 18.7936 42.6182 18.88 42.4766 18.9253C42.3351 18.9707 42.1832 18.9731 42.0403 18.9323C41.8973 18.8914 41.7697 18.8091 41.6734 18.6957C41.5772 18.5824 41.5166 18.443 41.4994 18.2952C41.4777 18.0956 41.5361 17.8954 41.6618 17.7387C41.7874 17.5821 41.9701 17.4817 42.1696 17.4596H42.1644ZM62.5631 20.2553C62.4908 20.2509 62.421 20.227 62.3611 20.1861C62.3012 20.1453 62.2534 20.089 62.2229 20.0232C62.0812 19.7105 61.8543 19.4442 61.5682 19.2546C61.269 19.0562 60.9376 18.9113 60.5888 18.8265C59.8469 18.6398 59.0673 18.6685 58.3411 18.9091C58.2537 18.9406 58.158 18.9408 58.0704 18.9096C57.9828 18.8785 57.9086 18.8179 57.8606 18.7383C57.8126 18.6586 57.7937 18.5648 57.807 18.4727C57.8204 18.3806 57.8652 18.2961 57.9339 18.2333C58.3219 17.8761 58.8024 17.6348 59.3206 17.537C59.8338 17.4421 60.3614 17.4597 60.8671 17.5886C61.3933 17.7213 61.8763 17.9878 62.2693 18.3623C62.4846 18.558 62.656 18.797 62.7724 19.0637C62.8888 19.3304 62.9475 19.6187 62.9446 19.9097C62.9316 20.002 62.887 20.087 62.8184 20.15C62.7497 20.213 62.6613 20.2502 62.5683 20.2553H62.5631ZM36.8495 28.5082C37.1395 28.5081 37.429 28.4856 37.7156 28.4412C37.8057 28.7765 37.9176 29.1056 38.0507 29.4264H37.0197C36.8525 29.1298 36.716 28.817 36.6124 28.4928L36.8495 28.5082ZM23.0545 22.7879C23.0838 22.6241 23.161 22.4726 23.2764 22.3527C23.3918 22.2328 23.5402 22.1498 23.7027 22.1144C23.8653 22.0789 24.0347 22.0926 24.1895 22.1536C24.3443 22.2145 24.4775 22.3201 24.5723 22.4569C24.6671 22.5937 24.7191 22.7556 24.7218 22.9221C24.7246 23.0885 24.6779 23.252 24.5876 23.3918C24.4974 23.5317 24.3677 23.6416 24.215 23.7076C24.0623 23.7737 23.8934 23.7929 23.7298 23.7628C23.6213 23.7435 23.5177 23.703 23.4249 23.6435C23.3322 23.584 23.2521 23.5067 23.1893 23.416C23.1265 23.3254 23.0823 23.2233 23.0592 23.1155C23.036 23.0077 23.0344 22.8963 23.0545 22.7879ZM25.3794 37.5245L20.3635 48.5473C20.204 48.9578 19.9325 49.3153 19.58 49.5789C19.2045 49.8157 18.7653 49.9309 18.3221 49.9091C17.8741 49.9308 17.43 49.8157 17.0488 49.5789C16.6892 49.315 16.4077 48.9585 16.2343 48.5473L11.2442 37.5245C11.0355 37.1254 10.9631 36.6689 11.038 36.2247C11.1061 35.8603 11.3131 35.5366 11.6153 35.322C11.9508 35.0996 12.3473 34.9878 12.7495 35.0022C13.2032 34.9686 13.6537 35.1005 14.0176 35.3736C14.3396 35.6814 14.5895 36.0566 14.7496 36.4723L18.384 44.8748L21.9926 36.4517C22.1603 36.0326 22.4253 35.6595 22.7658 35.3633C23.1169 35.1048 23.5472 34.9771 23.9824 35.0022C24.3666 34.9903 24.7444 35.1024 25.0598 35.322C25.3504 35.5421 25.5459 35.8651 25.6063 36.2247C25.6655 36.671 25.5864 37.1247 25.3794 37.5245ZM29.5035 49.2385C29.3242 49.0432 29.1861 48.8138 29.0975 48.5638C29.0089 48.3139 28.9717 48.0486 28.988 47.7839V37.1377C28.9722 36.8722 29.0096 36.6063 29.0982 36.3556C29.1867 36.1049 29.3245 35.8745 29.5035 35.6779C29.7025 35.4979 29.9354 35.3595 30.1886 35.2709C30.4418 35.1823 30.7102 35.1454 30.9779 35.1621H37.9734C38.3806 35.1333 38.7827 35.2668 39.092 35.5335C39.224 35.6805 39.325 35.8527 39.3888 36.0397C39.4526 36.2268 39.4779 36.4248 39.4632 36.6219C39.4878 37.0241 39.3547 37.4202 39.092 37.7257C38.9409 37.8615 38.7639 37.9654 38.5717 38.031C38.3794 38.0966 38.1759 38.1226 37.9734 38.1074H32.6327V40.8721H37.5197C37.9235 40.8461 38.3214 40.9794 38.628 41.2435C38.8752 41.5553 39.0097 41.9416 39.0097 42.3396C39.0097 42.7376 38.8752 43.1238 38.628 43.4357C38.3214 43.6998 37.9235 43.8331 37.5197 43.8071H32.6327V46.7987H37.9734C38.1759 46.7836 38.3794 46.8095 38.5717 46.8751C38.7639 46.9407 38.9409 47.0446 39.092 47.1804C39.3328 47.4921 39.4634 47.8749 39.4634 48.2688C39.4634 48.6627 39.3328 49.0455 39.092 49.3571C38.7827 49.6238 38.3806 49.7573 37.9734 49.7285H30.9779C30.7118 49.75 30.4442 49.7176 30.1909 49.6334C29.9376 49.5493 29.7039 49.4149 29.5035 49.2385ZM39.8137 58.1568C39.7106 58.2312 39.5849 58.2676 39.458 58.26C39.3239 58.2666 39.1909 58.2324 39.0765 58.162C38.9704 58.0796 38.8826 57.9759 38.8188 57.8576L38.1383 56.5991C38.0834 56.4843 37.993 56.3903 37.8806 56.3309C37.7634 56.2807 37.6368 56.2561 37.5094 56.2586H36.9939V57.6926C37.0039 57.8447 36.9539 57.9947 36.8547 58.1104C36.8018 58.1634 36.7379 58.2043 36.6676 58.2301C36.5972 58.256 36.5221 58.2661 36.4474 58.26C36.3719 58.2669 36.2958 58.2571 36.2245 58.2313C36.1533 58.2054 36.0885 58.1641 36.035 58.1104C35.9358 57.9947 35.8858 57.8447 35.8958 57.6926V53.7518C35.8904 53.676 35.9004 53.5999 35.9253 53.5281C35.9501 53.4563 35.9892 53.3903 36.0402 53.334C36.1542 53.2355 36.3022 53.1856 36.4526 53.1947H38.1796C38.6442 53.1642 39.1035 53.3076 39.4683 53.5971C39.6227 53.7401 39.7435 53.9156 39.8219 54.1109C39.9004 54.3063 39.9345 54.5166 39.922 54.7267C39.9288 55.0104 39.8574 55.2906 39.7158 55.5365C39.5753 55.7649 39.3685 55.9449 39.1229 56.0523C39.0215 56.0949 38.9162 56.1277 38.8085 56.1503C38.8923 56.1748 38.9722 56.2112 39.0456 56.2586C39.2087 56.3728 39.3414 56.5251 39.4322 56.7022L39.8756 57.5172C39.9367 57.624 39.9687 57.7449 39.9684 57.868C39.9675 57.9228 39.9551 57.9769 39.932 58.0266C39.9089 58.0764 39.8756 58.1207 39.8343 58.1568H39.8137ZM45.1028 56.0936C45.1153 56.5075 45.0324 56.9187 44.8606 57.2954C44.7046 57.6111 44.4492 57.8667 44.1337 58.0227C43.7629 58.1954 43.3568 58.2784 42.948 58.2651C42.6297 58.271 42.3127 58.2239 42.0098 58.1259C41.7534 58.0436 41.519 57.9042 41.3242 57.7184C41.1337 57.5293 40.9906 57.2977 40.9066 57.0427C40.8105 56.7357 40.7652 56.4151 40.7726 56.0936V53.6796C40.7672 53.6058 40.7778 53.5316 40.8036 53.4622C40.8294 53.3928 40.8699 53.3298 40.9222 53.2774C40.9745 53.225 41.0375 53.1846 41.1069 53.1587C41.1762 53.1329 41.2503 53.1223 41.3242 53.1277C41.3985 53.1229 41.473 53.1343 41.5425 53.1611C41.612 53.1879 41.6749 53.2294 41.7269 53.2828C41.7788 53.3363 41.8185 53.4003 41.8433 53.4706C41.8682 53.5409 41.8775 53.6157 41.8706 53.6899V56.1091C41.8461 56.4383 41.9433 56.765 42.1438 57.0272C42.2476 57.1338 42.3732 57.2166 42.5121 57.27C42.6509 57.3234 42.7996 57.3462 42.948 57.3367C43.0956 57.3454 43.2433 57.3223 43.3812 57.2689C43.5191 57.2155 43.6438 57.1331 43.7471 57.0272C43.9476 56.765 44.0448 56.4383 44.0203 56.1091V53.6899C44.013 53.6138 44.0227 53.5371 44.0487 53.4652C44.0747 53.3933 44.1163 53.3281 44.1706 53.2743C44.2248 53.2205 44.2904 53.1794 44.3625 53.1541C44.4345 53.1287 44.5114 53.1197 44.5873 53.1277C44.6599 53.1224 44.7329 53.1325 44.8013 53.1574C44.8697 53.1823 44.9321 53.2214 44.9843 53.2721C45.0341 53.329 45.0721 53.3952 45.096 53.467C45.1199 53.5387 45.1293 53.6145 45.1235 53.6899L45.1028 56.0936ZM49.7424 57.347C49.6503 57.5493 49.5105 57.7263 49.3352 57.8628C49.1398 58.0078 48.9197 58.1162 48.6856 58.1826C48.412 58.258 48.1291 58.2945 47.8454 58.2909C47.4405 58.2886 47.0379 58.2295 46.6494 58.1155C46.4687 58.0664 46.2954 57.9936 46.1339 57.8989C46.0375 57.8516 45.9595 57.7736 45.9122 57.6771C45.8711 57.5904 45.8551 57.4939 45.8658 57.3986C45.8746 57.3051 45.9124 57.2167 45.9741 57.1458C46.0306 57.0728 46.1108 57.0217 46.2009 57.0014C46.3074 56.9837 46.4168 57.0038 46.5102 57.0581C46.7085 57.1685 46.9223 57.2484 47.1443 57.2954C47.3692 57.3467 47.5992 57.3727 47.8299 57.3728C48.0861 57.3949 48.343 57.3392 48.5671 57.2129C48.6337 57.1703 48.6885 57.1116 48.7263 57.0421C48.7642 56.9727 48.7839 56.8948 48.7836 56.8157C48.786 56.7523 48.7733 56.6893 48.7463 56.6319C48.7194 56.5744 48.6792 56.5243 48.6289 56.4856C48.4619 56.383 48.2762 56.3146 48.0825 56.2844L47.2834 56.1142C46.8946 56.0534 46.5343 55.8732 46.2524 55.5984C46.1401 55.4776 46.053 55.3354 45.9963 55.1804C45.9397 55.0254 45.9146 54.8606 45.9225 54.6957C45.9182 54.4724 45.9677 54.2512 46.0668 54.051C46.1686 53.8503 46.3129 53.6743 46.4896 53.5352C46.6785 53.3847 46.8959 53.2741 47.1288 53.2102C47.4212 53.1334 47.7243 53.1055 48.0258 53.1277C48.288 53.1274 48.5494 53.1586 48.8042 53.2205C49.043 53.2784 49.271 53.3742 49.4795 53.5042C49.5676 53.5519 49.6368 53.6284 49.6754 53.7209C49.7093 53.8023 49.7217 53.8911 49.7115 53.9788C49.7 54.0655 49.6621 54.1466 49.6032 54.2111C49.5442 54.2757 49.4668 54.3206 49.3816 54.3398C49.2695 54.3554 49.1553 54.3337 49.0568 54.2779C48.8943 54.1937 48.7208 54.1329 48.5413 54.0974C48.3717 54.0618 48.1991 54.0428 48.0258 54.0407C47.8507 54.0357 47.6762 54.0619 47.5103 54.118C47.3859 54.1622 47.2756 54.2388 47.1907 54.3398C47.1186 54.4327 47.0804 54.5473 47.0824 54.6648C47.0809 54.7283 47.0936 54.7913 47.1194 54.8493C47.1453 54.9073 47.1837 54.9588 47.2319 55.0001C47.3858 55.1072 47.5621 55.1778 47.7474 55.2064L48.5516 55.3766C48.9334 55.4367 49.2907 55.6029 49.5826 55.8563C49.6966 55.9691 49.7857 56.1044 49.8443 56.2536C49.9029 56.4028 49.9296 56.5627 49.9229 56.7229C49.9271 56.9424 49.8794 57.1598 49.7837 57.3573L49.7424 57.347ZM54.2892 57.347C54.1971 57.5493 54.0573 57.7263 53.882 57.8628C53.6866 58.0078 53.4665 58.1162 53.2324 58.1826C52.9588 58.258 52.6759 58.2945 52.3922 58.2909C51.9873 58.2886 51.5847 58.2295 51.1962 58.1155C51.0155 58.0664 50.8422 57.9936 50.6807 57.8989C50.5842 57.8516 50.5063 57.7736 50.459 57.6771C50.4179 57.5904 50.4019 57.4939 50.4126 57.3986C50.4214 57.3051 50.4592 57.2167 50.5208 57.1458C50.5774 57.0728 50.6576 57.0217 50.7477 57.0014C50.8542 56.9837 50.9636 57.0038 51.057 57.0581C51.2553 57.1685 51.469 57.2484 51.6911 57.2954C51.916 57.3467 52.146 57.3727 52.3767 57.3728C52.6329 57.3949 52.8898 57.3392 53.1139 57.2129C53.1805 57.1703 53.2352 57.1116 53.2731 57.0421C53.311 56.9727 53.3307 56.8948 53.3304 56.8157C53.3328 56.7523 53.32 56.6893 53.2931 56.6319C53.2662 56.5744 53.226 56.5243 53.1757 56.4856C53.0087 56.383 52.8229 56.3146 52.6293 56.2844L51.8302 56.1142C51.4414 56.0534 51.0811 55.8732 50.7992 55.5984C50.6869 55.4776 50.5998 55.3354 50.5431 55.1804C50.4865 55.0254 50.4614 54.8606 50.4693 54.6957C50.465 54.4724 50.5145 54.2512 50.6136 54.051C50.7154 53.8503 50.8596 53.6743 51.0364 53.5352C51.2259 53.3856 51.4431 53.2752 51.6756 53.2102C51.9415 53.1311 52.2179 53.0929 52.4953 53.0967C52.7575 53.0965 53.0188 53.1277 53.2737 53.1896C53.5125 53.2474 53.7405 53.3432 53.949 53.4733C54.0371 53.521 54.1063 53.5974 54.1449 53.6899C54.1788 53.7714 54.1912 53.8602 54.181 53.9478C54.1694 54.0345 54.1316 54.1156 54.0726 54.1802C54.0136 54.2447 53.9363 54.2896 53.851 54.3089C53.7389 54.3245 53.6248 54.3027 53.5263 54.247C53.3638 54.1628 53.1903 54.102 53.0108 54.0665C52.8412 54.0306 52.6685 54.0116 52.4953 54.0097C52.3202 54.0048 52.1456 54.031 51.9797 54.0871C51.8554 54.1313 51.7451 54.2079 51.6601 54.3089C51.5881 54.4017 51.5499 54.5164 51.5519 54.6339C51.5504 54.6973 51.563 54.7603 51.5889 54.8183C51.6147 54.8763 51.6532 54.9278 51.7014 54.9691C51.8553 55.0762 52.0316 55.1468 52.2169 55.1754L53.0211 55.3457C53.4029 55.4057 53.7601 55.5719 54.0521 55.8254C54.166 55.9381 54.2552 56.0734 54.3137 56.2227C54.3723 56.3719 54.3991 56.5317 54.3923 56.6919C54.426 56.9155 54.4048 57.1438 54.3305 57.3573L54.2892 57.347ZM56.2482 57.6823C56.2582 57.8344 56.2082 57.9844 56.109 58.1001C56.056 58.1531 55.9922 58.194 55.9218 58.2198C55.8515 58.2457 55.7764 58.2558 55.7017 58.2497C55.6262 58.2566 55.5501 58.2468 55.4788 58.2209C55.4075 58.1951 55.3428 58.1538 55.2893 58.1001C55.1901 57.9844 55.1401 57.8344 55.1501 57.6823V53.6951C55.1423 53.5432 55.192 53.394 55.2893 53.2773C55.4038 53.1802 55.5491 53.1269 55.6991 53.1269C55.8492 53.1269 55.9944 53.1802 56.109 53.2773C56.2063 53.394 56.256 53.5432 56.2482 53.6951V57.6823ZM56.6296 47.5879C56.6353 47.9484 56.5464 48.3041 56.3719 48.6195C56.1864 48.9198 55.8962 49.1403 55.5574 49.2385C54.8717 49.4683 54.1682 49.6409 53.4541 49.7543C52.7026 49.8776 51.9423 49.9397 51.1807 49.94C49.7332 49.9857 48.2964 49.6777 46.9948 49.0425C45.8728 48.4666 44.9484 47.5685 44.3399 46.4635C43.7146 45.2606 43.4025 43.9195 43.4326 42.564C43.4181 41.4954 43.6034 40.4335 43.979 39.433C44.3323 38.5141 44.8858 37.6856 45.5991 37.0075C46.3125 36.3294 47.1679 35.8188 48.1031 35.5129C49.1959 35.1477 50.3433 34.9732 51.4952 34.9971C52.2024 34.9995 52.908 35.0651 53.6036 35.1931C54.3373 35.3333 55.0462 35.5819 55.7069 35.9307C56.0293 36.0604 56.2908 36.3073 56.4389 36.6219C56.5675 36.9133 56.6104 37.2354 56.5626 37.5503C56.5166 37.8694 56.3966 38.1732 56.2121 38.4375C56.0301 38.6932 55.7634 38.8759 55.4594 38.9533C55.0975 39.0391 54.7168 38.9915 54.3872 38.8192C53.9581 38.6223 53.5086 38.4735 53.0468 38.3756C52.5383 38.2694 52.0198 38.2175 51.5003 38.2209C50.7031 38.1998 49.9131 38.3771 49.2011 38.7367C48.5955 39.0609 48.1136 39.5757 47.8299 40.2016C47.5063 40.9513 47.3514 41.7631 47.3762 42.5794C47.3762 43.9824 47.7199 45.0416 48.4073 45.7568C49.0826 46.4222 50.0878 46.7936 51.4488 46.7936C51.9033 46.7898 52.3568 46.7484 52.8046 46.6698C53.0572 46.6285 53.3201 46.5718 53.5778 46.5099V44.2146H52.1499C51.7576 44.2395 51.3705 44.1141 51.0673 43.8638C50.937 43.7343 50.8356 43.5786 50.7698 43.407C50.7041 43.2354 50.6754 43.0518 50.6858 42.8683C50.6747 42.687 50.703 42.5055 50.7688 42.3363C50.8347 42.1671 50.9365 42.0142 51.0673 41.8883C51.3737 41.6448 51.7594 41.5235 52.1499 41.5478H55.2068C55.4081 41.5236 55.6122 41.5455 55.8037 41.6119C55.9952 41.6783 56.1691 41.7875 56.3122 41.9312C56.4553 42.0748 56.5638 42.2492 56.6295 42.4411C56.6952 42.6329 56.7164 42.8372 56.6915 43.0385L56.6296 47.5879ZM61.7847 58.162C61.6936 58.2234 61.5852 58.2542 61.4754 58.2497C61.3419 58.259 61.2097 58.2186 61.1043 58.1362C61.0128 58.0308 60.9474 57.9053 60.9135 57.77L60.6197 57.0891H58.2793L57.9906 57.77C57.9417 57.904 57.8663 58.0268 57.7689 58.131C57.6707 58.2077 57.548 58.2462 57.4235 58.2393C57.3079 58.2458 57.1935 58.2131 57.0988 58.1465C57.0177 58.0866 56.9624 57.9981 56.9441 57.8989C56.9262 57.78 56.9479 57.6586 57.006 57.5533L58.8515 53.5919C58.9099 53.4543 59.0021 53.3336 59.1195 53.2412C59.2264 53.1673 59.3531 53.1277 59.483 53.1277C59.6128 53.1277 59.7396 53.1673 59.8464 53.2412C59.9637 53.3326 60.0545 53.4537 60.1093 53.5919L61.9394 57.574C61.9969 57.6813 62.0203 57.8037 62.0064 57.9247C61.9978 57.9752 61.9786 58.0234 61.9502 58.066C61.9218 58.1087 61.8847 58.1449 61.8414 58.1723L61.7847 58.162ZM66.9398 57.739C66.9504 57.8736 66.9078 58.0069 66.8213 58.1104C66.7808 58.1562 66.7307 58.1925 66.6745 58.2166C66.6184 58.2407 66.5575 58.252 66.4965 58.2497C66.3848 58.2548 66.2739 58.228 66.1769 58.1723C66.0819 58.1033 65.9984 58.0198 65.9294 57.9247L63.6303 54.9898V57.7184C63.6385 57.8607 63.5924 58.0008 63.5014 58.1104C63.4505 58.1582 63.3905 58.1953 63.3249 58.2192C63.2593 58.2431 63.1896 58.2535 63.1199 58.2497C63.0502 58.2535 62.9805 58.2431 62.9149 58.2192C62.8493 58.1953 62.7893 58.1582 62.7384 58.1104C62.6911 58.0574 62.6553 57.9953 62.6331 57.9278C62.6109 57.8604 62.6029 57.7891 62.6095 57.7184V53.6744C62.598 53.5255 62.6442 53.3777 62.7384 53.2618C62.7834 53.2144 62.8379 53.177 62.8983 53.1521C62.9587 53.1272 63.0237 53.1154 63.089 53.1174C63.1927 53.1102 63.296 53.1374 63.3828 53.1947C63.4744 53.2623 63.5545 53.3441 63.6199 53.4372L65.9191 56.367V53.6435C65.9115 53.502 65.9596 53.3631 66.0532 53.2566C66.1034 53.2094 66.1626 53.1728 66.2272 53.1489C66.2918 53.125 66.3606 53.1142 66.4295 53.1174C66.4992 53.1135 66.5689 53.1239 66.6345 53.1478C66.7001 53.1718 66.7601 53.2088 66.8109 53.2566C66.8576 53.309 66.8931 53.3703 66.9152 53.4368C66.9374 53.5033 66.9457 53.5736 66.9398 53.6435V57.739ZM74.9148 48.8052C74.892 48.9714 74.8343 49.1309 74.7455 49.2732C74.6566 49.4155 74.5386 49.5373 74.3992 49.6305C74.0932 49.8302 73.7334 49.931 73.3682 49.9194C72.9149 49.9498 72.4655 49.8182 72.1001 49.548C71.7445 49.2166 71.4709 48.8069 71.301 48.3513L70.636 46.8039H64.1715L63.5014 48.3513C63.3251 48.7949 63.0662 49.201 62.7384 49.548C62.4022 49.8209 61.974 49.9538 61.5424 49.9194C61.1626 49.9338 60.7877 49.8292 60.4702 49.6202C60.3332 49.5244 60.2169 49.4019 60.1284 49.2601C60.0398 49.1183 59.9807 48.9601 59.9547 48.7949C59.893 48.3898 59.9578 47.9755 60.1403 47.6086L65.2953 36.5445C65.4894 36.0753 65.8064 35.6672 66.213 35.3633C66.5806 35.1138 67.0163 34.9841 67.4605 34.9919C67.8985 34.9822 68.3282 35.1122 68.6874 35.3633C69.0852 35.676 69.4003 36.0816 69.605 36.5445L74.7601 47.6086C74.9506 47.9803 75.0157 48.4037 74.9457 48.8155L74.9148 48.8052ZM79.2605 23.2264C79.1884 23.0934 79.1463 22.9462 79.1374 22.7952C79.1285 22.6441 79.1529 22.493 79.2088 22.3525C79.2648 22.2119 79.3509 22.0854 79.4612 21.9819C79.5715 21.8784 79.7031 21.8004 79.8469 21.7535C79.9906 21.7066 80.1429 21.6919 80.293 21.7104C80.4431 21.7289 80.5872 21.7803 80.7152 21.8608C80.8432 21.9413 80.952 22.049 81.0338 22.1762C81.1156 22.3034 81.1684 22.4471 81.1885 22.5971C81.3947 23.1387 79.4719 23.768 79.2914 23.2367L79.2605 23.2264ZM90.4058 48.2069C90.4295 48.66 90.2823 49.1055 89.9934 49.4551C89.8536 49.61 89.6812 49.7319 89.4887 49.8122C89.2962 49.8924 89.0882 49.9291 88.8799 49.9194C88.495 49.9419 88.1118 49.8523 87.7767 49.6615C87.45 49.4371 87.1611 49.1619 86.921 48.8465L80.9875 41.3828V48.1347C81.0054 48.3764 80.9755 48.6193 80.8994 48.8495C80.8233 49.0796 80.7026 49.2924 80.5441 49.4758C80.3683 49.6368 80.1615 49.7601 79.9363 49.8381C79.7111 49.9162 79.4724 49.9474 79.2347 49.9297C78.9947 49.9471 78.7537 49.9158 78.5261 49.8378C78.2984 49.7599 78.0888 49.6367 77.9099 49.4758C77.7488 49.2937 77.6257 49.0813 77.5478 48.851C77.4699 48.6207 77.4388 48.3772 77.4562 48.1347V36.8849C77.4224 36.3796 77.5849 35.8806 77.9099 35.4922C78.0603 35.3237 78.2458 35.1902 78.4533 35.1011C78.6608 35.012 78.8853 34.9695 79.111 34.9764C79.4715 34.9566 79.8298 35.0427 80.142 35.224C80.4611 35.4733 80.7394 35.7709 80.9668 36.1061L86.9313 43.5337V36.7818C86.914 36.5425 86.9442 36.3021 87.0203 36.0746C87.0964 35.847 87.2169 35.6368 87.3746 35.4561C87.748 35.1625 88.2091 35.0028 88.684 35.0028C89.1589 35.0028 89.62 35.1625 89.9934 35.4561C90.3101 35.8223 90.4694 36.2987 90.4367 36.7818L90.4058 48.2069Z" fill="#DFDCD3"/>
<path d="M86.8384 10.9041C86.8178 11.6152 86.7332 12.323 86.5858 13.0189C86.1619 13.0807 85.7313 13.0807 85.3074 13.0189C85.4558 12.2784 85.5335 11.5253 85.5394 10.77C85.9515 10.9347 86.4014 10.9811 86.8384 10.9041Z" fill="#DFDCD3"/>
<path d="M88.8841 11.1672C88.8055 11.5237 88.6395 11.8551 88.4012 12.1316C88.1629 12.408 87.8597 12.6207 87.5189 12.7507C87.5859 11.8841 87.6013 10.8938 87.6013 10.7236C88.0111 10.5924 88.4064 10.4195 88.781 10.2078C88.9002 10.5126 88.9358 10.8439 88.8841 11.1672Z" fill="#DFDCD3"/>
<path d="M87.2043 8.27875C87.2043 8.27875 86.9312 8.03632 86.8127 8.45928C86.9659 8.51178 87.1155 8.5738 87.2609 8.64497L87.2043 8.27875Z" fill="#DFDCD3"/>
<path d="M88.5551 7.49473C88.0381 7.46454 87.5194 7.49222 87.0086 7.57726C86.6579 7.63723 86.313 7.72696 85.9775 7.84548C85.7043 7.93833 84.9465 8.2117 84.8434 8.22202H84.7249C84.7249 8.38708 84.7249 8.56761 84.7661 8.78425C84.8137 9.23652 84.8258 9.69182 84.8022 10.146C84.9805 10.4187 85.2403 10.6281 85.5445 10.7443C85.9557 10.9125 86.4056 10.9625 86.8436 10.8887C86.8848 10.8912 86.9261 10.8912 86.9673 10.8887C87.1839 10.8482 87.3974 10.7931 87.6066 10.7237C88.0166 10.5925 88.4122 10.4197 88.7871 10.2079C89.5191 9.78492 90.0862 9.233 90.0501 8.69656C90.014 8.16012 89.349 7.73716 88.5551 7.49473Z" fill="#DFDCD3"/>
<path d="M88.2355 7.04587C87.7981 7.06553 87.3634 7.12422 86.9364 7.22124C86.2117 7.38212 85.523 7.67593 84.9053 8.0878C84.8853 8.10316 84.8702 8.12405 84.862 8.14789C84.8538 8.17173 84.8527 8.19746 84.8589 8.22191H84.7403C84.7403 8.38697 84.7403 8.5675 84.7816 8.78414C84.8292 9.2364 84.8413 9.69171 84.8177 10.1459C84.7957 10.6407 84.7406 11.1336 84.6527 11.6211C84.6527 11.75 84.6115 11.8738 84.5857 11.9821C84.529 12.2555 84.4723 12.467 84.4413 12.5908C84.4413 12.6217 84.4413 12.6475 84.4413 12.6682C84.4404 12.6888 84.4404 12.7094 84.4413 12.7301C83.1371 12.2143 82.2968 11.1414 82.4772 10.0582C82.475 10.0462 82.475 10.034 82.4772 10.0221L82.0133 9.90344C81.8122 9.90344 80.5389 9.86217 79.8688 9.90344C79.8045 9.90891 79.7407 9.88862 79.6914 9.84702C79.6421 9.80543 79.6113 9.74594 79.6059 9.68164C79.6004 9.61734 79.6207 9.55351 79.6622 9.50417C79.7038 9.45484 79.7633 9.42405 79.8275 9.41858C80.5802 9.35668 81.9978 9.41858 82.0597 9.41858H82.1112L82.6267 9.55269C82.6248 9.53383 82.6248 9.51481 82.6267 9.49595L82.1937 9.07299C81.9153 9.01109 80.8122 8.76866 80.0904 8.65003C80.059 8.64461 80.0289 8.63304 80.0018 8.61598C79.9748 8.59892 79.9514 8.5767 79.933 8.5506C79.9146 8.52449 79.9015 8.49501 79.8944 8.46384C79.8874 8.43267 79.8866 8.40041 79.892 8.36891C79.8974 8.33741 79.9089 8.30729 79.926 8.28027C79.943 8.25324 79.9653 8.22984 79.9913 8.2114C80.0174 8.19296 80.0469 8.17984 80.078 8.17279C80.1092 8.16575 80.1414 8.16491 80.1729 8.17033C81.008 8.30959 82.3535 8.61392 82.3638 8.61392C82.4072 8.6261 82.4476 8.64718 82.4824 8.67582L82.9103 9.09362C83.2239 8.76892 83.6112 8.52473 84.0392 8.38181C83.8073 7.63905 84.1784 6.61775 85.0136 5.90078C86.0085 5.04454 87.6994 4.61126 88.2716 5.34886C88.5654 5.77182 88.4932 6.40627 88.2355 7.04587Z" fill="#DFDCD3"/>
</g>
<defs>
<clipPath id="clip0_100_702">
<rect width="102.071" height="62" fill="white" transform="translate(0.083374)"/>
</clipPath>
</defs>
</svg>
