<svg width="183" height="183" viewBox="0 0 183 183" fill="none" xmlns="http://www.w3.org/2000/svg">
<path d="M130 157H54C51.3269 157 50.1113 153.89 52 152C56.0377 147.961 60.6422 142.207 63 137C67.4053 127.271 72 114 72 114H112C112 114 116.686 127.75 121 137C123.529 142.423 128.075 148.076 132 152C133.902 153.902 132.691 157 130 157Z" fill="#9F928D"/>
<g filter="url(#filter0_d_102_299)">
<path d="M92 132C117.405 132 138 111.405 138 86C138 60.5949 117.405 40 92 40C66.5949 40 46 60.5949 46 86C46 111.405 66.5949 132 92 132Z" fill="#EA6B24"/>
</g>
<path d="M89 55C90.0995 53.0903 91.9005 53.0903 93 55L101 69C101.403 69.6995 102.218 70.8284 103 71L119 74C121.135 74.4677 121.456 77.3521 120 79L110 91C109.467 91.6038 108.919 92.1947 109 93L111 109C111.22 111.199 108.999 112.891 107 112L92 105C91.2677 104.674 90.7323 104.674 90 105L75 112C73.0008 112.891 70.7799 111.199 71 109L73 93C73.0807 92.1947 72.5334 91.6038 72 91L62 79C60.5442 77.3521 60.8649 74.4677 63 74L79 71C79.7822 70.8284 80.5972 69.6995 81 69L89 55Z" fill="#EDE75A"/>
<path d="M49 159C49 151.971 54.8035 146 62 146H122C129.196 146 135 151.971 135 159C135 159.703 134.72 160 134 160H50C49.2805 160 49 159.703 49 159Z" fill="#79706C"/>
<path d="M93 83C94.5324 83.475 95.3014 83.9822 96 85C96.7211 85.9952 97 87.7787 97 89C96.9775 89.8368 96.338 90.3215 96 91C95.662 91.6559 95.5859 92.5251 95 93C94.4366 93.475 93.7887 93.7286 93 94C92.2113 94.2488 90.924 94 90 94C89.2789 94 89.5634 94.1357 89 94C88.4366 93.8417 87.4507 93.2262 87 93C86.5718 92.7512 86.3155 92.294 86 92C85.6845 91.6834 85.2479 91.294 85 91C84.9549 91 85 91.0452 85 91L88 88L87 92C87.4507 92.2714 88.5042 92.8417 89 93C89.4958 93.1583 89.4141 93 90 93C91.2394 93 92.3014 92.8368 93 92C93.6986 91.1406 94 90.244 94 89C94 88.2989 94.293 87.6107 94 87C93.7071 86.3667 93.5183 85.4524 93 85C92.4817 84.5477 91.6986 84.2714 91 84C90.3014 83.7286 89.8113 83 89 83V82C89.5634 81.9774 90.4592 82.181 91 82C91.5634 81.7965 91.5718 81.3619 92 81C92.4282 80.6155 92.7521 80.5428 93 80C93.2704 79.4346 94 78.7238 94 78C94 76.7787 93.4507 75.7464 93 75C92.5493 74.231 92.0141 74 91 74C90.5493 74 89.4282 73.7965 89 74C88.5944 74.181 88.3606 74.706 88 75L90 78L86 76C86 75.9548 85.9549 76.0905 86 76C86.1352 75.706 86.7521 75.3393 87 75C87.2704 74.6381 87.6169 74.2714 88 74C88.3831 73.706 88.5042 73.181 89 73C89.4958 72.7965 90.4141 73 91 73C92.7352 73 94.0761 73.0275 95 74C95.9465 74.9499 95.9775 76.4847 96 78C95.9775 79.357 95.631 80.231 95 81C94.369 81.7464 94.0817 82.6608 93 83Z" fill="#282524"/>
<defs>
<filter id="filter0_d_102_299" x="34" y="28" width="116" height="116" filterUnits="userSpaceOnUse" color-interpolation-filters="sRGB">
<feFlood flood-opacity="0" result="BackgroundImageFix"/>
<feColorMatrix in="SourceAlpha" type="matrix" values="0 0 0 0 0 0 0 0 0 0 0 0 0 0 0 0 0 0 127 0" result="hardAlpha"/>
<feOffset/>
<feGaussianBlur stdDeviation="6"/>
<feComposite in2="hardAlpha" operator="out"/>
<feColorMatrix type="matrix" values="0 0 0 0 0.783333 0 0 0 0 0.326389 0 0 0 0 0.130556 0 0 0 0.7 0"/>
<feBlend mode="normal" in2="BackgroundImageFix" result="effect1_dropShadow_102_299"/>
<feBlend mode="normal" in="SourceGraphic" in2="effect1_dropShadow_102_299" result="shape"/>
</filter>
</defs>
</svg>
