<svg width="880" height="1612" viewBox="0 0 880 1612" fill="none" xmlns="http://www.w3.org/2000/svg" preserveAspectRatio="none">
<g clip-path="url(#clip0_122_298)">
<path d="M796.49 865.046L783.304 818.93L795.767 777.29L776.076 745.357L264.528 808.201L269.446 871.216L796.49 865.046Z" fill="#874943"/>
<path d="M129.905 791.144L118.044 821.268L121.222 841.258L186.298 867.634C186.298 867.634 220.238 868.677 220.072 867.868C219.905 867.059 218.804 836.659 217.849 836.425C216.894 836.191 195.998 805.216 195.998 805.216L129.905 791.144Z" fill="#874943"/>
<path d="M408.208 1319.31C408.208 1319.31 425.072 1445.47 460.013 1445.27C497.334 1445.05 516.201 1313.1 516.201 1313.1L408.208 1319.31Z" fill="#3A1416"/>
<path class="cauldron-wrapper" d="M101.667 863.09C68.8447 927.322 46.9252 1014.71 55.0386 1099.78C63.3698 1187.12 105.784 1318.55 270.908 1359.27C436.032 1400 559.207 1382.95 671.505 1347.77C776.699 1314.82 827.227 1203.79 840.54 1100.02C851.925 1011.29 796.596 864.357 796.596 864.357L101.667 863.09Z" fill="url(#paint0_linear_122_298)"/>
<path d="M211.987 1313.37C211.987 1313.37 177.254 1436.73 202.866 1449.27C240.81 1467.85 311.61 1355.55 311.61 1355.55L211.987 1313.37Z" fill="url(#paint1_linear_122_298)"/>
<path d="M702.901 1314.38C702.901 1314.38 745.611 1433.35 712.021 1450.28C677.514 1467.67 603.277 1356.55 603.277 1356.55L702.901 1314.38Z" fill="url(#paint2_linear_122_298)"/>
<path d="M99.0137 863.385C99.0137 863.385 104.064 854.445 106.122 848.252C107.997 842.609 111.619 831.452 111.619 831.452C111.619 831.452 105.804 823.967 101.875 811.661C96.335 794.304 98.0576 777.591 98.0576 777.591L126.171 751.132L203.314 802.268L228.904 829.389L230.815 874.138L221.99 916.134C221.99 916.134 221.49 893.204 219.399 872.727C217.745 856.525 214.038 841.565 213.433 841.528C212.742 841.485 205.25 841.301 198.906 829.038C193.419 818.432 196.547 810.468 195.434 810.405C194.267 810.338 177.509 809.614 162.816 806.225C149.264 803.1 136.841 795.026 136.841 795.026C136.841 795.026 126.452 803.654 123.82 812.968C121.939 819.623 123.636 835.021 123.636 835.021C123.636 835.021 150.002 841.358 163.391 842.733C183.414 844.788 215.969 843.363 215.969 843.363L216.805 852.091C216.805 852.091 200.197 859.128 182.397 865.891C171.128 870.173 161.002 894.829 150.004 920.458C136.901 950.992 96.6407 1059.18 135.622 1160.73C155.274 1211.93 180.285 1254.86 225.371 1310.54C253.07 1344.75 278.107 1360.38 278.107 1360.38C278.107 1360.38 233.17 1352.48 185.398 1324.36C137.626 1296.24 87.0172 1247.91 69.2458 1176.7C60.9872 1143.61 54.4862 1114.26 52.7515 1086.75C47.3845 1001.61 68.8756 944.545 72.2972 934.226C80.1739 910.471 99.0137 863.385 99.0137 863.385Z" fill="url(#paint3_linear_122_298)"/>
<path d="M137.126 821.9C135.931 821.112 135.024 817.41 136.1 815.249C136.927 813.589 139.436 813.221 140.768 813.451C145.477 814.264 152.243 817.16 159.121 819.254C165.047 821.06 173.036 821.426 177.319 822.26C178.717 822.532 181.544 824.568 181.52 826.802C181.5 828.672 178.861 830.779 177.665 831.153C173.577 832.432 165.857 832.35 156.853 830.132C147.505 827.829 146.299 827.948 137.126 821.9Z" fill="#A76A55"/>
<path d="M681.12 848.015C681.12 848.015 736.926 833.764 763.786 812.782C793.072 789.905 799.382 768.885 799.382 768.885C799.382 768.885 801.409 791.156 798.357 803.168C795.658 813.788 786.964 833.691 786.964 833.691C786.964 833.691 780.677 837.031 754.47 842.386C723.166 848.783 681.12 848.015 681.12 848.015Z" fill="#812F3A"/>
<path d="M749.833 778.909C749.833 778.909 775.297 763.083 782.166 771.039C793.395 784.047 780.163 799.927 780.163 799.927L799.867 773.343C799.867 773.343 798.088 745.961 789.956 743.445C776.532 739.292 749.833 778.909 749.833 778.909Z" fill="#722A33"/>
<path d="M306.741 721.189C306.741 721.189 382.279 718.233 412.498 718.079C449.355 717.892 530.06 720.288 530.06 720.288L492.087 768.618L315.45 766.489L306.741 721.189Z" fill="#5B2127"/>
<path d="M731.874 808.161C727.959 799.928 744.158 794.685 751.531 790.022C759.786 784.8 773.56 770.035 778.302 779.478C782.419 787.676 768.785 796.769 761.62 801.429C753.05 807.001 736.419 817.718 731.874 808.161Z" fill="#A76A55"/>
<path d="M786.119 828.758C786.119 828.758 810.82 890.981 827.421 962.015C838.964 1011.4 845.084 1065.74 842.554 1103.51C827.88 1322.56 648.063 1354.93 648.063 1354.93C648.063 1354.93 753.784 1253.32 768.813 1125.52C776.703 1058.42 780.889 936.111 691.922 846.832L786.119 828.758Z" fill="url(#paint4_linear_122_298)"/>
<path opacity="0.611825" d="M595.682 853.431C594.428 853.256 458.866 857.561 414.419 857.493C370.267 857.425 326.494 854.715 326.494 854.715C326.494 854.715 422.736 878.692 448.478 878.834C473.464 878.974 595.682 853.431 595.682 853.431Z" fill="#722A33"/>
<path d="M765.025 659.309C765.025 659.309 808.66 553.031 834.295 520.859C884.029 458.442 900.838 399.083 884.972 363.049C868.266 336.196 853.05 336.765 824.759 351.753C795.345 367.905 786.703 438.705 776.477 499.643C764.194 572.841 765.025 659.309 765.025 659.309Z" fill="#8B7E7E"/>
<path opacity="0.611825" d="M199.062 664.037C171.226 632.777 139.48 605.71 113.719 572.323C53.553 530.494 -26.3287 426.504 33.7641 382.888C82.0332 346.765 181.176 506.949 181.176 506.949C181.176 506.949 88.1758 398.084 72.7469 366.109C51.5485 322.177 0.000240326 207.584 98.5602 192.837C144.32 185.991 165.971 241.637 177.348 282.205C178.467 300.237 180.73 312.425 180.73 312.425C180.73 312.425 193.101 225.815 165.971 192.837C137.546 158.284 110.754 150.79 78.3051 110.215C66.8787 95.9279 9.90079 7.60193 -16.4966 -90.1266C-46.0292 -199.463 -44.5747 -318.557 -44.5747 -318.557L206.569 -452.351C206.569 -452.351 242.734 -79.0845 249.347 -70.7594C278.474 -76.5472 263.208 -326.482 263.208 -326.482L827.574 -316.416C827.574 -316.416 822.747 -230.943 778.856 -147.045C738.262 -69.4482 738.163 -70.097 739.868 28.9756C740.321 55.242 772.568 131.158 772.568 131.158C772.568 131.158 743.722 -7.7399 773.095 -41.5946C794.651 -66.4395 828.641 -68.1726 851.153 -33.8077C880.909 11.6132 882.452 65.354 878.312 125.798C873.533 195.558 848.05 266.49 814.559 323.348C763.039 410.816 765.677 644.519 765.677 644.519C765.677 644.519 760.956 542.633 733.528 548.248C689.342 557.293 694.111 687.942 694.111 687.942L689.606 720.697L528.44 782.973C528.44 782.973 531.054 611.107 481.858 606.82C461.366 605.035 454.381 645.129 460.87 701.035C465.875 744.162 454.445 794.714 454.445 794.714C454.445 794.714 369.314 770.679 360.729 765.362C358.225 763.812 298.337 611.604 276.53 618.815C239.127 631.186 269.69 764.682 269.69 764.682C269.69 764.682 226.515 694.867 199.062 664.037Z" fill="url(#paint5_linear_122_298)"/>
<path opacity="0.611825" d="M68.2777 226.43C62.074 227.416 60.6506 240.624 61.086 247.067C61.5587 254.062 62.5659 266.459 69.3792 266.295C76.6141 266.123 78.026 252.881 77.2512 245.477C76.5421 238.702 74.8234 225.388 68.2777 226.43Z" fill="url(#paint6_linear_122_298)"/>
<path opacity="0.611825" d="M118.929 219.344C112.608 219.893 110.287 232.987 110.293 239.454C110.3 246.475 110.484 258.928 117.364 259.245C124.669 259.581 126.981 246.453 126.697 239.003C126.437 232.185 125.598 218.765 118.929 219.344Z" fill="url(#paint7_linear_122_298)"/>
<path opacity="0.611825" d="M80.0642 276.066C82.0534 270.33 97.1688 278.521 97.1688 278.521C97.1688 278.521 110.056 269.924 112.232 274.883C114.982 281.151 103.178 287.156 96.6739 287.423C90.0948 287.693 77.7877 282.63 80.0642 276.066Z" fill="url(#paint8_linear_122_298)"/>
<path opacity="0.611825" d="M827.095 377.829C827.095 377.829 834.221 373.973 837.429 375.584C840.14 376.946 842.008 384.161 842.008 384.161C842.008 384.161 846.421 371.322 840.176 368.242C833.635 365.017 827.095 377.829 827.095 377.829Z" fill="url(#paint9_linear_122_298)"/>
<path opacity="0.611825" d="M878.119 393.555C878.119 393.555 874.93 385.72 871.368 384.543C868.357 383.547 862.295 387.268 862.295 387.268C862.295 387.268 866.961 375.08 873.859 377.412C881.085 379.855 878.119 393.555 878.119 393.555Z" fill="url(#paint10_linear_122_298)"/>
<path opacity="0.611825" d="M849.239 392.151C848.39 394.591 847.47 399 849.17 400.298C850.968 401.67 853.347 398.081 854.283 395.526C855.239 392.917 855.968 387.956 854.069 386.73C852.196 385.521 850.142 389.55 849.238 392.151H849.239Z" fill="url(#paint11_linear_122_298)"/>
<path opacity="0.611825" d="M23.4668 418.248C24.1967 418.081 30.6815 420.425 33.4637 418.499C37.3583 415.802 38.6611 404.859 38.6611 404.859C38.6611 404.859 42.4905 422.328 36.6485 425.601C32.2589 428.06 23.4668 418.248 23.4668 418.248V418.248Z" fill="url(#paint12_linear_122_298)"/>
<path opacity="0.611825" d="M56.3203 397.888C56.3203 397.888 64.4895 398.902 68.128 397.329C72.0163 395.649 77.5333 387.877 77.4391 388.45C77.345 389.023 76.6309 402.225 71.5824 404.488C66.5227 406.757 56.3203 397.888 56.3203 397.888Z" fill="url(#paint13_linear_122_298)"/>
<path opacity="0.611825" d="M46.9336 423.428C46.9336 423.428 52.05 427.803 54.616 426.721C57.8064 425.375 59.3448 416.602 59.3448 416.602C59.3448 416.602 67.5798 439.382 60.4636 442.213C53.8749 444.834 46.9336 423.428 46.9336 423.428Z" fill="url(#paint14_linear_122_298)"/>
<path d="M86.8323 707.967C84.8519 706.672 82.5473 705.931 80.208 705.674C77.8686 705.417 75.4935 705.635 73.1966 706.155C68.2211 707.282 63.5082 709.904 60.2312 713.885C57.4763 717.232 55.8329 721.362 53.5751 725.076C51.5509 728.405 49.0161 731.413 46.0732 733.931C43.4982 736.134 40.615 737.958 37.5485 739.361C37.3225 739.465 37.0956 739.566 36.8677 739.665C43.8618 743.075 50.3003 747.666 55.8412 753.195C61.7989 759.14 66.7066 766.137 72.9152 771.809C79.5386 777.859 87.78 782.348 96.6274 783.26C103.482 783.967 110.354 782.531 117.113 781.166C119.89 780.606 122.703 780.045 125.257 778.8C126.535 778.177 127.739 777.384 128.76 776.385C129.782 775.385 130.617 774.175 131.114 772.824C131.743 771.109 131.809 769.206 131.44 767.414C131.071 765.621 130.281 763.936 129.264 762.428C127.229 759.41 124.34 757.123 121.562 754.802C118.215 752.007 114.961 749.095 111.844 746.036C106.356 740.649 101.221 734.7 98.0209 727.651C96.4318 724.151 95.3442 720.432 93.7636 716.928C92.183 713.424 90.016 710.05 86.8323 707.967Z" fill="url(#paint15_linear_122_298)"/>
<path d="M106.768 737.888C106.768 737.888 96.2994 736.559 89.8133 736.681C83.4512 736.801 63.4648 739.151 63.4648 739.151C63.4648 739.151 82.9991 740.016 93.5842 741.702C101.453 742.956 116.233 750.165 116.233 750.165" fill="#654152"/>
<path d="M123.705 757.747C123.705 757.747 97.2327 735.211 88.9924 721.021C80.7521 706.832 74.2631 672.609 74.2631 672.609L81.9778 655.557L66.3704 659.517C66.3704 659.517 57.4454 632.649 56.4388 615.447C55.5217 599.775 56.3967 563.669 56.3967 563.669C56.3967 563.669 77.9652 571.753 87.3292 577.617C96.6931 583.481 114.15 599.28 114.15 599.28L142.102 694.345L123.705 757.747Z" fill="url(#paint16_linear_122_298)"/>
<path d="M671.933 713.956C671.933 713.956 677.669 699.423 681.294 693.401C684.918 687.38 693.679 677.829 693.679 677.829L712.546 687.165L707.757 660.596C707.757 660.596 735.241 639.405 767.336 630.264C798.18 621.479 855.375 613.214 855.375 613.214C845.083 640.051 848.506 668.254 837.517 692.811C837.517 692.811 827.195 688.198 822.053 686.538C816.91 684.877 806.661 682.848 806.661 682.848C806.661 682.848 810.628 694.545 813.394 699.85C816.16 705.155 823.259 714.675 823.259 714.675C823.259 714.675 806.349 737.005 787.237 754.326C774.873 765.531 745.706 779.456 745.706 779.456L678.557 774.88L671.933 713.956Z" fill="url(#paint17_linear_122_298)"/>
<path d="M138.917 731.703C138.598 730.115 117.515 678.325 117.515 678.325C117.515 678.325 112.227 680.469 107.86 681.069C104.73 681.499 98.7337 680.926 98.7337 680.926C98.7337 680.926 104.005 670.651 111.025 667.624C108.187 661.029 102.921 647.042 102.921 647.042C102.921 647.042 98.8226 647.392 96.7826 647.205C94.4722 646.993 89.9465 645.754 89.9465 645.754C91.2066 643.751 92.6923 642.475 94.2578 641.1C95.5529 639.963 96.893 638.717 98.4073 638.139C98.4073 638.139 86.6249 603.923 86.8078 605.901C86.9906 607.878 104.344 632.766 104.344 632.766C104.344 632.766 106.171 630.166 107.332 629.184C109.164 627.635 113.444 625.676 113.444 625.676C113.444 625.676 112.652 631.768 111.837 634.689C111.2 636.972 109.295 641.264 109.295 641.264L121.141 660.051C121.141 660.051 123.66 655.287 125.503 653.482C127.827 651.206 133.644 647.808 133.644 647.808C133.644 647.808 132.16 657.24 131.102 661.192C130.045 665.144 127.297 671.518 127.297 671.518L159.396 728.902L138.917 731.703Z" fill="#7D5F63" fill-opacity="0.799703"/>
<path d="M109.02 594.081L99.1204 586.284L126.145 694.608C126.145 694.608 128.087 717.824 108.622 724.758C95.0741 729.584 83.0136 705.851 81.8092 706.273C81.184 706.492 81.6765 719.131 93.7249 738.615C105.567 756.776 108.834 782.021 108.834 782.021C108.834 782.021 123.997 781.375 128.27 777.018C132.079 773.134 132.392 770.129 132.392 770.129L141.234 696.699L109.02 594.081Z" fill="#693949" fill-opacity="0.442673"/>
<path d="M680.14 696.267C680.14 696.267 689.491 754.47 700.535 739.719C710.6 726.274 727.963 722.682 754.817 735.086C772.119 743.077 809.802 731.676 809.802 731.676C809.802 731.676 771.186 778.88 740.017 778.229C724.967 777.914 682.175 767.286 682.175 767.286L680.14 696.267Z" fill="#88656B"/>
<path d="M674.316 757.94C675.621 757.271 716.047 723.522 716.047 723.522C716.047 723.522 713.16 718.04 711.782 713.284C710.795 709.873 710.106 703.065 710.106 703.065C710.106 703.065 719.991 706.925 723.98 714.166C729.098 709.697 740.1 701.06 740.1 701.06C740.1 701.06 738.991 696.554 738.75 694.239C738.477 691.618 738.652 686.321 738.652 686.321C740.625 687.333 742.017 688.74 743.508 690.217C744.742 691.439 746.079 692.689 746.875 694.266C746.875 694.266 774.007 674.366 772.341 674.96C770.675 675.554 752.671 699.835 752.671 699.835C752.671 699.835 755.27 701.363 756.344 702.466C758.039 704.205 760.568 708.597 760.568 708.597C760.568 708.597 755.168 708.914 752.492 708.579C750.402 708.319 746.332 707.037 746.332 707.037L732.494 723.967C732.494 723.967 737.092 725.84 739.009 727.542C741.427 729.689 745.499 735.514 745.499 735.514C745.499 735.514 737.086 735.717 733.476 735.314C729.865 734.912 723.836 733.101 723.836 733.101L680.765 780.252L674.316 757.94Z" fill="#7D5F63" fill-opacity="0.772491"/>
<path d="M109.908 403.696C104.854 403.876 94.8429 405.333 88.6735 414.107C85.6347 418.428 79.9826 428.745 80.167 439.397C80.4632 456.516 84.0578 480.402 88.5837 504.363C88.7084 504.669 88.8272 504.978 88.9444 505.289C89.1695 505.96 89.3789 506.651 89.5374 507.354C89.6233 507.644 89.7353 507.924 89.8119 508.218C90.0877 509.221 90.2424 510.256 90.3644 511.294C90.456 512.326 90.4885 513.363 90.5114 514.4C94.6327 535.077 99.224 554.997 102.858 570.07C102.972 570.258 103.084 570.449 103.192 570.642C103.483 571.202 103.767 571.767 104.023 572.348C104.252 572.876 104.404 573.436 104.545 574C104.702 574.591 104.851 575.185 104.954 575.792C105.067 576.476 105.15 577.166 105.229 577.856C105.31 578.626 105.37 579.398 105.442 580.168C105.465 580.407 105.493 580.644 105.522 580.882C107.712 589.679 109.385 596.189 109.385 596.189L140.625 701.739L160.815 692.372L114.772 487.501L112.985 403.718C112.727 403.718 111.593 403.636 109.908 403.697L109.908 403.696ZM103.657 573.358C103.872 574.243 104.001 574.739 104.208 575.581C104.12 575.119 104.018 574.662 103.892 574.212C103.82 573.925 103.744 573.639 103.657 573.358Z" fill="#722A33"/>
<path d="M118 403.131C117.087 403.092 116.195 403.113 115.333 403.194C105.615 404.101 89.428 410.072 91.8202 445.27C94.6432 486.805 105.326 518.934 113.643 561.254C123.686 612.359 156.022 703.146 146.551 711.288L189.505 690.765C189.505 690.765 180.651 604.359 167.098 525.52C166.873 524.76 166.617 524.012 166.309 523.285C165.578 521.509 164.789 519.766 164.042 517.999C163.472 516.596 162.912 515.173 162.66 513.643C162.422 511.957 162.402 510.249 162.558 508.549C162.603 508.032 162.806 506.881 162.974 505.825C162.958 505.443 162.942 505.061 162.931 504.678C162.928 503.934 162.921 503.189 162.918 502.445C159.001 481.702 154.801 462.085 150.327 445.733C147.69 436.093 143.972 422.015 136.979 413.186C131.792 406.636 124.391 403.405 118 403.131L118 403.131Z" fill="#874943"/>
<path d="M195.413 785.613C195.413 785.613 158.776 791.377 144.815 757.448C130.264 722.082 146.105 680.596 178.589 675.018C192.727 672.59 214.287 680.425 224.378 699.893C234.47 719.362 233.59 746.293 233.59 746.293" fill="url(#paint18_linear_122_298)"/>
<path d="M180.168 674.634C162.637 674.267 145.132 683.366 133.89 698.69C127.698 707.131 123.366 717.351 121.552 728.154C119.895 738.026 120.367 748.454 123.546 757.83C126.669 767.039 132.321 774.999 139.166 781.056C147.173 788.141 156.716 792.672 166.459 795.873C177.674 799.558 189.31 801.58 200.979 801.872C201.48 794.473 198.788 786.88 193.918 781.95C189.889 777.872 184.663 775.694 179.471 774.043C174.279 772.392 168.942 771.159 164.05 768.581C158.363 765.585 153.43 760.803 149.809 754.979C146.188 749.156 143.874 742.309 142.991 735.245C141.224 721.115 145.301 706.405 153.062 695.199C159.898 685.328 169.536 678.016 180.168 674.634Z" fill="#5D1552"/>
<path d="M275.545 757.794C275.856 757.245 276.148 756.682 276.422 756.108C279.173 750.351 279.977 743.526 279.191 737.032C278.696 732.94 277.583 728.926 275.765 725.351C273.948 721.776 271.416 718.649 268.336 716.466C263.292 712.893 257.046 712.029 251.149 712.842C247.868 713.295 244.625 714.244 241.642 715.865C238.66 717.486 235.942 719.791 233.879 722.732C231.464 726.175 230.002 730.419 229.431 734.778C228.86 739.136 229.157 743.608 230.014 747.905C231.136 753.527 233.325 759.064 237.141 762.851C238.698 764.396 240.499 765.62 242.432 766.447" fill="#781460"/>
<path d="M334.837 756.418C335.206 755.883 335.554 755.33 335.879 754.76C338.495 750.172 339.572 744.58 339.424 739.111C339.276 733.643 337.958 728.281 336.098 723.237C332.313 712.972 325.914 703.538 317.047 698.851C308.707 694.443 298.694 694.682 290.293 698.935C284.464 701.886 279.279 706.825 276.423 713.32C274.709 717.216 273.874 721.53 273.215 725.822C272.419 731.011 271.855 736.288 272.2 741.54C272.545 746.793 273.844 752.053 276.505 756.361C278.192 759.094 280.407 761.403 282.947 763.076" fill="#781460"/>
<path d="M334.288 756.063C334.288 756.063 344.804 735.71 369.277 738.746C393.862 741.796 398.854 764.553 398.854 764.553C398.854 764.553 406.656 729.238 437.701 730.641C461.097 731.698 466.65 769.37 466.65 769.37C466.65 769.37 453.817 742.477 477.324 729.975C484.76 726.021 494.909 736.313 494.909 736.313C494.909 736.313 476.056 647.226 554.525 634.554C616.46 624.551 626.456 707.352 626.456 707.352C650.621 694.652 675.633 685.094 696.328 714.488C707.657 731.568 701.935 762.375 701.935 762.375C701.935 762.375 714.645 738.54 730.189 737.27C753.928 735.331 758.912 753.511 758.912 753.511C758.912 753.511 766.036 761.456 759.188 771.764C750.836 784.334 727.442 792.744 710.115 799.141C680.764 809.978 655.444 812.512 618.907 817.133C573.548 822.869 524.445 823.067 476.806 824.762C406.072 827.278 266.164 815.599 266.164 815.599L254.355 802.653C254.355 802.653 273.438 762.783 289.232 753.578C300.083 747.253 334.288 756.063 334.288 756.063Z" fill="url(#paint19_linear_122_298)"/>
<path d="M251.961 802.726C270.281 802.726 285.132 787.123 285.132 767.876C285.132 748.63 270.281 733.027 251.961 733.027C233.641 733.027 218.79 748.63 218.79 767.876C218.79 787.123 233.641 802.726 251.961 802.726Z" fill="url(#paint20_linear_122_298)"/>
<path d="M182.859 777.057L190.873 768.176L202.66 761.262L196.797 775.851L192.712 787.657L182.859 777.057Z" fill="#5B1651"/>
<path d="M230.855 762.225C230.665 761.818 230.455 761.424 230.224 761.045C228.723 758.576 226.407 756.831 223.902 755.892C221.397 754.952 218.708 754.777 216.08 755.033C208.868 755.736 201.86 759.851 197.577 766.496C193.457 772.888 192.043 781.37 193.547 789.112C194.812 795.622 198.176 801.707 203.141 805.239C208.552 809.088 215.502 809.63 221.59 807.458C225.555 806.044 229.215 803.536 232.17 800.21" fill="url(#paint21_linear_122_298)"/>
<path d="M194.727 694.427C199.819 696.674 204.817 695.936 205.892 692.779C206.966 689.622 203.71 685.241 198.619 682.993C193.527 680.746 188.529 681.483 187.454 684.641C186.38 687.798 189.636 692.179 194.727 694.427Z" fill="white" fill-opacity="0.346027"/>
<path d="M579.96 663.976C587.318 667.601 594.543 666.411 596.096 661.319C597.649 656.227 592.942 649.161 585.584 645.536C578.225 641.911 571.001 643.101 569.448 648.193C567.895 653.285 572.601 660.351 579.96 663.976Z" fill="white" fill-opacity="0.346027"/>
<path d="M438.556 749.917C444.276 752.478 449.892 751.638 451.099 748.04C452.306 744.442 448.648 739.449 442.928 736.888C437.208 734.327 431.593 735.168 430.385 738.765C429.178 742.363 432.836 747.356 438.556 749.917Z" fill="white" fill-opacity="0.346027"/>
<path d="M668.5 715.285C673.165 717.655 677.745 716.878 678.729 713.548C679.714 710.218 676.73 705.598 672.066 703.227C667.401 700.857 662.821 701.635 661.836 704.965C660.852 708.294 663.835 712.915 668.5 715.285Z" fill="white" fill-opacity="0.346027"/>
<path d="M681.296 715.815C682.078 718.888 685.109 721.267 688.064 721.128C691.02 720.99 692.781 718.387 691.999 715.315C691.216 712.242 688.186 709.863 685.231 710.001C682.275 710.139 680.513 712.742 681.296 715.815Z" fill="white" fill-opacity="0.346027"/>
<path d="M732.944 747.441C733.727 750.513 736.757 752.892 739.713 752.754C742.668 752.616 744.43 750.013 743.647 746.94C742.865 743.867 739.835 741.489 736.879 741.627C733.923 741.765 732.162 744.368 732.944 747.441Z" fill="white" fill-opacity="0.346027"/>
<path d="M367.717 757.416C369.026 762.915 374.098 767.172 379.044 766.925C383.991 766.678 386.939 762.02 385.629 756.521C384.319 751.023 379.248 746.765 374.302 747.013C369.355 747.26 366.407 751.918 367.717 757.416Z" fill="white" fill-opacity="0.346027"/>
<path d="M307.517 709.594C308.3 712.666 311.33 715.045 314.286 714.907C317.241 714.769 319.003 712.166 318.22 709.093C317.438 706.021 314.407 703.642 311.452 703.78C308.496 703.918 306.735 706.521 307.517 709.594Z" fill="white" fill-opacity="0.346027"/>
<path d="M542.672 777.713C543.454 780.786 546.485 783.165 549.44 783.027C552.396 782.889 554.157 780.286 553.375 777.213C552.592 774.14 549.562 771.761 546.607 771.9C543.651 772.038 541.889 774.641 542.672 777.713Z" fill="white" fill-opacity="0.346027"/>
<path d="M650.193 781.044C650.691 783.258 652.62 784.973 654.5 784.873C656.381 784.774 657.502 782.898 657.004 780.683C656.506 778.469 654.578 776.755 652.697 776.854C650.816 776.954 649.695 778.83 650.193 781.044Z" fill="white" fill-opacity="0.346027"/>
<path d="M636.89 790.892C637.673 793.965 640.703 796.344 643.659 796.206C646.614 796.068 648.376 793.465 647.593 790.392C646.811 787.319 643.78 784.94 640.825 785.079C637.869 785.217 636.108 787.82 636.89 790.892Z" fill="white" fill-opacity="0.346027"/>
<path d="M501.162 741.008C501.707 742.977 503.816 744.501 505.873 744.413C507.931 744.324 509.157 742.656 508.612 740.688C508.068 738.719 505.958 737.195 503.901 737.284C501.844 737.372 500.617 739.04 501.162 741.008Z" fill="white" fill-opacity="0.346027"/>
<g filter="url(#filter0_f_122_298)">
<path d="M225.517 788.356C225.517 788.356 195.156 795.759 204.289 820.694C211.409 840.132 232.828 830.103 232.828 830.103" fill="#521449"/>
</g>
<path d="M280.878 815.355L238.519 787.656L228.033 788.167C228.033 788.167 212.274 785.716 211.367 811.698C210.663 831.838 231.754 830.025 231.754 830.025L225.291 832.434C225.291 832.434 229.403 843.664 228.46 851.557C227.608 858.693 219.909 906.525 222.448 933.685C223.488 944.808 239.192 956.918 252.241 955.99C266.603 954.97 276.119 935.484 271.971 870.534C271.948 870.173 271.878 854.726 270.227 839.675C269.47 832.779 270.35 824.914 273.032 820.699C276.014 816.012 280.878 815.355 280.878 815.355Z" fill="#781460"/>
<path d="M252.544 928.419C253.232 931.796 255.897 933.88 258.495 933.075C261.094 932.269 262.643 928.879 261.955 925.502C261.267 922.126 258.602 920.042 256.004 920.847C253.405 921.653 251.856 925.043 252.544 928.419Z" fill="white" fill-opacity="0.346027"/>
<path d="M254.228 940.698C254.73 942.909 256.671 944.274 258.565 943.746C260.458 943.219 261.587 940.999 261.086 938.787C260.584 936.576 258.643 935.211 256.749 935.739C254.856 936.266 253.727 938.486 254.228 940.698Z" fill="white" fill-opacity="0.346027"/>
<path d="M219.433 763.985C222.005 765.408 224.738 765.044 225.536 763.173C226.335 761.301 224.897 758.629 222.324 757.206C219.752 755.783 217.019 756.147 216.221 758.019C215.422 759.891 216.86 762.562 219.433 763.985Z" fill="#B76EA0"/>
<path d="M223.113 801.509C225.205 802.776 227.427 802.452 228.077 800.785C228.726 799.119 227.557 796.74 225.464 795.473C223.372 794.206 221.15 794.53 220.5 796.196C219.851 797.863 221.021 800.242 223.113 801.509Z" fill="#AA548F" fill-opacity="0.776714"/>
<path d="M273.079 752.501C274.696 753.992 276.799 754.384 277.776 753.377C278.753 752.369 278.234 750.343 276.617 748.852C275 747.361 272.897 746.969 271.92 747.976C270.943 748.984 271.462 751.009 273.079 752.501Z" fill="#B76EA0"/>
<g filter="url(#filter1_f_122_298)">
<path d="M256.979 829.989C257.356 835.264 259.396 839.324 261.534 839.058C263.672 838.792 265.099 834.3 264.722 829.025C264.344 823.75 262.305 819.689 260.167 819.955C258.029 820.221 256.601 824.713 256.979 829.989Z" fill="white" fill-opacity="0.241405"/>
</g>
<path d="M263.078 745.867C267.043 747.608 270.768 747.514 271.397 745.657C272.026 743.799 269.321 740.882 265.355 739.14C261.389 737.399 257.664 737.493 257.035 739.351C256.406 741.208 259.112 744.125 263.078 745.867Z" fill="#B76EA0"/>
<g filter="url(#filter2_f_122_298)">
<path d="M229.315 760.477C232.732 768.369 235.849 778.155 238.558 791.494C238.895 793.154 242.019 792.558 245.543 793.548C249.541 794.673 253.973 797.274 253.973 797.274C253.973 797.274 249.348 791.731 243.047 783.181C233.932 770.813 225.718 752.17 229.315 760.477Z" fill="#641859"/>
</g>
<path opacity="0.410524" d="M569.015 633.825C569.015 633.825 529.016 639.441 522.521 674.86C513.384 724.686 527.018 736.442 530.116 741.306C544.046 763.174 595.171 766.994 595.171 766.994C595.171 766.994 560.529 762.722 548.095 765.579C535.662 768.436 525.708 770.36 520.291 785.399C515.652 798.279 518.709 811.224 518.709 811.224C518.709 811.224 520.385 820.061 521.383 823.098C519.329 810.791 495.484 791.807 483.62 821.431C469.378 808.357 476.567 787.118 483.353 775.374C488.323 766.771 497.806 768.03 506.713 766.214C521.022 766.032 519.69 751.079 519.69 751.079C519.69 751.079 518.466 726.004 495.272 737.241C491.706 722.333 491.766 689.336 501.473 671.377C524.211 629.309 569.015 633.825 569.015 633.825Z" fill="#3C0E35" fill-opacity="0.551518"/>
<path opacity="0.410524" d="M626.771 707.496C628.213 718.271 624.708 740.998 624.708 740.998C624.708 740.998 632.967 705.197 645.028 699.194C642.71 699.312 631.621 704.04 626.771 707.496Z" fill="#6B1256"/>
<path opacity="0.611825" d="M365.033 737.838C365.033 737.838 344.039 752.307 339.36 768.665C327.052 811.696 372.764 821.143 372.764 821.143L290.012 816.289C290.012 816.289 317.402 819.41 322.166 796.873C325.325 781.928 311.749 768.994 311.749 768.994L329.248 760.97L348.031 740.629L365.033 737.838Z" fill="#58154E" fill-opacity="0.752318"/>
<path d="M108.618 536.055C108.565 536.264 108.47 536.583 108.269 537.051C108.129 537.377 107.97 537.703 107.78 538.082C107.659 538.323 107.427 538.778 107.257 539.146C107.104 539.476 106.943 539.854 106.824 540.245C106.785 540.374 106.747 540.506 106.754 540.641C106.76 540.776 106.814 540.91 106.911 541.002C107.008 541.094 107.143 541.139 107.276 541.135C107.408 541.133 107.535 541.084 107.658 541.035C107.627 541.047 107.622 541.045 107.634 541.042C107.648 541.04 107.674 541.037 107.714 541.037C107.796 541.037 107.906 541.045 108.044 541.06C108.325 541.092 108.663 541.151 108.988 541.201C109.16 541.227 109.325 541.251 109.479 541.267C109.645 541.285 109.803 541.295 109.946 541.29C110.025 541.288 110.107 541.28 110.188 541.264C110.275 541.249 110.378 541.219 110.479 541.162C110.536 541.131 110.595 541.089 110.651 541.035C110.712 540.976 110.764 540.905 110.803 540.825C110.847 540.735 110.869 540.646 110.877 540.564C110.887 540.471 110.878 540.39 110.866 540.327C110.834 540.16 110.738 540.012 110.599 539.917C110.46 539.821 110.29 539.786 110.126 539.819C109.962 539.852 109.817 539.95 109.723 540.091C109.63 540.233 109.595 540.406 109.627 540.574C109.621 540.543 109.615 540.493 109.622 540.432C109.627 540.377 109.642 540.314 109.673 540.25C109.702 540.193 109.738 540.144 109.778 540.105C109.814 540.07 109.849 540.047 109.877 540.031C109.928 540.003 109.955 539.999 109.957 539.999C109.958 539.999 109.94 540.002 109.908 540.002C109.845 540.003 109.75 539.999 109.611 539.984C109.485 539.971 109.341 539.95 109.176 539.924C108.888 539.88 108.497 539.813 108.183 539.777C108.023 539.759 107.858 539.746 107.705 539.747C107.628 539.748 107.546 539.752 107.465 539.762C107.385 539.773 107.291 539.793 107.195 539.832L108.029 540.622C108.123 540.314 108.256 539.997 108.398 539.69C108.557 539.346 108.775 538.92 108.903 538.665C109.096 538.28 109.269 537.925 109.425 537.561C109.654 537.028 109.771 536.645 109.84 536.371C109.882 536.206 109.857 536.03 109.772 535.884C109.687 535.737 109.548 535.63 109.387 535.588C109.225 535.545 109.053 535.57 108.909 535.656C108.764 535.743 108.66 535.884 108.618 536.049L108.618 536.055Z" fill="#874943"/>
<path d="M108.696 539.819C108.525 539.801 108.378 539.776 108.369 539.766C108.36 539.748 108.461 539.527 108.593 539.258C108.726 538.99 108.84 538.777 108.848 538.785C108.855 538.785 108.914 539.04 108.979 539.332C109.055 539.675 109.081 539.863 109.052 539.859C109.027 539.859 108.867 539.838 108.696 539.819V539.819Z" fill="#874943"/>
<path d="M123.446 608.153C128.296 607.572 129.846 605.21 126.883 610.185C124.086 614.882 123.446 608.153 123.446 608.153Z" fill="#722A33"/>
<path d="M90.5894 454.549C92.9697 463.322 88.6109 468.512 95.8963 462.5C100.33 458.841 104.556 458.008 97.7138 456.454C95.2075 455.885 90.5894 454.549 90.5894 454.549Z" fill="#722A33"/>
<path d="M115.3 446.234C115.3 445.835 115.629 441.926 116.496 437.737C117.525 432.77 117.994 428.528 119.074 428.32C120.037 428.135 124.967 437.016 124.967 437.016L128.702 443.728C128.702 443.728 143.182 440.544 143.573 442.17C144.042 444.12 134.981 454.634 134.981 454.634C134.981 454.634 143.417 464.116 142.824 465.833C142.276 467.419 127.703 464.298 127.16 464.99C126.616 465.683 113.186 475.768 112.164 474.324C111.961 474.036 112.085 469.158 112.322 464.853C110.89 463.683 110.983 463.531 112.44 462.889C112.566 461.006 112.709 459.43 112.847 458.698C110.296 458.429 101.824 451.246 101.552 449.711C101.478 449.291 104.866 448.037 108.37 447.657C109.648 449.321 109.697 448.43 110 447.304C112.839 446.701 115.3 446.234 115.3 446.234H115.3Z" fill="#722A33"/>
<path opacity="0.475947" d="M121.107 487.04C121.339 488.969 121.756 490.867 122.21 492.741C122.675 495.058 123.265 497.337 123.804 499.632C124.259 501.844 124.803 504.031 125.311 506.228C125.795 508.296 126.188 510.389 126.619 512.472C126.981 514.477 127.479 516.445 127.94 518.422C128.238 519.741 128.542 521.056 128.879 522.362C128.957 522.666 129.014 522.977 129.11 523.275C129.226 523.636 129.379 523.98 129.514 524.333C129.77 525.415 130.21 526.423 130.592 527.452L130.715 527.519C130.593 526.579 130.526 525.623 130.238 524.724C130.205 524.427 130.192 524.126 130.14 523.832C130.086 523.526 129.991 523.231 129.922 522.928C129.622 521.615 129.322 520.303 128.998 518.998C128.964 518.845 128.576 517.126 128.542 516.958C128.284 515.675 128.09 514.375 127.778 513.106C127.347 511.004 126.875 508.913 126.405 506.822C125.878 504.618 125.386 502.403 124.853 500.2C124.293 497.898 123.709 495.603 123.203 493.284C122.888 491.486 122.47 489.682 122.49 487.836L121.107 487.04L121.107 487.04Z" fill="#722A33"/>
<path opacity="0.383265" d="M138.123 523.042C138.488 524.277 138.97 525.46 139.368 526.682C139.739 527.821 139.796 528.088 140.114 529.25C140.863 532.05 141.47 534.897 142.057 537.746C142.555 539.589 142.919 541.466 143.25 543.354C143.458 544.77 143.707 546.175 143.995 547.573C144.344 549.06 144.627 550.565 144.939 552.062C145.193 553.65 145.526 555.22 145.831 556.796C146.141 558.377 146.358 559.979 146.597 561.575C146.795 562.487 146.778 563.422 146.831 564.35C146.86 564.858 146.911 565.364 146.942 565.872C147.056 567.681 147.108 569.494 147.196 571.305C147.265 573.075 147.45 574.834 147.733 576.576C147.952 578.122 148.438 579.596 148.858 581.082C149.221 582.487 149.678 583.855 150.072 585.248C150.599 587.113 151.093 588.989 151.56 590.875C151.671 591.245 151.796 591.61 151.892 591.986C152.056 592.626 152.151 593.287 152.301 593.931C152.372 594.233 152.466 594.527 152.532 594.83C152.677 595.493 152.73 595.987 152.821 596.662C152.943 597.045 153.065 597.428 153.187 597.812L153.79 598.152C153.849 597.87 153.908 597.587 153.968 597.305C153.873 596.424 153.782 595.53 153.63 594.658C153.515 594.004 153.328 593.368 153.221 592.713C153.168 592.384 153.147 592.051 153.11 591.72C152.743 589.834 152.215 588.004 151.749 586.148C151.363 584.753 150.97 583.362 150.54 581.983C150.126 580.53 149.742 579.073 149.514 577.564C149.247 575.815 149.079 574.055 148.926 572.288C148.755 570.465 148.612 568.643 148.585 566.808C148.557 566.367 148.527 565.71 148.461 565.266C148.311 564.252 147.989 563.28 147.842 562.265C147.568 560.663 147.32 559.055 147.032 557.456C146.722 555.857 146.325 554.281 146.051 552.673C145.78 551.171 145.445 549.685 145.132 548.194C144.822 546.777 144.554 545.35 144.283 543.924C143.926 542.041 143.492 540.18 143.091 538.309C142.384 535.483 141.759 532.632 141.113 529.787C140.565 527.755 140.021 525.72 139.388 523.719L138.123 523.042H138.123Z" fill="#722A33"/>
<path opacity="0.412621" d="M125.059 524.338C125.333 526.171 125.623 528.001 125.885 529.837C126.14 531.709 126.304 533.598 126.628 535.458C126.733 536.057 127.018 537.446 127.143 538.064C127.77 540.539 128.412 543.01 129.003 545.497C129.097 545.861 129.186 546.227 129.287 546.589C129.349 546.812 129.955 548.831 130.001 549.012C130.344 550.347 130.322 550.542 130.576 551.911C130.672 552.428 130.778 552.942 130.879 553.457C130.986 553.96 131.087 554.466 131.199 554.968C131.306 555.446 131.431 555.918 131.537 556.396C131.787 557.514 132.006 558.635 132.345 559.725C132.467 560.116 132.61 560.498 132.742 560.884C132.999 561.712 133.231 562.377 133.396 563.236C133.471 563.628 133.492 564.032 133.56 564.425C133.777 565.67 134.082 566.908 134.36 568.137C134.474 568.6 134.593 569.061 134.703 569.525C134.803 569.948 134.882 570.378 134.989 570.799C135.875 574.27 134.826 569.853 135.683 573.245C135.858 573.942 135.995 574.65 136.154 575.351C136.364 576.258 136.527 577.185 136.813 578.067C136.912 578.372 137.05 578.66 137.143 578.969C137.219 579.224 137.254 579.494 137.317 579.754C137.388 580.04 137.469 580.324 137.545 580.609C137.692 580.928 137.84 581.246 137.987 581.565L138.11 581.632C138.124 581.4 138.137 581.169 138.151 580.938C138.097 580.665 138.048 580.39 137.988 580.118C137.93 579.852 137.843 579.594 137.799 579.324C137.758 579.074 137.77 578.815 137.733 578.565C137.596 577.649 137.286 576.774 137.108 575.87C136.944 575.159 136.752 574.456 136.597 573.742C136.293 572.343 136.466 572.866 136.193 571.455C136.111 571.03 136.009 570.609 135.916 570.186C135.83 569.739 135.744 569.292 135.659 568.845C135.399 567.598 135.176 566.306 134.801 565.095C134.411 563.833 133.855 562.634 133.57 561.328C133.046 558.97 132.354 556.647 132.222 554.201C132.159 553.704 132.115 553.204 132.032 552.711C131.656 550.504 130.952 548.392 130.386 546.245C129.747 543.806 129.153 541.354 128.635 538.877C127.982 536.124 127.511 533.321 127.093 530.511C126.867 528.746 126.689 526.976 126.6 525.195L125.059 524.337L125.059 524.338Z" fill="#722A33"/>
<path d="M139.068 585.565C139.119 585.565 139.16 585.518 139.16 585.461C139.16 585.403 139.119 585.356 139.068 585.356C139.018 585.356 138.977 585.403 138.977 585.461C138.977 585.518 139.018 585.565 139.068 585.565Z" fill="#722A33" stroke="black" stroke-width="0.204762"/>
<path opacity="0.410524" d="M123.185 465.124C123.431 465.707 123.539 465.9 123.682 466.612C123.752 466.963 123.763 467.325 123.818 467.679C124.03 469.068 124.304 470.447 124.545 471.829C124.979 474.269 125.534 476.677 125.981 479.113C126.419 481.439 127.006 483.724 127.512 486.032C127.919 487.711 128.142 489.437 128.515 491.123C128.71 492.006 128.851 492.492 129.083 493.353C129.781 495.524 130.366 497.734 130.819 499.987C131.312 502.154 131.606 504.365 131.915 506.572C132.143 508.037 132.243 509.526 132.46 510.993C132.889 513.901 132.378 509.945 132.748 512.907C132.841 513.977 132.936 515.055 133.126 516.11C133.197 516.504 133.294 516.892 133.378 517.283L133.5 517.351C133.442 515.918 133.288 514.495 133.061 513.082C132.986 512.461 132.936 511.836 132.858 511.215C132.816 510.882 132.753 510.554 132.707 510.222C132.552 509.093 132.439 507.957 132.355 506.818C132.313 506.457 132.282 506.095 132.229 505.737C131.953 503.87 131.476 502.045 131.178 500.183C130.695 497.946 130.238 495.697 129.467 493.559C128.739 491.112 128.142 488.616 127.635 486.099C127.153 483.804 126.645 481.518 126.177 479.22C125.639 476.801 125.085 474.381 124.711 471.922C124.583 470.871 124.49 470.289 124.45 469.227C124.435 468.832 124.45 468.437 124.453 468.041C124.456 467.714 124.431 467.384 124.467 467.06C124.516 466.608 124.628 466.376 124.778 466.002L123.185 465.124L123.185 465.124Z" fill="#722A33"/>
<path opacity="0.42017" d="M141.298 494.806C141.34 495.796 141.294 494.845 141.38 496.079C141.403 496.408 141.402 496.741 141.442 497.069C141.614 498.474 141.966 499.841 142.317 501.197C143.523 505.019 144.777 508.822 145.91 512.673C146.063 513.285 146.228 513.893 146.37 514.508C146.528 515.194 146.915 517.174 147.067 517.88C147.38 519.327 147.747 520.757 148.1 522.191C148.968 524.54 149.007 527.125 149.495 529.582C149.582 530.018 149.703 530.445 149.807 530.877C150.371 532.737 150.804 534.654 151.018 536.611C151.056 536.958 151.068 537.309 151.093 537.658C151.237 538.652 151.267 539.657 151.332 540.659C151.354 541.003 151.414 541.345 151.415 541.69C151.422 544.485 151.167 540.728 151.443 543.954C151.629 546.443 152.045 548.895 152.572 551.317C153.238 553.255 152.909 552.279 153.559 554.244L153.681 554.312C153.558 552.636 153.626 553.468 153.479 551.814C152.989 549.377 152.549 546.928 152.305 544.441C151.968 541.572 152.397 544.777 151.852 541.937C151.785 541.587 151.765 541.228 151.715 540.875C151.569 539.848 151.408 538.825 151.322 537.788C150.733 534.204 151.541 539.162 150.979 535.564C150.748 534.09 150.417 532.636 150.288 531.142C150.102 529.785 149.846 528.453 149.599 527.109C149.462 526.366 149.151 524.742 149.052 523.976C148.995 523.535 148.973 523.089 148.934 522.645C148.223 519.384 147.354 516.174 146.464 512.971C146.096 511.605 145.79 510.428 145.384 509.074C144.64 506.596 143.749 504.174 143.14 501.645C142.853 500.298 142.613 498.952 142.376 497.593C142.315 497.241 142.227 496.894 142.184 496.539C142.136 496.137 142.167 495.728 142.186 495.326L141.298 494.807L141.298 494.806Z" fill="#722A33"/>
<path opacity="0.483077" d="M112.704 512.286C112.695 512.431 112.672 512.574 112.677 512.718C112.69 513.171 112.809 514.084 112.86 514.488C113.023 515.775 113.267 517.015 113.541 518.277C113.645 518.735 113.719 519.205 113.854 519.653C114.015 520.19 114.235 520.701 114.425 521.226C114.594 521.766 114.772 522.303 114.932 522.847C115.37 524.332 115.767 525.836 116.185 527.329C116.544 528.703 116.953 530.065 117.203 531.472C117.321 532.138 117.4 532.835 117.485 533.505C117.531 533.869 117.577 534.233 117.623 534.597L117.746 534.665C117.699 534.301 117.653 533.937 117.607 533.573C117.523 532.907 117.443 532.201 117.326 531.539C117.077 530.132 116.667 528.769 116.309 527.395C116.038 526.431 115.765 525.467 115.496 524.503C115.2 523.445 114.906 522.47 114.712 521.38C114.633 520.934 114.62 520.474 114.542 520.027C114.46 519.564 114.336 519.113 114.233 518.655C114.001 517.431 113.776 516.213 113.693 514.96C113.633 514.064 113.681 514.111 113.665 513.291C113.662 513.138 113.648 512.984 113.639 512.831L112.704 512.286L112.704 512.286Z" fill="#722A33"/>
<path opacity="0.402556" d="M132.412 589.874C133.341 592.983 133.767 596.242 134.278 599.463C134.802 602.12 135.188 604.821 135.935 607.414C136.296 608.669 136.721 609.898 137.104 611.144C137.278 611.711 137.451 612.278 137.626 612.845C137.793 613.386 137.97 613.923 138.129 614.466C138.679 616.347 139.115 618.273 139.558 620.188C140.007 621.284 140.145 622.492 140.496 623.623C140.682 624.222 140.963 624.781 141.141 625.384C141.295 625.905 141.375 626.45 141.489 626.985C141.731 628.118 141.853 628.729 142.082 629.857C142.204 631.371 142.262 632.895 142.606 634.372C142.775 635.096 142.98 635.808 143.155 636.53C143.676 638.619 144.283 640.678 144.819 642.761C144.903 643.12 145 643.475 145.071 643.838C145.141 644.203 145.174 644.576 145.241 644.942C145.309 645.318 145.4 645.688 145.475 646.062C145.714 647.239 145.947 648.417 146.18 649.596C146.476 651.404 146.726 653.22 146.924 655.046C147.127 656.702 147.447 658.341 147.797 659.964C147.981 661.052 148.486 662.009 148.818 663.037C149.174 664.136 148.771 663.169 149.272 664.265L150.019 664.67C150.024 664.516 150.061 664.36 150.038 664.209C150.004 663.992 149.909 663.793 149.849 663.584C149.573 662.627 149.352 661.651 149.112 660.682C148.756 659.067 148.421 657.448 148.254 655.791C147.983 653.941 147.716 652.089 147.373 650.254C147.118 648.677 146.853 647.093 146.401 645.57C146.277 645.153 146.121 644.749 145.992 644.334C145.877 643.965 145.776 643.591 145.669 643.219C145.116 641.158 144.682 639.056 144.059 637.018C143.964 636.673 143.859 636.331 143.775 635.982C143.597 635.249 143.487 634.496 143.297 633.766C142.982 632.468 142.583 631.199 142.205 629.924C141.976 628.797 141.854 628.184 141.612 627.052C141.498 626.517 141.34 625.994 141.264 625.451C141.197 624.972 141.244 624.479 141.185 623.999C141.054 622.924 140.704 621.891 140.674 620.795C140.555 620.281 140.452 619.761 140.317 619.252C139.913 617.731 139.316 616.297 138.802 614.823C138.612 614.279 138.434 613.73 138.256 613.18C138.073 612.612 137.897 612.04 137.717 611.471C137.54 610.887 137.348 610.308 137.185 609.718C137.013 609.096 136.868 608.465 136.715 607.837C136.08 605.23 135.476 602.606 135.116 599.929C134.823 598.011 134.771 597.714 134.507 595.798C134.295 594.257 134.155 592.684 133.864 591.158C133.827 590.96 133.764 590.768 133.714 590.573L132.412 589.874H132.412Z" fill="#722A33"/>
<path opacity="0.434848" d="M150.03 622.18C150.152 623.273 150.416 624.334 150.625 625.406C150.727 625.93 150.809 626.46 150.909 626.985C151.593 630.585 150.927 626.838 151.547 630.401C151.827 631.933 152.028 633.49 152.413 634.995C152.541 635.495 152.703 635.983 152.848 636.478C153.388 638.319 153.081 637.338 153.687 639.175C154.683 641.903 155.443 644.729 156.255 647.531C156.83 649.389 157.474 651.22 157.929 653.124C158.132 653.975 158.277 654.77 158.444 655.629C158.498 656.012 158.548 656.396 158.606 656.778C158.751 657.736 158.824 657.97 158.911 658.907C158.985 659.712 158.984 660.527 159.016 661.335C159.066 662.54 159.228 663.748 159.501 664.914C159.647 665.962 159.977 666.351 160.625 667.077L160.748 667.143C160.851 667.097 160.976 667.094 161.055 667.006C161.331 666.704 161.007 666.072 160.998 665.744C160.906 664.58 160.803 663.416 160.65 662.261C160.544 661.395 160.417 660.535 160.285 659.674C160.239 659.378 159.992 657.755 159.942 657.511C159.857 657.097 159.742 656.692 159.642 656.282C158.971 653.561 158.16 650.891 157.465 648.178C156.653 645.376 155.782 642.598 154.907 639.821C154.8 639.495 154.117 637.437 154.024 637.11C153.461 635.136 153.121 633.09 152.745 631.063C152.471 629.439 152.24 627.808 152.014 626.174C151.949 625.701 151.909 625.225 151.831 624.755C151.7 623.956 151.594 623.641 151.392 622.92L150.03 622.18L150.03 622.18Z" fill="#722A33"/>
<path d="M129.959 665.598C130.864 664.513 141.829 669.524 141.829 669.524C141.829 669.524 154.954 657.461 163.04 655.61C170.864 653.819 177.805 661.36 177.805 661.36L185.001 651.779L188.932 685.832L140.769 703.204L129.959 665.598Z" fill="#861C68" fill-opacity="0.442673"/>
<path d="M176.874 653.075C179.17 653.075 181.031 650.472 181.031 647.26C181.031 644.049 179.17 641.446 176.874 641.446C174.579 641.446 172.718 644.049 172.718 647.26C172.718 650.472 174.579 653.075 176.874 653.075Z" fill="#861C68" fill-opacity="0.442673"/>
<path d="M141.365 654.629C142.526 654.629 143.466 653.539 143.466 652.195C143.466 650.85 142.526 649.76 141.365 649.76C140.205 649.76 139.264 650.85 139.264 652.195C139.264 653.539 140.205 654.629 141.365 654.629Z" fill="#861C68" fill-opacity="0.442673"/>
<path d="M222.128 913.443C222.128 913.443 219.632 926.58 224.833 941.804C233.846 968.19 259.866 953.354 259.866 953.354C259.866 953.354 242.572 948.308 235.162 939.328C229.602 932.589 222.128 913.443 222.128 913.443Z" fill="#5C1651"/>
<path d="M183.87 1256.25C183.87 1256.25 243.659 1351.96 460.896 1351.11C666.654 1350.31 728.728 1246.81 728.728 1246.81L696.175 1337.74C696.175 1337.74 656.688 1353.62 580.581 1371.24C545.535 1379.36 508.386 1379.86 463.363 1381.47C427.202 1382.77 393.255 1379.93 353.451 1375.12C268.107 1364.82 199.165 1331.49 199.165 1331.49L183.87 1256.25Z" fill="#5D1F23"/>
<path opacity="0.759095" d="M662.438 878.295C636.926 889.909 671.718 941.705 679.337 973.218C687.869 1008.51 685.989 1078.43 711.599 1075.03C743.62 1070.78 730.767 995.202 721.009 958.599C712.285 925.871 692.352 864.677 662.438 878.295Z" fill="#A76A55"/>
<path opacity="0.759095" d="M788.333 2.22327C792.61 2.7831 797.068 -3.99576 798.289 -12.9177C799.511 -21.8396 797.035 -29.5261 792.758 -30.086C788.481 -30.6458 784.024 -23.867 782.802 -14.945C781.58 -6.02306 784.057 1.66344 788.333 2.22327Z" fill="#918483"/>
<path opacity="0.759095" d="M805.01 -4.24396C804.904 -3.67883 804.811 -2.80241 805.098 -1.90531C805.2 -1.58602 805.349 -1.27018 805.556 -0.970128C805.742 -0.701394 805.969 -0.452076 806.24 -0.228368C806.577 0.0490603 806.973 0.279835 807.421 0.459826C807.613 0.536413 807.823 0.607823 808.055 0.67051C808.647 0.830224 809.363 0.928091 810.197 0.91201C811.507 0.887481 813.108 0.571424 814.606 -0.167567C815.266 -0.4931 815.903 -0.901398 816.454 -1.39561C816.968 -1.8566 817.41 -2.39567 817.716 -3.01354C818.387 -3.91895 818.751 -4.73647 818.943 -5.23545C819.006 -5.39983 819.001 -5.58209 818.927 -5.7422C818.853 -5.9023 818.718 -6.02712 818.55 -6.08917C818.383 -6.15121 818.197 -6.14539 818.034 -6.07303C817.871 -6.00066 817.744 -5.86765 817.681 -5.70327C817.514 -5.27104 817.193 -4.54882 816.592 -3.74831C816.567 -3.71343 816.543 -3.67582 816.524 -3.63657C816.306 -3.18046 815.97 -2.75599 815.543 -2.37347C815.1 -1.97549 814.57 -1.63268 814 -1.35149C812.698 -0.709143 811.298 -0.434489 810.17 -0.412685C809.459 -0.399057 808.873 -0.482973 808.413 -0.606983C808.233 -0.655497 808.073 -0.710032 807.932 -0.766722C807.6 -0.899726 807.328 -1.06228 807.108 -1.24328C806.931 -1.38882 806.788 -1.54689 806.673 -1.71309C806.545 -1.89897 806.452 -2.09653 806.386 -2.30268C806.195 -2.89769 806.248 -3.52955 806.337 -4.00379C806.369 -4.17617 806.33 -4.35376 806.228 -4.49773C806.126 -4.64169 805.971 -4.7403 805.796 -4.77204C805.62 -4.80378 805.439 -4.76604 805.292 -4.66707C805.145 -4.5681 805.044 -4.41597 805.01 -4.24392L805.01 -4.24396Z" fill="#8B7E7E"/>
</g>
<defs>
<filter id="filter0_f_122_298" x="202.291" y="788.072" width="30.822" height="44.903" filterUnits="userSpaceOnUse" color-interpolation-filters="sRGB">
<feFlood flood-opacity="0" result="BackgroundImageFix"/>
<feBlend mode="normal" in="SourceGraphic" in2="BackgroundImageFix" result="shape"/>
<feGaussianBlur stdDeviation="0.142385" result="effect1_foregroundBlur_122_298"/>
</filter>
<filter id="filter1_f_122_298" x="256.745" y="819.769" width="8.21158" height="19.4756" filterUnits="userSpaceOnUse" color-interpolation-filters="sRGB">
<feFlood flood-opacity="0" result="BackgroundImageFix"/>
<feBlend mode="normal" in="SourceGraphic" in2="BackgroundImageFix" result="shape"/>
<feGaussianBlur stdDeviation="0.0869537" result="effect1_foregroundBlur_122_298"/>
</filter>
<filter id="filter2_f_122_298" x="227.928" y="757.891" width="26.5674" height="39.9052" filterUnits="userSpaceOnUse" color-interpolation-filters="sRGB">
<feFlood flood-opacity="0" result="BackgroundImageFix"/>
<feBlend mode="normal" in="SourceGraphic" in2="BackgroundImageFix" result="shape"/>
<feGaussianBlur stdDeviation="0.260998" result="effect1_foregroundBlur_122_298"/>
</filter>
<linearGradient id="paint0_linear_122_298" x1="456.594" y1="809.526" x2="461.095" y2="1585.33" gradientUnits="userSpaceOnUse">
<stop offset="0.283302" stop-color="#874943"/>
<stop offset="1" stop-color="#5D1F23"/>
</linearGradient>
<linearGradient id="paint1_linear_122_298" x1="199.695" y1="1454.75" x2="264.386" y2="1323.72" gradientUnits="userSpaceOnUse">
<stop offset="0.00071271" stop-color="#874943"/>
<stop offset="1" stop-color="#3F0806"/>
</linearGradient>
<linearGradient id="paint2_linear_122_298" x1="715.193" y1="1455.76" x2="656.621" y2="1333.09" gradientUnits="userSpaceOnUse">
<stop offset="0.00106906" stop-color="#874943"/>
<stop offset="1" stop-color="#371212"/>
</linearGradient>
<linearGradient id="paint3_linear_122_298" x1="145.437" y1="742.163" x2="159.424" y2="1056.68" gradientUnits="userSpaceOnUse">
<stop stop-color="#963E4B"/>
<stop offset="1" stop-color="#5D1F23"/>
</linearGradient>
<linearGradient id="paint4_linear_122_298" x1="781.502" y1="811.42" x2="812.64" y2="1149.73" gradientUnits="userSpaceOnUse">
<stop stop-color="#8B313C"/>
<stop offset="1" stop-color="#5D1F23"/>
</linearGradient>
<linearGradient id="paint5_linear_122_298" x1="444.529" y1="570.27" x2="430.829" y2="-211.65" gradientUnits="userSpaceOnUse">
<stop stop-color="#C8B7B7"/>
<stop offset="0.962583" stop-color="#C8B7B7" stop-opacity="0"/>
</linearGradient>
<linearGradient id="paint6_linear_122_298" x1="434.948" y1="697.028" x2="416.131" y2="-373.03" gradientUnits="userSpaceOnUse">
<stop stop-color="#C8B7B7"/>
<stop offset="1" stop-color="#C8B7B7" stop-opacity="0"/>
</linearGradient>
<linearGradient id="paint7_linear_122_298" x1="431.64" y1="693.496" x2="412.971" y2="-377.922" gradientUnits="userSpaceOnUse">
<stop stop-color="#C8B7B7"/>
<stop offset="1" stop-color="#C8B7B7" stop-opacity="0"/>
</linearGradient>
<linearGradient id="paint8_linear_122_298" x1="417.074" y1="692.413" x2="397.916" y2="-362.604" gradientUnits="userSpaceOnUse">
<stop stop-color="#C8B7B7"/>
<stop offset="1" stop-color="#C8B7B7" stop-opacity="0"/>
</linearGradient>
<linearGradient id="paint9_linear_122_298" x1="436.947" y1="691.782" x2="416.646" y2="-359.448" gradientUnits="userSpaceOnUse">
<stop stop-color="#C8B7B7"/>
<stop offset="1" stop-color="#C8B7B7" stop-opacity="0"/>
</linearGradient>
<linearGradient id="paint10_linear_122_298" x1="406.27" y1="672.951" x2="389.199" y2="-323.529" gradientUnits="userSpaceOnUse">
<stop stop-color="#C8B7B7"/>
<stop offset="1" stop-color="#C8B7B7" stop-opacity="0"/>
</linearGradient>
<linearGradient id="paint11_linear_122_298" x1="487.108" y1="709.917" x2="459.28" y2="-450.134" gradientUnits="userSpaceOnUse">
<stop stop-color="#C8B7B7"/>
<stop offset="1" stop-color="#C8B7B7" stop-opacity="0"/>
</linearGradient>
<linearGradient id="paint12_linear_122_298" x1="446.944" y1="686.593" x2="428.045" y2="-367.125" gradientUnits="userSpaceOnUse">
<stop stop-color="#C8B7B7"/>
<stop offset="1" stop-color="#C8B7B7" stop-opacity="0"/>
</linearGradient>
<linearGradient id="paint13_linear_122_298" x1="447.133" y1="684.892" x2="428.485" y2="-363.91" gradientUnits="userSpaceOnUse">
<stop stop-color="#C8B7B7"/>
<stop offset="1" stop-color="#C8B7B7" stop-opacity="0"/>
</linearGradient>
<linearGradient id="paint14_linear_122_298" x1="428.962" y1="691.955" x2="408.612" y2="-375.922" gradientUnits="userSpaceOnUse">
<stop stop-color="#C8B7B7"/>
<stop offset="1" stop-color="#C8B7B7" stop-opacity="0"/>
</linearGradient>
<linearGradient id="paint15_linear_122_298" x1="21.4992" y1="736.811" x2="171.903" y2="733.462" gradientUnits="userSpaceOnUse">
<stop stop-color="#7F6468"/>
<stop offset="1" stop-color="#70464B"/>
</linearGradient>
<linearGradient id="paint16_linear_122_298" x1="50.3295" y1="555.602" x2="149.11" y2="705.461" gradientUnits="userSpaceOnUse">
<stop stop-color="#A79C96"/>
<stop offset="1" stop-color="#8F7C79"/>
</linearGradient>
<linearGradient id="paint17_linear_122_298" x1="863.401" y1="601.921" x2="683.483" y2="725.44" gradientUnits="userSpaceOnUse">
<stop stop-color="#A79C96"/>
<stop offset="1" stop-color="#907F7B"/>
</linearGradient>
<linearGradient id="paint18_linear_122_298" x1="231.695" y1="627.543" x2="145.789" y2="759.388" gradientUnits="userSpaceOnUse">
<stop offset="0.0011053" stop-color="#A52E79"/>
<stop offset="1" stop-color="#781460"/>
</linearGradient>
<linearGradient id="paint19_linear_122_298" x1="467.105" y1="729.496" x2="425.632" y2="818.649" gradientUnits="userSpaceOnUse">
<stop offset="0.0809651" stop-color="#9D2676"/>
<stop offset="1" stop-color="#781460"/>
</linearGradient>
<linearGradient id="paint20_linear_122_298" x1="252.148" y1="723.66" x2="251.124" y2="794.42" gradientUnits="userSpaceOnUse">
<stop offset="0.00036843" stop-color="#91226E"/>
<stop offset="0.998526" stop-color="#781460"/>
</linearGradient>
<linearGradient id="paint21_linear_122_298" x1="227.819" y1="734.599" x2="213.656" y2="781.494" gradientUnits="userSpaceOnUse">
<stop offset="0.203189" stop-color="#A52E79"/>
<stop offset="1" stop-color="#781460"/>
</linearGradient>
<clipPath id="clip0_122_298">
<rect width="880" height="1612" fill="white"/>
</clipPath>
</defs>
</svg>
