<?xml version="1.0" standalone="no"?>
<!DOCTYPE svg PUBLIC "-//W3C//DTD SVG 20010904//EN"
 "http://www.w3.org/TR/2001/REC-SVG-20010904/DTD/svg10.dtd">
<svg version="1.0" xmlns="http://www.w3.org/2000/svg"
 width="512.000000pt" height="512.000000pt" viewBox="0 0 512.000000 512.000000"
 preserveAspectRatio="xMidYMid meet">
<metadata>
Created by potrace 1.14, written by Peter Selinger 2001-2017
</metadata>
<g transform="translate(0.000000,512.000000) scale(0.100000,-0.100000)"
fill="#000000" stroke="none">
<path d="M2624 4575 c-22 -22 -85 -143 -125 -240 -30 -72 -69 -173 -69 -179 0
-2 -5 -17 -12 -33 -6 -15 -13 -32 -14 -38 -2 -5 -35 -102 -74 -215 -62 -178
-173 -515 -185 -560 -2 -8 -27 -89 -55 -180 -143 -461 -340 -1112 -340 -1125
0 -7 -62 -31 -137 -55 -711 -223 -1128 -382 -1195 -457 -17 -19 -17 -22 7 -69
83 -166 444 -419 780 -547 22 -8 58 -22 80 -31 54 -21 251 -82 292 -90 10 -3
56 -13 103 -25 47 -11 96 -22 110 -25 14 -2 52 -9 85 -15 72 -13 103 -17 175
-26 30 -4 63 -9 73 -11 65 -12 230 -18 482 -18 256 0 342 4 452 19 15 2 51 6
78 10 45 6 78 11 195 30 19 3 55 11 80 16 25 6 52 12 60 14 72 15 278 72 375
104 379 124 812 348 983 508 50 48 60 66 44 89 -11 16 -87 66 -172 113 -71 39
-616 311 -624 311 -3 0 -60 26 -128 58 -67 32 -171 80 -229 106 l-106 47 -42
137 c-238 772 -561 1710 -719 2087 -71 169 -160 315 -193 315 -5 0 -21 -11
-35 -25z"/>
</g>
</svg>
